<?xml version="1.0" encoding="UTF-8"?>
<svg id="Layer_2" data-name="Layer 2" xmlns="http://www.w3.org/2000/svg" viewBox="0 0 699.94 699.94">
  <defs>
    <style>
      .cls-1 {
        fill: #b74326;
      }
    </style>
  </defs>
  <g id="Layer_1-2" data-name="Layer 1">
    <rect width="699.94" height="699.94"/>
    <g>
      <g>
        <path class="cls-1" d="M382.25,374.63c-.17,0-.29-.05-.42-.17-.85-.77-1.47-1.47-1.79-2.37-.12-.33-.25-.65-.39-.97-.28-.66-.55-1.29-.62-1.97,0-.06-.02-.17-.06-.28-.73-1.77-.99-3.61-1.27-5.57l-.09-.61c-.11-.74-.26-1.47-.41-2.18-.15-.7-.3-1.43-.41-2.15-.11-.77-.24-1.53-.36-2.3-.24-1.47-.49-3-.62-4.5-.09-1.12-.26-2.24-.42-3.33-.1-.69-.21-1.39-.29-2.09-.11-.88-.18-1.76-.26-2.65l-.1-1.15v-.16c-.01-.1-.02-.2-.03-.3-.1-.74-.35-1.19-1.31-1.24-.81-.05-1.44-.42-2.09-1.25-.41-.52-.56-1.28-.42-2.04.14-.76.56-1.41,1.13-1.74.23-.14.48-.24.73-.35.15-.06.29-.13.43-.19,1.07-.5,1.18-1.32,1.08-1.92-.24-1.47-.22-2.93-.21-4.47v-.85c0-.91-.05-1.83-.11-2.72-.04-.51-.07-1.03-.09-1.54v-.21c-.1-1.98-.19-3.97-.24-5.95-.02-.89-.03-1.78-.03-2.66,0-.97,0-1.95-.04-2.92-.04-1.44-.11-2.88-.18-4.33-.04-.81-.08-1.62-.11-2.43-.02-.37-.02-.75-.03-1.12-.01-.56-.02-1.13-.06-1.69-.11-1.59-.32-3.28-1.12-4.89-.47-.94-.41-1.99-.29-2.89.1-.72.93-1.49,1.65-1.52.08,0,.16,0,.25,0,.33,0,.67.03,1,.05l.45.03c.15.13.32.27.49.41.48.39.93.75,1.33,1.17.2.22.31.7.37.96.41,1.9.66,3.49.77,5.01.12,1.68.26,3.36.4,5.04l.18,2.16c-.08,1.56-.02,3.18.06,4.54.08,1.48.08,3,.07,4.47,0,.86,0,1.71.01,2.57,0,.5,0,.99,0,1.49-.02,1.22-.03,2.47.17,3.72.01.07,0,.18-.01.29,0,0-.04.33-.05.41-.03.19-.05.38-.04.57.07,1.47.16,2.94.24,4.41.04.58.42.84.79.84.14,0,.29-.04.43-.11.63-.33,1.24-.68,1.86-1.02l.47-.26c.18-.1.35-.21.53-.31.33-.2.64-.39.96-.53.51-.22,1.01-.44,1.51-.67,1.3-.58,2.63-1.18,4.02-1.58.66-.19,1.29-.44,1.9-.69.5-.21,1.03-.42,1.54-.58.74-.23,1.54-.36,2.32-.48l.34-.05c.93-.15,1.89-.3,2.7-1.04.07-.06.17-.1.23-.11.58-.03,1.08-.22,1.57-.39.31-.11.61-.22.9-.28,1.56-.33,3.18-.6,4.6-.85.09-.02.18-.02.28-.02h.4c.11,0,.21,0,.32,0,.44-.05.89-.11,1.33-.17l.95-.13s.06-.8.07-1c.04-.49.08-.99.07-1.49,0-.31-.09-.59-.17-.86-.05-.16-.09-.32-.12-.49l-.28-1.93c-.36-2.51-.74-5.1-.94-7.66-.06-.79-.17-1.59-.27-2.36-.08-.58-.16-1.16-.21-1.73-.03-.34-.03-.69-.04-1.03,0-.34,0-.68-.03-1.02-.18-2.19-.38-4.38-.6-6.57-.04-.39-.14-.77-.24-1.13-.06-.21-.11-.42-.16-.64l-.09-.46c-.13-.64-.27-1.31-.35-1.96-.1-.85.37-1.45,1.2-2.2.02-.01.1-.04.18-.04,1.31.06,2.23.3,3.02.76.22.13.45.37.62.66.46.76.72,1.53.79,2.28.07.83.17,1.66.27,2.49.17,1.38.34,2.81.38,4.22.09,2.81.33,5.66.57,8.41l.02.28c.08.99.24,1.98.38,2.94.07.48.15.97.21,1.45.19,1.41.38,2.82.56,4.23.04.31.08.62.11.93.07.62.15,1.24.25,1.86.16.93.42,1.38,1.45,1.38h.21c.17,0,.35-.02.53-.03.23-.01.46-.02.69-.02.23,0,.4.05.58.09.19.05.28.08.38.11.2.06.39.12.59.15.36.05.72.09,1.08.13.58.06,1.12.12,1.66.22,1.53.3,3,1.04,4.6,2.31.19.15.29.3.3.35.02.47.22.88.39,1.24.18.36.33.67.28,1-.06.47-.61.97-1.32.97-.92,0-1.56-.17-2.08-.55-1.19-.86-2.57-1.29-4.09-1.29h-.23c-.23,0-.47.01-.7.01-.46,0-.91,0-1.37-.02,0,0-.86-.02-.86-.02-.31,0-.6.03-.82.25-.22.22-.24.51-.24.71,0,.31,0,.56.06.82.18.95.37,1.89.56,2.84.21,1.07.43,2.14.64,3.22.16.85.32,1.69.48,2.54.23,1.23.46,2.45.7,3.67.19.93.4,1.85.62,2.77.11.47.51,2.23.51,2.23.18.77.35,1.54.5,2.31l.21,1.08c.26,1.29.53,2.63.68,3.95.13,1.17.16,2.45.07,4.04-.02.4-.24.85-.45,1.29l-.15.31s-.22.13-.32.18c-.18.09-.34.16-.51.22-.31.12-.63.25-.92.46-.27.19-.55.29-.83.29-.57,0-1.16-.42-1.51-1.07-.43-.8-.6-1.73-.48-2.55.14-.98,0-1.89-.12-2.77-.03-.24-.07-.47-.1-.71,0-.07-.03-.15-.05-.22-.18-1.82-.54-3.56-.89-5.24-.14-.7-.29-1.39-.42-2.09-.29-1.54-.62-3.07-.94-4.6-.14-.67-.89-4.19-.89-4.19-.43-2.05-.86-4.1-1.28-6.15-.07-.34-.1-.68-.13-1.02-.02-.23-.04-.47-.07-.7-.11-.89-.63-1.07-1.05-1.07-.1,0-.21.01-.34.04-.39.08-.79.11-1.18.14-.74.06-1.5.13-2.25.44-.19.08-.42.11-.67.14l-.22.03c-2.46.37-4.8,1.22-7.07,2.03l-.23.08c-.91.33-1.82.62-2.74.92-.9.29-1.81.58-2.7.9-1.29.46-2.64,1.01-3.99,1.62-1.2.54-2.41,1.16-3.7,1.87-1.05.58-2.07,1.2-3.1,1.81l-1.09.66c-.29.17-.63.53-.56,1.24l.56,6.15c.02.21.04.43.09.64.24,1.17.4,2.33.48,3.57.08,1.26.29,2.53.49,3.75l.16.96c.28,1.79.53,3.42.67,5.06.06.7.19,1.38.31,2.05.13.69.26,1.35.31,2.02.16,2.08.76,4,1.47,6.11l.08.24c.18.57.4,1.27,1.13,1.64.07.12.14.25.21.37.25.42.48.82.47,1.23,0,.35-.15.74-.3,1.14l-.09.24s-.07.06-.1.07c-.31.1-.61.21-.91.32-.7.26-1.36.51-2.07.58-.04,0-.09,0-.13,0Z"/>
        <path class="cls-1" d="M407.1,289.73c1.18.06,2.01.27,2.71.69.15.09.32.28.45.49.42.69.66,1.39.72,2.06.08.84.18,1.69.28,2.51.16,1.37.34,2.79.38,4.17.09,2.82.33,5.67.57,8.43l.02.29c.09,1.01.24,2.01.39,2.98.07.48.15.96.21,1.44.19,1.41.38,2.82.56,4.22.04.31.08.62.11.93.07.61.15,1.25.25,1.88.18,1.08.59,1.79,1.95,1.79.07,0,.14,0,.22,0,.18,0,.36-.01.53-.02.22-.01.45-.02.67-.02h.08c.09,0,.24.04.38.08l.09.02c.09.02.17.05.26.08.2.06.42.14.68.17.36.05.73.09,1.1.13.56.06,1.1.12,1.62.22,1.45.29,2.85.99,4.39,2.21.05.04.1.09.12.12.05.52.26.95.43,1.3.16.33.26.54.24.72-.03.22-.36.54-.84.54-.79,0-1.34-.14-1.77-.45-1.28-.92-2.75-1.39-4.38-1.39-.08,0-.16,0-.24,0-.23,0-.46,0-.69,0-.45,0-.91,0-1.36-.02-.29,0-.57-.01-.86-.02h-.05s0,0,0,0c-.2,0-.74,0-1.14.4-.39.39-.38.9-.38,1.07v.07c0,.25,0,.54.07.84.19.95.38,1.91.57,2.86.21,1.06.42,2.13.63,3.19.16.84.32,1.69.48,2.53.23,1.23.46,2.46.71,3.69.19.94.41,1.88.62,2.79.11.46.22.92.32,1.39l.19.83c.17.75.35,1.53.5,2.3.07.36.14.71.21,1.07.26,1.29.52,2.62.67,3.92.13,1.14.15,2.39.07,3.95-.02.3-.21.7-.4,1.1-.03.06-.06.12-.09.18-.05.03-.12.06-.18.09-.14.07-.29.13-.44.19-.32.13-.68.27-1.03.52-.19.13-.36.2-.53.2-.37,0-.81-.33-1.06-.81-.38-.71-.53-1.53-.43-2.25.15-1.05.01-2-.12-2.91-.03-.23-.07-.47-.1-.7-.01-.09-.03-.19-.07-.3-.17-1.77-.53-3.52-.88-5.2-.14-.69-.29-1.39-.42-2.08-.29-1.55-.63-3.11-.95-4.63-.14-.67-.29-1.33-.42-2l-.47-2.24c-.43-2.03-.85-4.06-1.26-6.09-.06-.3-.09-.62-.12-.97-.02-.24-.04-.48-.07-.72-.18-1.4-1.23-1.51-1.54-1.51-.14,0-.28.01-.43.04-.35.07-.73.1-1.13.14-.74.06-1.58.14-2.4.48-.13.05-.33.08-.55.11l-.22.03c-2.51.38-4.87,1.23-7.16,2.05l-.23.08c-.9.32-1.83.62-2.73.91-.89.29-1.81.58-2.71.9-1.3.47-2.66,1.02-4.03,1.64-1.21.55-2.44,1.17-3.74,1.89-1.06.59-2.11,1.22-3.12,1.83-.36.22-.72.43-1.08.65-.34.2-.9.69-.8,1.71.12,1.29.23,2.57.35,3.86l.21,2.29c.02.22.04.45.1.69.24,1.14.39,2.29.47,3.5.08,1.28.29,2.56.5,3.79.05.32.11.64.16.96.28,1.79.53,3.4.66,5.03.06.72.19,1.42.32,2.1.13.68.25,1.32.3,1.96.17,2.13.78,4.08,1.5,6.23l.07.23c.18.56.43,1.38,1.24,1.86.05.09.1.17.15.26.22.37.41.7.4.97,0,.27-.14.62-.27.98l-.02.05c-.27.09-.53.19-.79.28-.67.25-1.3.48-1.94.55-.02,0-.03,0-.06,0-.02,0-.04,0-.07,0,0,0-.01,0-.04-.03-.79-.72-1.37-1.37-1.66-2.17-.12-.35-.27-.68-.4-1-.27-.63-.52-1.22-.58-1.82-.01-.12-.03-.26-.1-.43-.7-1.71-.96-3.52-1.24-5.44l-.09-.62c-.11-.75-.27-1.49-.42-2.21-.15-.73-.3-1.42-.4-2.11-.11-.77-.24-1.54-.36-2.31-.24-1.46-.49-2.98-.61-4.46-.09-1.14-.26-2.27-.43-3.37-.1-.69-.21-1.38-.29-2.07-.11-.87-.19-1.77-.26-2.64-.03-.38-.07-.76-.1-1.14,0-.04,0-.09,0-.13,0-.12-.01-.24-.03-.35-.11-.78-.41-1.59-1.77-1.67-.66-.04-1.16-.35-1.73-1.06-.32-.41-.44-1.02-.32-1.64.12-.62.45-1.14.89-1.4.19-.11.43-.21.67-.32.15-.06.3-.13.45-.2,1.05-.5,1.54-1.37,1.36-2.46-.23-1.43-.22-2.86-.2-4.38,0-.29,0-.57,0-.86,0-.93-.06-1.86-.12-2.76-.04-.51-.07-1.02-.09-1.53v-.25c-.1-1.94-.19-3.94-.24-5.9-.02-.88-.03-1.77-.03-2.65,0-.96,0-1.95-.04-2.94-.04-1.45-.11-2.91-.18-4.33-.04-.81-.08-1.63-.11-2.44-.02-.37-.02-.74-.03-1.1-.01-.56-.02-1.14-.06-1.72-.11-1.64-.33-3.39-1.17-5.08-.32-.65-.4-1.43-.24-2.6.06-.48.69-1.06,1.18-1.09.07,0,.15,0,.22,0,.3,0,.62.03.96.05.1,0,.19.02.29.02.13.11.26.21.39.31.47.38.91.73,1.28,1.13.07.08.15.32.24.73.41,1.87.65,3.44.76,4.94.12,1.69.26,3.4.4,5.05.06.7.12,1.39.17,2.09-.08,1.63-.01,3.23.06,4.59.08,1.47.08,2.98.07,4.43,0,.86,0,1.72.01,2.58,0,.49,0,.98,0,1.48-.02,1.24-.03,2.52.17,3.79,0,.06,0,.11-.02.17,0,.06-.02.13-.02.19,0,.07-.02.14-.03.2-.03.18-.06.41-.04.66.07,1.47.16,2.94.24,4.42.05.86.69,1.31,1.29,1.31.23,0,.45-.06.66-.17.63-.33,1.25-.68,1.87-1.03l.47-.26c.18-.1.36-.21.54-.32.31-.19.61-.37.9-.49.51-.22,1.01-.44,1.52-.67,1.34-.6,2.6-1.17,3.95-1.55.68-.19,1.33-.46,1.95-.71.52-.21,1.01-.41,1.51-.57.7-.22,1.45-.34,2.24-.47l.21-.03.14-.02c.95-.15,2.03-.32,2.94-1.14.62-.05,1.16-.24,1.65-.41.3-.11.57-.21.84-.26,1.56-.32,3.17-.6,4.59-.85.06-.01.13-.01.19-.01h.18c.07,0,.15,0,.22,0,.12,0,.25,0,.37-.02.45-.05.9-.11,1.35-.18l.54-.08.81-.11.05-.82c.01-.2.03-.39.05-.59.04-.5.09-1.01.07-1.54,0-.37-.1-.7-.18-.98-.04-.16-.09-.3-.1-.42-.09-.64-.18-1.29-.28-1.93-.36-2.5-.74-5.08-.93-7.63-.06-.81-.17-1.61-.27-2.39-.08-.57-.15-1.15-.21-1.72-.03-.31-.03-.63-.03-.98,0-.34,0-.7-.03-1.06-.22-2.66-.41-4.69-.61-6.58-.05-.43-.15-.83-.25-1.21-.05-.2-.11-.4-.15-.61l-.09-.46c-.14-.66-.26-1.29-.34-1.92-.07-.61.27-1.07.94-1.68M407.05,288.72c-.18,0-.39.06-.52.17-.78.7-1.5,1.47-1.36,2.63.1.83.28,1.64.44,2.46.12.58.33,1.14.39,1.72.23,2.18.42,4.37.6,6.56.06.68,0,1.38.07,2.06.14,1.36.38,2.72.48,4.09.24,3.23.76,6.42,1.22,9.62.06.44.27.86.28,1.29.02.68-.07,1.36-.12,2.04-.62.08-1.23.18-1.85.25-.09,0-.18.01-.26.01-.13,0-.27,0-.4,0-.12,0-.24,0-.36.03-1.54.27-3.09.53-4.62.85-.81.17-1.55.61-2.4.66-.18.01-.39.11-.53.24-.74.67-1.66.79-2.58.93-.87.14-1.76.27-2.59.53-1.16.37-2.26.94-3.43,1.27-1.95.55-3.74,1.48-5.59,2.26-.54.23-1.03.58-1.54.86-.77.43-1.53.87-2.31,1.28-.07.04-.14.06-.2.06-.16,0-.27-.14-.29-.37-.09-1.47-.17-2.94-.24-4.4-.01-.24.05-.49.07-.73.02-.19.06-.4.03-.58-.27-1.71-.13-3.43-.16-5.15-.04-2.35.04-4.71-.09-7.06-.08-1.52-.13-3.03-.06-4.55-.2-2.4-.41-4.79-.58-7.19-.12-1.72-.41-3.41-.78-5.09-.09-.42-.21-.9-.49-1.2-.57-.6-1.25-1.1-1.89-1.64-.07-.06-.18-.1-.27-.11-.49-.03-.99-.09-1.48-.09-.09,0-.18,0-.27,0-.96.04-1.99.99-2.12,1.95-.14,1.08-.16,2.18.34,3.18.74,1.49.96,3.08,1.07,4.7.06.93.05,1.87.09,2.8.09,2.25.22,4.5.29,6.75.06,1.86.02,3.72.07,5.58.05,2.06.15,4.12.24,6.17.06,1.41.22,2.83.21,4.24,0,1.81-.08,3.61.21,5.41.11.66-.18,1.1-.8,1.39-.4.19-.82.34-1.2.56-1.47.86-1.89,3.19-.84,4.52.63.8,1.36,1.38,2.45,1.44.65.04.76.22.84.81.02.15.02.29.03.44.12,1.27.21,2.54.37,3.81.22,1.8.56,3.59.71,5.4.19,2.3.66,4.55.98,6.83.21,1.45.61,2.88.82,4.33.31,2.14.56,4.28,1.39,6.3.02.04.02.1.03.14.11,1.1.68,2.04,1.03,3.06.37,1.05,1.12,1.83,1.92,2.57.23.21.47.3.76.3.06,0,.12,0,.18,0,1.09-.11,2.06-.6,3.08-.92.17-.05.37-.22.42-.38.18-.5.41-1.02.42-1.54.02-.75-.49-1.35-.82-2-.75-.3-.88-1.01-1.09-1.65-.65-1.95-1.28-3.91-1.45-5.99-.11-1.36-.51-2.71-.62-4.07-.15-1.71-.41-3.4-.67-5.1-.24-1.55-.54-3.1-.64-4.66-.08-1.23-.24-2.44-.49-3.64-.04-.19-.06-.39-.08-.58-.19-2.05-.37-4.1-.56-6.15-.03-.32.03-.59.32-.76,1.39-.83,2.76-1.68,4.18-2.46,1.2-.66,2.42-1.29,3.67-1.86,1.29-.59,2.61-1.13,3.95-1.61,1.8-.64,3.64-1.17,5.44-1.81,2.36-.85,4.7-1.71,7.2-2.09.34-.05.7-.08,1.01-.21,1.07-.45,2.23-.34,3.33-.56.09-.02.17-.03.24-.03.35,0,.49.21.55.64.08.58.09,1.18.2,1.76.56,2.78,1.15,5.56,1.74,8.33.46,2.2.96,4.39,1.37,6.6.45,2.41,1.06,4.79,1.29,7.24,0,.1.05.19.07.29.14,1.11.39,2.18.22,3.34-.14.95.07,1.98.53,2.86.39.73,1.12,1.34,1.95,1.34.36,0,.74-.12,1.12-.39.39-.28.89-.4,1.33-.62.21-.11.48-.24.57-.43.27-.57.61-1.17.64-1.78.07-1.37.08-2.76-.08-4.12-.2-1.7-.57-3.38-.9-5.06-.21-1.06-.46-2.11-.7-3.16-.31-1.39-.66-2.77-.94-4.16-.42-2.07-.78-4.14-1.18-6.21-.39-2.02-.8-4.04-1.2-6.06-.05-.24-.04-.49-.05-.73,0-.37.11-.46.52-.46.01,0,.03,0,.04,0,.74,0,1.49.04,2.23.04.24,0,.48,0,.72,0,.07,0,.14,0,.21,0,1.39,0,2.66.38,3.8,1.2.71.51,1.53.64,2.36.64,0,0,.01,0,.02,0,.93,0,1.71-.65,1.81-1.4.12-.88-.64-1.5-.67-2.35,0-.24-.27-.53-.49-.7-1.43-1.14-3-2.05-4.82-2.41-.91-.18-1.85-.23-2.77-.35-.28-.04-.55-.16-.83-.23-.23-.06-.46-.12-.7-.13-.03,0-.06,0-.09,0-.41,0-.82.04-1.23.05-.07,0-.14,0-.2,0-.69,0-.82-.14-.96-.96-.16-.92-.24-1.85-.36-2.77-.18-1.41-.37-2.82-.56-4.23-.2-1.46-.47-2.91-.6-4.37-.25-2.88-.5-5.77-.59-8.66-.07-2.27-.46-4.49-.66-6.74-.08-.89-.4-1.73-.86-2.49-.2-.32-.48-.65-.8-.84-.99-.59-2.1-.78-3.24-.83-.01,0-.02,0-.04,0h0Z"/>
      </g>
      <g>
        <path class="cls-1" d="M536.77,370.92c-.73,0-1.28-.36-1.6-1.03-.24-.52-.46-1.12-.67-1.84-.59-2.02-.98-4.12-1.16-6.26l-.04-.42c-.08-.96-.17-1.94-.18-2.92,0-.57-.08-1.14-.15-1.68-.03-.23-.06-.47-.09-.7l-.03-.19c-.01-.07-.02-.14-.02-.21-.02-1.03-.1-2.07-.18-3.07-.11-1.39-.23-2.83-.16-4.24.01-.23-.01-.46-.04-.7-.01-.12-.03-.25-.03-.37-.01-.37-.02-.74-.02-1.11v-.74c0-.3,0-.61-.02-.91,0-.12-.03-.23-.05-.31.23-1.05.21-2.11.18-3.13,0-.41-.02-.82,0-1.23.04-1.66.15-3.35.25-4.98.06-.98.12-1.96.17-2.95.08-1.61.11-3.25.14-4.84.02-1.04.04-2.07.07-3.11.02-.62.06-1.23.1-1.84.05-.76.1-1.52.11-2.28.02-1.22.02-2.44.02-3.66,0-1.19,0-2.37.01-3.56.04-2.32.03-4.8-.23-7.26-.03-.32-.02-.65,0-1,.01-.29.02-.59,0-.88v-.23c-.09-1.61-.17-3.28-.31-4.93-.05-.61.06-1.19.18-1.74.15-.68.73-1.18,1.4-1.18.1,0,.21.01.31.04.67.15,1.35.35,1.85.71.37.27.65.83.88,1.35.18.41.24.92.27,1.41.05.69.08,1.38.11,2.07.05,1.21.11,2.46.27,3.69.28,2.09.26,4.23.24,6.3,0,1.02-.02,2.04,0,3.07.02.77.01,1.54,0,2.31v.58s-.02,0-.02,0l-.04.5c.02.58.05,1.15.08,1.73.07,1.26.13,2.56.06,3.82-.04.75-.04,1.52-.03,2.25,0,1.43.02,2.78-.28,4.13-.07.3-.03.6,0,.86.12.99.22,1.73.96,1.73.34,0,.69-.2,1.31-.58.75-.45,1.42-.98,2.06-1.62.18-.18.4-.34.64-.51.12-.08.24-.17.35-.26l.31-.24c.26-.19.51-.38.75-.59.17-.14.32-.29.48-.43.47-.43.91-.83,1.48-1.1.79-.38,1.44-1.05,2.01-1.65,1.29-1.34,2.73-2.36,4.25-3.44l.28-.2c.56-.4,1.07-.86,1.56-1.3.27-.24.54-.48.81-.71l.24-.2c.37-.31.71-.61,1.09-.83,1.37-.82,2.6-1.82,3.63-2.99.4-.45.75-.79,1.1-1.06.37-.29.73-.44,1.09-.44.33,0,.67.12,1.02.36l.25.17c.4.27.77.52,1.07.82.97,1.02,1.1,2.07.41,3.32-.26.46-.63.85-1.14,1.19-1.23.83-2.44,1.73-3.62,2.6l-1.05.78c-.48.36-.96.72-1.44,1.08-.54.41-1.08.81-1.62,1.21-.61.45-1.22.89-1.83,1.33-.78.56-1.56,1.13-2.34,1.7-.34.25-.66.52-.98.8-.21.18-.41.35-.62.52l-2.12,1.7c-1.33,1.06-2.65,2.11-3.96,3.18-.65.53-1.28,1.09-1.91,1.65-.37.33-.73.65-1.1.97-.15.13-.31.25-.47.37-.19.15-.39.29-.57.45-.21.18-.32.44-.31.71.01.28.15.53.38.71.24.18.45.34.7.46.72.34,1.45.68,2.17,1.01l.76.35.19.08c.1.04.2.08.3.14.86.51,1.78.88,2.66,1.25.63.26,1.29.53,1.9.83,1.68.85,3.44,1.5,5.15,2.14,1.36.51,2.78,1.03,4.12,1.65,2.7,1.23,4.79,2.13,6.79,2.92,2.73,1.07,5.57,2.36,9.2,4.18.3.15.6.31.89.48.4.22.79.44,1.2.63.35.16.72.29,1.08.41.2.07.4.14.6.21.3.11.59.24.88.39.15.08.29.16.44.25.25.15.5.29.76.4.91.38,1.57,1.12,2.15,2.39.32.7.03,1.51-.34,2.02-.47.65-1.06,1.31-1.89,1.31h-.17c-.86-.04-1.67-.08-2.38-.47l-.15-.08c-.29-.16-.56-.31-.79-.49-1.73-1.36-3.64-2.34-5.28-3.12l-1.44-.69c-2.04-.97-4.09-1.95-6.14-2.91-.52-.24-1.06-.46-1.6-.67-.25-.1-.49-.19-.74-.29-.08-.03-.16-.06-.24-.09-.12-.04-.25-.09-.32-.14-.76-.59-1.63-.88-2.46-1.15-.38-.13-.76-.25-1.13-.41-.95-.4-1.9-.78-2.86-1.16-1.12-.44-2.29-.9-3.41-1.39-.82-.36-1.65-.7-2.49-1.05-1.14-.47-2.31-.95-3.44-1.48-.47-.22-.81-.4-1.11-.59-.75-.48-1.55-.8-2.33-1.12-.63-.26-1.23-.5-1.8-.82l-.19-.11c-.29-.16-.58-.33-.88-.46-.11-.05-.22-.07-.33-.07-.41,0-.76.31-.81.73-.05.45-.07.95-.07,1.53,0,1.89.02,3.77.03,5.66,0,0,0,2.29.01,2.34.06.87.11,1.74.16,2.61.12,2.08.25,4.24.45,6.35.15,1.59.54,3.26,1.18,4.98.21.56.17,1.11-.11,1.54-.28.45-.78.73-1.4.79-.2.02-.39.06-.59.09-.14.03-.29.06-.43.07-.1.01-.19.02-.29.02Z"/>
        <path class="cls-1" d="M534.41,295.92h0c.07,0,.13,0,.2.02.59.14,1.24.32,1.67.63.31.23.6.87.72,1.15.15.34.2.8.23,1.25.05.68.08,1.37.11,2.05.05,1.22.11,2.49.27,3.74.27,2.05.26,4.17.24,6.23,0,1.01-.02,2.05,0,3.09.02.76.01,1.54,0,2.3,0,.03,0,.06,0,.09h-.09s.03,1.01.03,1.01c.02.58.05,1.16.08,1.74.07,1.3.13,2.54.06,3.77-.04.77-.04,1.54-.03,2.28,0,1.4.01,2.73-.27,4.02-.09.39-.04.75,0,1.07.12.95.27,2.13,1.45,2.13.48,0,.89-.24,1.56-.65.78-.47,1.49-1.02,2.15-1.69.15-.15.36-.3.58-.46.12-.09.25-.18.36-.27l.31-.24c.26-.2.53-.39.77-.61.17-.14.33-.29.5-.44.44-.4.86-.78,1.36-1.02.87-.42,1.55-1.13,2.18-1.78,1.23-1.27,2.65-2.29,4.16-3.36l.27-.2c.58-.41,1.1-.88,1.61-1.34.26-.24.53-.47.8-.7l.24-.2c.35-.3.68-.58,1.03-.79,1.42-.84,2.68-1.88,3.75-3.08.38-.43.71-.75,1.04-1,.28-.22.54-.33.79-.33.22,0,.47.09.74.27l.25.17c.37.25.73.49.99.76.82.86.92,1.67.33,2.73-.22.39-.54.72-.98,1.02-1.24.84-2.46,1.74-3.64,2.62l-1.05.77c-.49.36-.97.72-1.46,1.09-.53.4-1.07.8-1.61,1.2-.61.44-1.21.88-1.82,1.32-.79.57-1.57,1.13-2.35,1.71-.36.26-.69.55-1.01.82-.2.17-.4.35-.61.51-.71.57-1.43,1.14-2.14,1.71-1.32,1.05-2.64,2.1-3.95,3.17-.66.54-1.3,1.11-1.92,1.66-.37.33-.73.65-1.1.97-.14.12-.29.24-.44.35-.2.15-.41.31-.6.48-.32.28-.49.68-.47,1.1.02.43.23.82.58,1.09l.05.04c.21.16.44.33.73.47.73.35,1.46.68,2.19,1.02l.75.34c.07.03.14.06.21.09.08.03.16.07.24.11.89.53,1.83.91,2.73,1.28.65.27,1.27.52,1.86.82,1.7.86,3.48,1.52,5.21,2.16,1.36.5,2.76,1.03,4.08,1.63,2.7,1.24,4.8,2.14,6.81,2.93,2.72,1.06,5.54,2.35,9.16,4.16.29.15.58.31.87.47.39.22.8.44,1.23.64.38.18.77.31,1.13.43.2.07.39.13.58.2.29.11.57.23.83.37.14.07.27.15.41.23.24.14.51.3.82.43.79.33,1.36.97,1.89,2.14.23.51,0,1.12-.29,1.52-.56.77-1.01,1.1-1.53,1.1h-.1c-.8-.04-1.56-.07-2.16-.4l-.15-.08c-.27-.15-.52-.29-.72-.44-1.77-1.39-3.71-2.38-5.38-3.18l-1.47-.7c-2.04-.97-4.07-1.94-6.12-2.9-.54-.25-1.09-.47-1.63-.68-.24-.1-.49-.19-.73-.29-.09-.04-.18-.07-.27-.1-.07-.02-.16-.06-.17-.06-.83-.64-1.74-.94-2.61-1.23-.39-.13-.75-.25-1.09-.4-.95-.41-1.93-.79-2.87-1.16-1.12-.44-2.28-.9-3.39-1.39-.83-.36-1.66-.71-2.5-1.05-1.13-.47-2.3-.95-3.42-1.47-.44-.21-.77-.38-1.05-.56-.78-.5-1.61-.84-2.41-1.16-.62-.25-1.21-.49-1.75-.8l-.19-.11c-.29-.17-.59-.34-.93-.48-.17-.07-.35-.11-.53-.11-.67,0-1.23.5-1.3,1.17-.05.47-.08.99-.08,1.58,0,1.92.02,3.85.03,5.77v2.06c0,.06,0,.13.01.19.06.87.11,1.74.16,2.61.12,2.09.25,4.24.45,6.37.15,1.63.56,3.35,1.21,5.1.15.41.13.8-.06,1.1-.2.32-.56.51-1.03.56-.21.02-.42.06-.64.1-.13.03-.26.05-.39.07-.08,0-.15.01-.23.01-.54,0-.91-.24-1.15-.74-.23-.5-.44-1.06-.65-1.77-.58-1.98-.96-4.06-1.14-6.16l-.04-.44c-.09-.98-.17-1.91-.18-2.86,0-.6-.08-1.18-.16-1.74-.03-.23-.06-.46-.09-.69,0-.07-.02-.14-.03-.21,0-.05-.02-.09-.02-.14-.02-1.05-.1-2.09-.18-3.1-.12-1.44-.23-2.8-.16-4.18.01-.28-.01-.54-.04-.77-.01-.11-.02-.23-.03-.34-.01-.37-.02-.74-.02-1.11v-.18s0-.55,0-.55c0-.31,0-.62-.01-.92,0-.13-.03-.25-.05-.35.22-1.06.2-2.08.18-3.08,0-.4-.02-.81,0-1.21.04-1.65.14-3.33.25-4.96.06-.99.12-1.97.17-2.96.08-1.62.11-3.27.14-4.86.02-1.03.04-2.07.07-3.1.02-.61.06-1.22.1-1.83.05-.75.1-1.53.11-2.3.02-1.22.02-2.45.02-3.67,0-1.18,0-2.37.01-3.55.04-2.33.03-4.84-.23-7.32-.03-.28-.02-.6,0-.93.01-.3.02-.6,0-.93v-.2c-.09-1.63-.17-3.31-.31-4.97-.05-.54.06-1.08.17-1.6.1-.46.48-.79.91-.79M534.41,294.92c-.9,0-1.69.65-1.89,1.58-.13.62-.24,1.23-.19,1.89.15,1.71.23,3.42.31,5.13.03.64-.06,1.28,0,1.92.25,2.4.26,4.8.22,7.2-.04,2.41,0,4.82-.03,7.22-.02,1.37-.17,2.74-.21,4.11-.08,2.65-.09,5.3-.22,7.94-.13,2.65-.36,5.29-.42,7.94-.03,1.42.15,2.85-.19,4.26-.03.13.06.29.06.43.01.49,0,.97.01,1.46,0,.44,0,.87.03,1.31.01.34.08.68.07,1.02-.12,2.46.3,4.89.34,7.35,0,.15.04.29.05.44.08.78.23,1.56.24,2.34.01,1.13.12,2.25.22,3.37.19,2.16.57,4.28,1.18,6.35.19.65.41,1.3.7,1.91.41.87,1.14,1.32,2.05,1.32.11,0,.23,0,.34-.02.34-.04.67-.14,1.01-.17,1.59-.15,2.48-1.53,1.93-3-.58-1.57-.99-3.2-1.15-4.85-.28-2.98-.41-5.97-.61-8.95,0-.05,0-.1,0-.15-.01-2.6-.03-5.21-.04-7.81,0-.49.02-.98.07-1.47.02-.16.15-.28.31-.28.04,0,.09,0,.13.03.36.15.69.36,1.03.55,1.32.74,2.82,1.11,4.11,1.93.37.24.77.44,1.17.62,1.95.91,3.97,1.66,5.94,2.53,2.07.91,4.19,1.67,6.27,2.55,1.16.49,2.45.7,3.49,1.5.19.14.45.2.67.29.77.32,1.56.6,2.31.95,2.53,1.18,5.05,2.39,7.57,3.59,1.82.87,3.59,1.81,5.19,3.06.31.24.66.42,1,.61.84.47,1.79.49,2.7.53.03,0,.06,0,.09,0,1.03,0,1.75-.77,2.29-1.51.52-.71.78-1.68.39-2.53-.51-1.11-1.19-2.14-2.41-2.65-.4-.17-.77-.43-1.16-.63-.3-.15-.61-.29-.92-.41-.55-.21-1.12-.36-1.65-.61-.71-.33-1.38-.75-2.08-1.1-3.03-1.52-6.09-2.96-9.25-4.2-2.28-.89-4.53-1.88-6.76-2.9-3.03-1.39-6.27-2.27-9.25-3.78-1.48-.75-3.1-1.21-4.53-2.07-.17-.1-.36-.17-.53-.25-.98-.45-1.95-.9-2.92-1.36-.22-.1-.42-.26-.61-.41-.22-.16-.25-.45-.04-.64.33-.29.7-.53,1.03-.82,1-.87,1.97-1.77,3-2.61,2.01-1.64,4.05-3.25,6.08-4.88.54-.43,1.04-.9,1.59-1.31,1.38-1.02,2.78-2.01,4.17-3.02,1.03-.75,2.04-1.53,3.06-2.29,1.54-1.13,3.06-2.3,4.65-3.37.55-.38.99-.82,1.3-1.37.87-1.56.54-2.84-.49-3.91-.4-.42-.91-.73-1.4-1.06-.44-.3-.87-.45-1.3-.45-.47,0-.94.18-1.4.54-.42.33-.81.72-1.17,1.12-1.02,1.15-2.19,2.1-3.51,2.89-.5.3-.94.7-1.4,1.08-.79.66-1.51,1.4-2.35,1.99-1.6,1.14-3.2,2.25-4.57,3.67-.57.59-1.18,1.23-1.89,1.57-.83.4-1.4,1.03-2.07,1.6-.34.29-.7.54-1.05.81-.35.27-.74.5-1.05.81-.59.6-1.23,1.11-1.96,1.54-.53.32-.85.5-1.05.5-.28,0-.34-.37-.45-1.26-.03-.24-.07-.5-.02-.73.47-2.14.21-4.31.33-6.46.1-1.86-.08-3.73-.14-5.59.02,0,.03,0,.05,0,0-1.13.02-2.26,0-3.39-.08-3.14.16-6.28-.25-9.42-.25-1.89-.24-3.82-.38-5.73-.04-.53-.1-1.1-.31-1.58-.25-.57-.57-1.21-1.05-1.56-.57-.42-1.33-.63-2.04-.79-.14-.03-.29-.05-.43-.05h0Z"/>
      </g>
      <g>
        <path class="cls-1" d="M485.61,359.44c-.54,0-1.11-.15-1.67-.29-.79-.2-1.36-.65-1.72-1.32-.16-.31-.33-.61-.5-.91-.29-.52-.56-1.01-.79-1.53-.71-1.58-1.37-3.2-2.05-4.86-.08-.21-.13-.43-.18-.65-.04-.2-.09-.39-.15-.58-.38-1.2-.77-2.39-1.17-3.59l-.15-.47c-.12-.36-.45-.6-.82-.6-.22,0-.43.09-.59.24-.37.36-.74.73-1.11,1.1-.36.36-.72.72-1.09,1.07l-.17.17c-.33.32-.64.62-.98.88-.87.66-1.76,1.31-2.64,1.95l-2.49,1.82c-1.41,1.03-2.82,2.07-4.22,3.11-.45.33-.87.65-1.38.83-.4.15-.76.35-1.11.55-.13.07-.26.15-.39.22-.08.04-.15.1-.19.14l-.85.34c-.84.33-1.69.67-2.54.96-.41.14-.83.24-1.25.35-.33.08-.67.16-1,.26-1.43.43-2.62.63-3.73.63-.38,0-.77-.02-1.14-.07-1.46-.19-2.71-.6-3.7-1.2-1.38-.84-2.12-2.14-2.14-3.75v-.58c-.03-1.88.61-3.63,2.05-5.71,1.46-2.11,3.08-3.92,4.81-5.38.58-.49,1.18-.98,1.78-1.46.7-.57,1.4-1.14,2.09-1.72.44-.37.88-.74,1.31-1.11.35-.29.7-.59,1.05-.88,1.36-1.15,2.96-2.22,5.04-3.37.24-.13.47-.32.69-.56.2-.21.28-.49.23-.74-.05-.24-.21-.43-.45-.54-.44-.19-.9-.37-1.42-.55-.66-.22-1.31-.44-1.97-.67-1.68-.58-3.42-1.17-5.15-1.67-1.72-.49-3.62-.92-5.8-1.29-1.43-.24-2.73-.6-3.96-1.09-.39-.15-.92-.4-1.01-.77-.05-.19-.11-.37-.18-.56-.2-.57-.31-.95-.12-1.37.09-.2.14-.41.19-.59.08-.33.13-.5.31-.61.54-.33,1.02-.48,1.51-.48.09,0,.18,0,.27.02l.32.04c.86.09,1.67.18,2.47.46.9.31,1.84.47,2.66.6,1.54.24,3.06.74,4.53,1.22l.5.16c.49.16.99.29,1.48.42.75.2,1.45.38,2.14.66.92.38,1.88.69,2.8.99.6.2,1.2.4,1.8.61.37.13.74.27,1.1.42,1.19.46,2.42.93,3.73,1.13,1.26.19,2.12,1,3.11,2.03,0,0,0,0,0,0,0,.25.03.49.05.74.07.7.13,1.3-.27,1.83l-.2.27c-.33.46-.62.86-1.13,1.01-.31.09-.56.27-.79.44-.11.08-.21.16-.32.22-.42.24-.84.46-1.27.67l-.27.14c-.06.03-.13.06-.2.08-.17.07-.38.15-.56.31-.96.86-2.06,1.49-3.22,2.15-.63.36-1.28.73-1.9,1.14-.38.25-.74.52-1.09.8-.19.15-.39.3-.58.44-3.47,2.54-6.29,5.14-8.64,7.93-.85,1.01-1.38,2.22-1.82,3.37-.14.36-.1.75.11,1.06.21.31.59.5.99.5.1,0,.19,0,.29-.03.53-.11,1.05-.24,1.57-.38.39-.1.77-.2,1.16-.29,3.37-.77,6.19-2.63,8.5-4.34.05-.04.1-.08.15-.13,1.09-.75,2.09-1.51,3.06-2.25.46-.35.92-.7,1.38-1.04.61-.45,1.19-.94,1.78-1.42.5-.42,1-.83,1.52-1.23.68-.52,1.24-1.16,1.79-1.79l.43-.48c.31-.34.6-.71.88-1.07.23-.29.46-.59.71-.87l.18-.21c.4-.46.81-.93,1.11-1.54.31-.63.92-.96,1.81-1.29.04-.02.1-.02.17-.02.07,0,.15.01.22.03.74.24,1.46.51,2.18.79.06.02.1.05.11.07.2.33.45.66.69.98.37.49.73.95.96,1.5.51,1.23.89,2.54,1.25,3.81.22.78.45,1.55.7,2.32.09.27.13.58.18.9.05.32.09.64.18.95l.1.35c.52,1.82,1.07,3.7,1.87,5.48.17,1.23.82,2.18,1.45,3.1l.29.42c.23.35.38.7.43.99.07.49-.07.83-.5,1.18-.44.37-.92.54-1.5.54Z"/>
        <path class="cls-1" d="M444.71,323.03h0c.07,0,.14,0,.21.01l.32.04c.83.09,1.62.18,2.36.44.93.33,1.91.49,2.75.62,1.5.23,2.93.7,4.45,1.2l.5.16c.51.16,1.02.3,1.51.43.73.19,1.42.38,2.08.64.94.38,1.9.7,2.83,1.01.6.2,1.19.39,1.78.61.36.13.73.27,1.09.41,1.21.47,2.47.95,3.83,1.16,1.05.16,1.8.82,2.7,1.76.01.2.03.39.05.58.07.71.1,1.12-.17,1.48-.07.09-.14.18-.2.28-.34.47-.54.73-.87.82-.4.11-.7.34-.95.52-.09.07-.18.13-.27.19-.41.23-.83.45-1.26.67l-.27.14s-.1.04-.15.06c-.2.08-.47.18-.71.41-.92.83-1.99,1.44-3.13,2.09-.64.36-1.29.74-1.93,1.16-.4.26-.77.55-1.12.82-.19.15-.38.29-.57.43-3.5,2.57-6.35,5.19-8.72,8.01-.89,1.06-1.44,2.32-1.9,3.51-.2.52-.14,1.08.16,1.52.31.45.83.72,1.4.72.13,0,.26-.01.39-.04.54-.11,1.08-.25,1.59-.38.38-.1.76-.2,1.14-.28,3.46-.79,6.33-2.68,8.69-4.43.07-.05.13-.11.19-.17,1.04-.71,2.05-1.48,3.03-2.22.46-.35.91-.7,1.37-1.04.62-.46,1.22-.96,1.79-1.44.49-.41,1-.83,1.51-1.22.72-.55,1.3-1.22,1.86-1.86.14-.16.28-.32.42-.48.32-.36.62-.73.9-1.09.23-.29.46-.57.69-.85l.18-.21c.42-.48.86-.98,1.18-1.64.24-.48.76-.75,1.53-1.03.03,0,.06,0,.06,0,.69.22,1.4.49,2.09.76.21.32.43.62.65.9.35.46.69.9.89,1.39.5,1.21.86,2.45,1.23,3.76.22.77.45,1.56.7,2.34.08.23.12.52.16.82.05.33.1.66.2,1.01l.1.35c.52,1.81,1.06,3.69,1.86,5.48.2,1.31.9,2.33,1.52,3.24.1.14.19.28.29.42.19.28.32.57.35.79.04.27,0,.45-.33.72-.35.29-.72.42-1.18.42s-1.02-.14-1.55-.27c-.64-.16-1.11-.52-1.39-1.07-.16-.31-.33-.62-.5-.93-.28-.51-.55-.99-.77-1.49-.71-1.59-1.37-3.2-2.04-4.85-.06-.16-.11-.36-.16-.57-.05-.21-.1-.42-.16-.63-.38-1.19-.77-2.38-1.16-3.56l-.16-.5c-.19-.57-.71-.95-1.3-.95-.35,0-.69.14-.94.38-.37.36-.74.73-1.11,1.09-.36.36-.73.72-1.09,1.08l-.17.16c-.32.31-.62.6-.93.84-.87.66-1.76,1.31-2.64,1.95l-1.14.83-1.38,1.01c-1.4,1.03-2.8,2.05-4.19,3.09-.44.33-.81.61-1.25.77-.44.16-.82.38-1.19.59-.13.07-.25.15-.38.21-.1.05-.17.11-.24.16l-.76.3c-.82.32-1.68.66-2.52.95-.38.13-.78.23-1.21.33-.34.08-.68.17-1.02.27-1.39.41-2.53.61-3.59.61-.36,0-.72-.02-1.07-.07-1.39-.18-2.57-.57-3.5-1.14-1.23-.75-1.88-1.9-1.9-3.33,0-.13,0-.26,0-.39v-.2c-.02-1.76.58-3.43,1.96-5.41,1.44-2.07,3.03-3.85,4.73-5.28.58-.49,1.18-.97,1.77-1.45.69-.56,1.41-1.14,2.1-1.73.44-.37.88-.74,1.32-1.11.35-.29.7-.58,1.05-.88,1.33-1.13,2.91-2.19,4.96-3.32.29-.16.56-.38.82-.66.31-.33.44-.77.35-1.18-.08-.4-.35-.72-.74-.89-.45-.2-.93-.39-1.46-.56-.65-.22-1.3-.44-1.95-.66-1.69-.58-3.43-1.18-5.19-1.68-1.74-.5-3.65-.93-5.85-1.3-1.4-.24-2.66-.59-3.86-1.06-.65-.26-.71-.43-.71-.43-.05-.2-.12-.4-.19-.6-.18-.52-.25-.75-.14-.99.12-.25.17-.49.22-.68.03-.11.07-.27.08-.3.46-.28.85-.41,1.25-.41M444.71,322.03c-.64,0-1.22.22-1.77.56-.54.33-.46.94-.69,1.41-.39.83.08,1.55.26,2.27.14.56.74.88,1.31,1.11,1.31.52,2.66.88,4.06,1.12,1.93.33,3.86.73,5.74,1.28,2.39.69,4.74,1.54,7.1,2.33.46.16.93.33,1.37.53.23.1.2.33.06.49-.16.18-.36.34-.57.46-1.81,1-3.55,2.09-5.12,3.43-.79.67-1.58,1.32-2.37,1.99-1.27,1.09-2.59,2.1-3.86,3.18-1.88,1.59-3.5,3.45-4.9,5.48-1.25,1.8-2.17,3.73-2.14,6,0,.2,0,.39,0,.59.02,1.83.9,3.26,2.38,4.17,1.15.71,2.52,1.09,3.89,1.27.4.05.8.08,1.2.08,1.32,0,2.6-.27,3.87-.65.75-.22,1.53-.36,2.27-.61,1.15-.4,2.28-.86,3.42-1.3.09-.03.15-.12.24-.17.48-.26.93-.56,1.44-.74.57-.21,1.03-.55,1.5-.9,1.85-1.38,3.71-2.73,5.56-4.1,1.27-.93,2.54-1.85,3.79-2.8.43-.32.81-.71,1.2-1.09.74-.72,1.46-1.45,2.2-2.17.07-.07.16-.1.24-.1.15,0,.29.1.35.26.44,1.35.89,2.7,1.32,4.05.13.42.18.87.34,1.27.66,1.63,1.33,3.27,2.05,4.88.38.85.87,1.64,1.3,2.47.44.85,1.17,1.36,2.04,1.58.6.15,1.2.3,1.79.3s1.22-.16,1.82-.65c.58-.48.78-1,.68-1.64-.06-.42-.27-.84-.51-1.2-.71-1.05-1.52-2.05-1.67-3.37-.85-1.88-1.41-3.86-1.98-5.83-.18-.61-.17-1.27-.37-1.86-.68-2.05-1.13-4.16-1.96-6.16-.41-.99-1.16-1.69-1.69-2.56-.07-.12-.22-.21-.35-.26-.73-.28-1.46-.56-2.21-.8-.11-.04-.24-.06-.37-.06-.12,0-.24.02-.34.06-.84.31-1.67.69-2.08,1.53-.31.63-.78,1.12-1.22,1.64-.54.63-1.03,1.31-1.59,1.93-.68.77-1.33,1.6-2.14,2.21-1.12.85-2.16,1.8-3.3,2.65-1.45,1.08-2.87,2.21-4.36,3.23-.08.05-.15.13-.22.19-2.54,1.88-5.18,3.54-8.32,4.26-.91.21-1.8.47-2.72.66-.06.01-.13.02-.19.02-.49,0-.81-.42-.63-.88.44-1.15.94-2.28,1.74-3.23,2.51-2.99,5.41-5.55,8.55-7.85.55-.41,1.08-.85,1.66-1.23,1.71-1.13,3.63-1.95,5.17-3.34.17-.16.44-.21.66-.33.52-.27,1.04-.53,1.55-.82.34-.19.64-.51,1-.61.8-.23,1.15-.87,1.59-1.46.7-.93.31-1.98.31-2.98,0-.08-.08-.18-.15-.25-.96-.99-1.92-1.95-3.39-2.18-1.65-.26-3.18-.96-4.74-1.53-1.52-.55-3.08-.99-4.58-1.6-1.19-.48-2.44-.71-3.65-1.1-1.68-.55-3.35-1.13-5.1-1.4-.87-.13-1.75-.29-2.57-.58-.95-.33-1.92-.41-2.89-.52-.11-.01-.22-.02-.32-.02h0Z"/>
      </g>
      <g>
        <path class="cls-1" d="M83.86,362.48c-1,0-1.92-.07-2.81-.2-.42-.06-.83-.13-1.25-.2-.93-.15-1.89-.31-2.84-.41-1.87-.21-3.68-.88-5.54-2.05-1.05-.66-2.04-1.37-2.94-2.11-1.21-.99-2.21-2.31-3.25-4.27-1.35-2.54-1.81-5.34-1.43-8.56.14-1.17.37-2.15.7-2.98.1-.24.13-.49.16-.71.01-.08.02-.17.04-.25.81-4.26,2.65-8.04,4.35-11.18.25-.47.51-.93.77-1.4.46-.82.91-1.63,1.33-2.47.5-1,1.12-2.03,2-3.35.5-.75,1.03-1.47,1.57-2.19.42-.57.84-1.14,1.24-1.72.57-.82,1.13-1.65,1.69-2.48.62-.92,1.23-1.83,1.87-2.73.23-.33.46-.67.69-1.01.65-.97,1.33-1.97,2.14-2.83.14-.15.23-.31.3-.46.04-.07.07-.15.12-.21l.25-.33c.44-.59.88-1.19,1.34-1.76.3-.37.62-.73.94-1.09.23-.26.46-.52.69-.78.86-1.01,1.71-2.02,2.55-3.04.17-.2.32-.41.47-.63.19-.26.38-.52.59-.75,1.21-1.33,2.24-2.45,3.3-3.53.64-.65,1.3-1.28,1.97-1.9.32-.3.65-.61.97-.92l1.06-1.02c.7-.67,1.4-1.35,2.1-2.01.57-.53,1.12-1.04,1.72-1.47.33-.24.66-.48.98-.73,1.13-.85,2.2-1.66,3.47-2.18.24-.1.46-.23.68-.37.13-.08.25-.16.39-.22.96-.49,2.07-.71,3.61-.71.36,0,.77.17,1.06.3.5.23.96.54,1.31.78.2.14.35.3.4.42l.1.24c.27.67.52,1.29.52,1.97,0,.44.04.82.12,1.15.08.31.02.62-.1,1.04-.03.09-.06.19-.1.28-.09.25-.2.53-.2.85,0,.81-.48,1.42-.99,2.07l-.08.1c-.36.47-1.09.77-1.85.77-.57,0-1.08-.17-1.38-.46-.3-.29-.42-.57-.39-.91.05-.53.1-1.05.16-1.58l.1-.91c.04-.37-.06-.71-.27-.94-.18-.2-.43-.31-.7-.31-.13,0-.26.02-.39.07l-.12.04c-.73.26-1.49.53-2.12,1.01-.42.32-.85.62-1.28.93-1.04.74-2.11,1.51-3.07,2.43-.5.48-1.03.94-1.56,1.39-.58.49-1.17,1.01-1.72,1.55-1.45,1.42-2.98,2.97-4.41,4.59-1.81,2.06-3.63,4.25-5.57,6.7-1.21,1.52-2.38,3.11-3.51,4.65l-1.37,1.85c-.95,1.28-1.93,2.6-2.85,3.94-.72,1.04-1.4,2.13-2.06,3.18l-.65,1.04-.55.86c-.53.82-1.08,1.67-1.56,2.54-1.28,2.31-2.5,4.58-3.62,6.77-.27.52-.46,1.08-.65,1.61-.12.34-.24.69-.38,1.02-.53,1.26-.88,2.59-1.23,3.86l-.18.69c-.58,2.11-.78,4.32-.62,6.73.09,1.39.53,2.77,1.3,4.12,1.29,2.26,3.03,3.87,5.31,4.91,2.1.97,4.36,1.53,7.12,1.76.84.07,1.68.15,2.32.21l.64.06c3.2-.13,5.62-.31,8.02-.8,1.32-.27,2.5-.47,3.59-.61,1.65-.22,3.26-.68,4.81-1.12.61-.17,1.22-.35,1.83-.51,1.87-.49,3.73-1.01,5.53-1.54.77-.23,1.54-.5,2.3-.76.36-.12.71-.25,1.07-.37.08-.03.16-.06.23-.09.1-.04.23-.1.29-.1h0c.89,0,1.58-.31,2.25-.62.23-.1.46-.21.7-.3.17-.07.35-.14.52-.22.23-.1.45-.2.68-.27.35-.11.73-.21,1.07-.21s.66.11.94.36c.17.15.36.21.51.26.05.02.1.03.15.05.04.02.08.04.11.05-.01.05-.03.11-.04.16-.37,1.29-1.18,2.14-2.65,2.83l-.52.24c-1.51.71-3.08,1.45-4.7,1.94-.51.15-1.01.32-1.52.48-1.15.37-2.33.75-3.52,1.03-1,.23-2,.53-2.96.82-.76.23-1.52.46-2.29.66-1.95.5-3.58.82-5.12,1-.61.07-1.27.2-1.95.38-1.75.48-3.57.61-5.28.71-.55.03-1.1.09-1.65.15l-.72.08c-.95.1-1.81.14-2.64.14Z"/>
        <path class="cls-1" d="M109.87,285.74c.29,0,.71.19.85.26.36.17.74.39,1.23.74.15.1.21.19.22.2l.1.25c.25.62.49,1.2.49,1.78,0,.48.04.9.14,1.27.05.2,0,.43-.1.77-.02.08-.06.16-.09.24-.1.28-.23.62-.23,1.03,0,.6-.33,1.06-.88,1.76l-.08.1c-.27.34-.85.58-1.46.58-.43,0-.83-.12-1.03-.32-.24-.24-.25-.38-.24-.51.05-.52.1-1.04.16-1.56l.1-.92c.05-.52-.09-.99-.4-1.33-.27-.3-.65-.47-1.07-.47-.18,0-.37.03-.56.1l-.11.04c-.73.26-1.56.56-2.26,1.08-.42.32-.84.62-1.27.93-1.05.75-2.14,1.53-3.12,2.48-.49.47-.99.91-1.53,1.37-.58.5-1.18,1.02-1.75,1.57-1.45,1.43-3,2.98-4.43,4.62-1.81,2.07-3.64,4.27-5.59,6.72-1.22,1.53-2.39,3.13-3.53,4.67-.33.45-.67.91-1,1.36l-.34.46c-.96,1.29-1.94,2.62-2.87,3.97-.72,1.05-1.41,2.14-2.07,3.2-.22.34-.43.69-.65,1.03-.18.28-.36.57-.54.85-.53.83-1.09,1.69-1.58,2.58-1.29,2.31-2.51,4.6-3.63,6.78-.28.55-.48,1.12-.68,1.67-.12.35-.24.68-.37.99-.54,1.29-.9,2.63-1.25,3.92l-.19.69c-.59,2.17-.8,4.43-.63,6.9.1,1.46.56,2.92,1.37,4.34,1.35,2.35,3.16,4.03,5.53,5.12,2.16.99,4.47,1.57,7.28,1.81.85.07,1.7.15,2.34.21l.62.06h.07s.07,0,.07,0c3.16-.13,5.6-.32,8.03-.81,1.31-.27,2.48-.46,3.55-.61,1.69-.22,3.31-.69,4.87-1.14.61-.17,1.21-.35,1.82-.51,1.88-.49,3.74-1.01,5.55-1.55.79-.23,1.57-.51,2.33-.77.35-.12.71-.25,1.06-.37.09-.03.18-.07.26-.1.05-.02.1-.04.15-.06h0s0,0,0,0c.94,0,1.72-.35,2.4-.66.22-.1.44-.2.67-.29.18-.07.36-.15.54-.23.22-.1.43-.19.63-.25.3-.09.64-.19.93-.19.24,0,.42.07.6.23.16.15.34.23.49.29-.34.97-1.04,1.65-2.3,2.23l-.51.24c-1.57.74-3.05,1.43-4.63,1.92-.51.16-1.02.32-1.53.48-1.14.37-2.31.74-3.48,1.02-1.02.24-2.02.54-2.99.83-.75.22-1.52.45-2.27.65-1.93.5-3.54.81-5.05.99-.64.07-1.32.21-2.02.4-1.71.46-3.49.6-5.18.69-.57.03-1.13.09-1.67.16-.24.03-.47.05-.71.08-.93.09-1.78.14-2.59.14-.97,0-1.87-.06-2.74-.2-.42-.06-.84-.13-1.25-.2-.93-.15-1.89-.31-2.86-.41-1.79-.2-3.53-.84-5.32-1.97-1.03-.65-2-1.35-2.88-2.07-1.15-.95-2.12-2.22-3.13-4.12-1.3-2.44-1.75-5.15-1.37-8.27.14-1.13.36-2.07.67-2.86.12-.3.16-.59.19-.82.01-.08.02-.15.04-.22.8-4.19,2.62-7.93,4.3-11.04.25-.47.51-.93.77-1.39.45-.81.92-1.64,1.34-2.49.49-.98,1.1-2,1.97-3.29.49-.73,1.03-1.47,1.55-2.17.42-.58.85-1.15,1.25-1.74.57-.82,1.13-1.66,1.69-2.49.62-.91,1.23-1.83,1.86-2.73.24-.34.47-.68.7-1.02.67-1,1.3-1.94,2.08-2.76.19-.2.3-.41.38-.57.03-.05.05-.1.08-.14l.24-.33c.43-.58.88-1.18,1.33-1.75.29-.36.6-.71.93-1.07.23-.26.47-.53.69-.79.86-1.01,1.71-2.03,2.56-3.05.17-.21.33-.43.49-.65.19-.26.36-.5.55-.71,1.21-1.33,2.23-2.44,3.29-3.52.63-.64,1.3-1.28,1.95-1.89.32-.31.65-.61.97-.92.35-.34.7-.68,1.05-1.01.7-.68,1.4-1.35,2.11-2.02.55-.52,1.1-1.02,1.67-1.43.33-.24.66-.49.99-.74,1.1-.83,2.15-1.62,3.35-2.12.29-.12.53-.27.75-.4.12-.07.23-.14.35-.21.88-.45,1.93-.65,3.39-.65M109.87,284.74h0c-1.32,0-2.64.15-3.84.76-.35.18-.67.43-1.03.57-1.71.7-3.08,1.91-4.55,2.97-.63.45-1.2.98-1.77,1.51-1.07,1-2.11,2.03-3.17,3.04-.98.94-1.99,1.86-2.95,2.83-1.13,1.16-2.23,2.35-3.31,3.55-.39.43-.71.94-1.08,1.4-.84,1.02-1.69,2.03-2.55,3.04-.54.63-1.11,1.24-1.63,1.88-.56.68-1.07,1.4-1.6,2.11-.14.2-.22.45-.39.62-1.12,1.18-1.95,2.58-2.87,3.9-1.21,1.72-2.36,3.49-3.56,5.22-.92,1.32-1.92,2.59-2.81,3.93-.74,1.1-1.44,2.22-2.03,3.4-.66,1.31-1.41,2.57-2.1,3.85-1.94,3.6-3.63,7.28-4.4,11.32-.05.29-.07.59-.18.86-.4,1-.61,2.07-.73,3.11-.37,3.08,0,6.07,1.48,8.86.88,1.66,1.91,3.22,3.38,4.42.95.78,1.95,1.49,2.99,2.14,1.76,1.11,3.65,1.89,5.75,2.12,1.36.15,2.71.4,4.07.61.96.15,1.92.21,2.89.21.9,0,1.79-.05,2.69-.14.78-.08,1.56-.18,2.34-.23,1.81-.1,3.62-.24,5.38-.72.61-.17,1.24-.3,1.87-.37,1.76-.2,3.48-.57,5.19-1.01,1.76-.45,3.48-1.06,5.24-1.47,1.73-.4,3.38-1,5.07-1.52,1.83-.56,3.55-1.4,5.28-2.21,1.39-.65,2.46-1.54,2.9-3.08.17-.6.21-.63-.32-.88-.18-.08-.4-.11-.54-.23-.4-.36-.83-.48-1.27-.48-.4,0-.81.11-1.22.24-.42.13-.82.34-1.23.5-.89.34-1.71.88-2.72.88-.02,0-.03,0-.05,0,0,0,0,0-.01,0-.23,0-.46.14-.69.21-1.12.38-2.22.79-3.35,1.13-1.83.54-3.67,1.06-5.52,1.54-2.18.57-4.32,1.32-6.57,1.62-1.21.16-2.42.38-3.62.62-2.42.49-4.86.66-7.87.79-.63-.06-1.8-.17-2.97-.27-2.41-.21-4.71-.69-6.95-1.72-2.26-1.04-3.89-2.63-5.08-4.71-.68-1.19-1.14-2.51-1.24-3.9-.15-2.22.01-4.41.6-6.57.41-1.51.78-3.04,1.39-4.49.36-.86.6-1.78,1.02-2.6,1.16-2.27,2.37-4.52,3.61-6.75.64-1.16,1.39-2.26,2.1-3.37.89-1.41,1.76-2.83,2.7-4.2,1.03-1.5,2.11-2.95,3.19-4.41,1.49-2.01,2.95-4.05,4.51-6,1.8-2.27,3.65-4.5,5.56-6.68,1.39-1.59,2.88-3.09,4.38-4.57,1.04-1.03,2.22-1.92,3.28-2.94,1.31-1.27,2.86-2.23,4.3-3.32.61-.46,1.38-.72,2.11-.98.08-.03.15-.04.22-.04.32,0,.51.29.47.7-.08.83-.18,1.66-.26,2.49-.05.53.16.95.54,1.31.42.41,1.06.6,1.73.6.86,0,1.75-.33,2.25-.96.57-.73,1.17-1.45,1.17-2.48,0-.33.18-.66.28-.99.13-.43.22-.84.11-1.3-.08-.33-.11-.68-.11-1.02,0-.86-.35-1.63-.66-2.4-.1-.25-.34-.48-.57-.64-.44-.31-.9-.61-1.39-.83-.4-.18-.84-.35-1.27-.35h0Z"/>
      </g>
      <g>
        <path class="cls-1" d="M225.2,414.68c-.26,0-.52,0-.78,0-.34,0-.64-.02-.87-.09-1.5-.51-3.07-1.11-4.31-2.3-.59-.57-1.11-1.24-1.63-2.1-.16-.26-.26-.53-.28-.75-.1-.92-.15-1.86-.19-2.75.07,0,.12,0,.17,0,.69,0,.95-.51,1.06-.86.13.05.27.1.41.15.13.05.53.2.53.2.07.02.18.06.21.09.34.33.68.67,1.02,1.01.27.28.55.55.83.83l.13.13c.24.24.52.52.87.71,1.34.74,2.71,1.11,4.05,1.11.91,0,1.83-.17,2.74-.51.36-.13.73-.25,1.1-.36.71-.21,1.44-.44,2.14-.81,1.64-.89,3.09-1.74,4.3-3.06,2.4-2.05,3.73-4.72,4.9-7.07.32-.65.51-1.37.63-1.93.42-1.89.82-3.92.94-6.03.06-1.13.15-2.26.24-3.39l.03-.4c.1-1.32,0-2.62-.1-3.87l-.05-.6c-.01-.17-.03-.34-.05-.51-.02-.22-.04-.43-.06-.65-.12-2.38-.33-4.5-.65-6.49-.18-1.16-.34-2.33-.49-3.49-.15-1.16-.3-2.32-.48-3.48-.11-.69-.29-1.37-.46-2.03-.12-.47-.25-.95-.35-1.43-.6-2.94-1.43-5.87-2.22-8.7l-.45-1.59c-.02-.07-.03-.14-.05-.21-.03-.13-.05-.27-.1-.39-.35-1-.67-2.01-1-3.03-.67-2.08-1.37-4.24-2.23-6.3-.39-.93-.85-1.84-1.3-2.72-.19-.38-.39-.76-.58-1.14-.48-.98-1.07-2.11-1.89-3.1-.77-.93-.8-2.02-.09-3.65.19-.43.48-.64.9-.64.21,0,.44.05.68.15.06.03.13.06.19.08.24.11.5.23.81.23.81,0,1.36.47,1.96,1.03.15.14.26.29.34.44l.8,1.52c.74,1.42,1.51,2.88,2.2,4.34,1.06,2.27,1.76,4.06,2.27,5.81.08.29.17.58.28.87.73,2.01,1.56,4.39,2.15,6.81.13.54.3,1.07.46,1.61.18.58.36,1.17.5,1.76.31,1.34.62,2.69.93,4.03.5,2.14,1,4.28,1.47,6.42.31,1.42.5,2.85.69,4.31l.18,1.37c.24,1.84.49,3.74.57,5.6.03.68.09,1.36.15,2.04.06.73.13,1.46.15,2.19.01.44.04.88.07,1.33.03.57.07,1.14.08,1.71,0,.2,0,.39.02.59.03.82.05,1.59-.18,2.33-.08.26-.07.52-.06.73.04.92-.11,1.79-.26,2.71-.09.54-.18,1.09-.23,1.64-.22,2.37-1.11,4.6-1.98,6.77l-.04.11c-.21.52-.5,1-.81,1.52l-.53.88c-.61,1.02-1.24,2.07-1.92,3.06-.55.81-1.18,1.73-1.94,2.41-1.67,1.49-3.12,2.68-4.83,3.59-1.98,1.06-4.07,1.52-6.28,2.01l-.43.1c-.6.13-1.23.13-1.9.14-.15,0-.3,0-.45,0h0s-1.59,0-1.59,0Z"/>
        <path class="cls-1" d="M231.72,332.95c.14,0,.31.04.5.11.06.02.11.05.17.07.25.12.6.27,1.04.27h0c.55,0,.97.3,1.59.89.11.1.19.21.24.3.26.51.53,1.02.8,1.53.74,1.41,1.51,2.86,2.19,4.32,1.05,2.25,1.74,4.02,2.24,5.74.09.3.18.61.29.9.73,1.99,1.55,4.36,2.13,6.76.14.56.31,1.11.47,1.64.18.59.36,1.16.49,1.73.31,1.35.62,2.69.94,4.04.49,2.1,1,4.27,1.46,6.41.31,1.4.5,2.88.68,4.26.06.46.12.92.18,1.38.24,1.83.49,3.71.57,5.56.03.7.09,1.39.15,2.07.07.75.13,1.45.15,2.17.01.45.04.89.07,1.34.03.58.07,1.13.07,1.68,0,.2,0,.4.02.6.03.77.05,1.5-.16,2.16-.11.34-.09.66-.08.93.03.84-.11,1.68-.25,2.57-.09.54-.18,1.1-.24,1.67-.22,2.29-1.06,4.4-1.94,6.63l-.05.11c-.19.48-.47.94-.77,1.44l-.14.22-.4.66c-.61,1.01-1.24,2.06-1.9,3.04-.54.79-1.14,1.68-1.86,2.32-1.64,1.47-3.07,2.63-4.73,3.52-1.92,1.03-3.98,1.48-6.15,1.96l-.44.1c-.54.12-1.14.12-1.77.13h0s-.95,0-.95,0h-.57s-.56,0-.56,0c-.25,0-.51,0-.76,0h-.05c-.25,0-.51-.02-.67-.07-1.45-.49-2.96-1.07-4.12-2.19-.56-.54-1.05-1.17-1.55-2-.12-.19-.2-.4-.21-.55-.08-.73-.13-1.49-.16-2.22.34-.07.69-.26.96-.7.12.04.23.08.35.13.06.02.11.04.17.06.03,0,.06.02.08.03.32.31.63.63.95.94.28.28.55.56.83.84l.13.13c.27.27.57.57.98.79,1.42.78,2.86,1.17,4.29,1.17.97,0,1.95-.18,2.91-.54.34-.13.69-.23,1.07-.35.73-.22,1.49-.45,2.23-.85,1.62-.88,3.17-1.79,4.44-3.18,2.42-2.05,3.77-4.77,4.96-7.17.35-.7.54-1.46.67-2.04.42-1.91.83-3.97.95-6.11.06-1.11.15-2.25.23-3.35l.03-.43c.1-1.35,0-2.67-.1-3.95l-.05-.6c-.01-.17-.03-.35-.05-.52-.02-.21-.04-.42-.05-.62-.12-2.39-.33-4.53-.65-6.54-.18-1.15-.34-2.33-.48-3.48-.15-1.15-.3-2.33-.49-3.5-.11-.72-.29-1.41-.47-2.08-.13-.48-.24-.94-.34-1.4-.61-2.96-1.43-5.9-2.23-8.74l-.44-1.58c-.02-.06-.03-.11-.04-.17-.03-.16-.06-.31-.12-.46-.34-1-.67-2.01-1-3.01-.68-2.09-1.38-4.26-2.25-6.34-.4-.95-.87-1.88-1.32-2.77-.19-.38-.38-.75-.57-1.13-.5-1.01-1.1-2.16-1.95-3.2-.64-.78-.65-1.69-.02-3.14.13-.31.28-.34.44-.34M231.72,331.95c-.59,0-1.08.3-1.35.94-.6,1.38-.92,2.85.17,4.17.76.92,1.31,1.95,1.83,3.01.63,1.28,1.32,2.53,1.87,3.84,1.26,3.03,2.15,6.2,3.22,9.3.06.18.08.38.14.57.95,3.4,1.95,6.79,2.66,10.25.24,1.15.62,2.28.8,3.44.37,2.32.6,4.66.97,6.98.34,2.13.53,4.28.64,6.43.02.39.08.78.1,1.17.11,1.46.26,2.92.15,4.4-.1,1.27-.2,2.54-.27,3.8-.11,2.02-.49,3.99-.93,5.95-.14.62-.31,1.25-.59,1.82-1.24,2.5-2.52,4.99-4.72,6.85-.04.03-.07.07-.1.11-1.18,1.28-2.67,2.13-4.17,2.96-1,.55-2.12.75-3.17,1.14-.87.32-1.73.48-2.57.48-1.3,0-2.57-.37-3.81-1.05-.33-.18-.61-.49-.89-.76-.62-.61-1.22-1.24-1.84-1.84-.13-.13-.34-.17-.52-.25-.32-.12-.64-.23-.95-.36-.07-.03-.13-.04-.18-.04-.14,0-.22.09-.26.24-.09.38-.22.69-.63.69-.04,0-.09,0-.14-.01-.04,0-.08,0-.11,0-.32,0-.43.23-.42.53.04.93.09,1.86.19,2.78.04.33.18.67.35.96.48.8,1.03,1.54,1.71,2.2,1.28,1.24,2.86,1.86,4.49,2.41.32.11.67.11,1.01.12.26,0,.53,0,.79,0,.37,0,.75,0,1.12,0v.02c.98-.05,1.99.04,2.94-.17,2.34-.52,4.67-.99,6.84-2.16,1.85-.99,3.4-2.29,4.93-3.66.79-.71,1.42-1.62,2.02-2.51.83-1.21,1.57-2.49,2.33-3.74.35-.59.73-1.17.98-1.81.9-2.27,1.82-4.54,2.05-7.02.14-1.46.55-2.89.49-4.38,0-.2-.02-.4.04-.59.32-1.01.2-2.05.19-3.08-.02-1.01-.11-2.03-.14-3.04-.05-1.42-.24-2.82-.3-4.24-.1-2.35-.46-4.68-.75-7.02-.18-1.46-.38-2.92-.69-4.35-.76-3.49-1.61-6.97-2.4-10.45-.26-1.15-.68-2.25-.96-3.38-.57-2.34-1.35-4.61-2.17-6.87-.1-.28-.19-.56-.27-.84-.59-2.03-1.4-3.98-2.3-5.89-.93-1.99-1.99-3.93-3-5.88-.11-.21-.27-.4-.44-.57-.64-.61-1.31-1.17-2.28-1.17,0,0-.01,0-.02,0h0c-.27,0-.55-.17-.82-.28-.3-.12-.6-.18-.87-.18h0Z"/>
      </g>
      <g>
        <path class="cls-1" d="M154.79,357.45c-.46,0-.92-.03-1.36-.09-1.95-.25-3.25-.86-4.24-1.98-.36-.41-.63-.84-.83-1.35-.87-2.17-.58-4.37.84-6.54l.12-.18c.9-1.37,1.82-2.79,3.02-3.92.16-.15.28-.3.37-.46.81-1.43,1.96-2.63,2.97-3.62.11-.1.21-.18.29-.31.78-1.29,1.83-2.3,2.95-3.38.38-.36.75-.72,1.11-1.09.23-.23.44-.49.64-.75l.23-.29c.07-.09.14-.19.2-.28.05-.08.14-.22.19-.25.81-.4,1.23-1.09,1.6-1.7l.21-.34c.17-.26.33-.53.5-.8.25-.4.49-.79.75-1.18.74-1.09,1.23-2.03,1.56-2.97.18-.51-.04-.97-.58-1.19-2.05-.85-4.22-1.29-6.45-1.29-.57,0-1.15.03-1.72.08-1.8.17-3.52.81-5.28,1.96-.93.6-1.79.9-2.62.9-.37,0-.75-.06-1.12-.17-.55-.17-1.21-.58-1.24-1.58-.07-2.12-.08-2.62,2.41-3.55,1.53-.57,3.17-1.08,4.85-1.51.83-.21,1.72-.3,2.58-.39l.7-.07c.17-.02.33-.02.5-.02.15,0,.76.02.92.02h.46v-.08s2.85.33,2.85.33c1.93.22,3.92.78,6.08,1.71,1.03.44,1.96,1.12,2.76,2.02.08.08.21.3.29.81.16,1.06-.03,2.13-.58,3.29-1.26,2.67-3.1,5.01-4.91,7.14-.2.24-.4.48-.6.72-.56.68-1.14,1.38-1.78,2-.15.14-.3.28-.46.42-.17.16-.35.31-.52.48-.29.28-.57.58-.83.89-.29.34-.57.69-.85,1.03-.27.34-.55.68-.82,1.01-.56.68-1.14,1.34-1.71,2.01-.28.32-.57.64-.86.96-.59.66-1.21,1.34-1.76,2.06-1.25,1.63-2.12,3.05-2.75,4.48-.12.27-.17.55-.21.8-.1.58.07.93.23,1.12.16.2.47.43,1.05.44h.33c1.47,0,2.79-.23,4.04-.71,2.12-.82,3.88-1.58,5.54-2.6l.37-.22c.52-.31,1.05-.63,1.53-1.08.26-.25.5-.43.72-.57,2.13-1.26,3.67-3.08,5.19-5,.4-.51.75-1.05,1.09-1.58.16-.26.33-.51.5-.77.69-1.02,1.03-2.08,1.02-3.16,0-.72.43-1.19.93-1.74l.16-.18s.17-.09.31-.09c.12,0,.23,0,.35,0,.93,0,1.74.14,2.48.44.18.07.36.21.44.33.37.57.69,1.15.96,1.73.34.73.67,1.46.99,2.2.84,1.89,1.7,3.85,2.86,5.65l.12.18c.23.36.47.73.75,1.07.43.52.55.88.45,1.31-.06.26-.02.51.01.71.03.18.02.29-.21.46-.55.4-1.2.61-1.88.61-.78,0-1.52-.28-2.09-.79-.87-.77-1.62-1.73-2.44-3.1-.1-.16-.18-.33-.27-.49-.1-.18-.19-.36-.3-.54-.11-.18-.38-.64-.88-.64-.37,0-.65.27-.82.47-.31.37-.59.76-.87,1.15-.7.98-1.49,1.82-2.46,2.64-1.53,1.3-3.12,2.51-4.6,3.63-.53.4-.99.71-1.51.95-.37.17-.7.39-1.02.6-.25.17-.5.33-.77.47l-.8.41c-1.06.55-2.15,1.11-3.26,1.54-1.77.68-3.88,1.38-6.15,1.38Z"/>
        <path class="cls-1" d="M159.79,319.61h.01c.77.09,1.55.18,2.32.27,1.88.22,3.82.76,5.94,1.67.96.41,1.83,1.05,2.58,1.89.03.03.11.2.17.55.14.96-.03,1.94-.53,3-1.24,2.61-3.06,4.92-4.84,7.03-.2.24-.4.48-.61.73-.58.7-1.12,1.36-1.74,1.96-.14.14-.29.27-.44.41-.18.16-.36.32-.53.49-.32.32-.61.62-.86.93-.29.34-.57.69-.85,1.04-.27.34-.54.67-.82,1.01-.56.67-1.13,1.34-1.71,2-.28.32-.57.64-.85.96-.6.67-1.22,1.35-1.78,2.09-1.27,1.66-2.17,3.12-2.81,4.58-.14.33-.2.65-.25.95-.13.74.12,1.22.34,1.49.23.28.66.61,1.42.63.11,0,.23,0,.34,0,1.54,0,2.92-.25,4.22-.75,2.15-.83,3.93-1.6,5.62-2.65.12-.07.24-.15.36-.22.54-.32,1.1-.66,1.61-1.15.23-.22.44-.38.63-.5,2.2-1.3,3.78-3.16,5.32-5.12.42-.52.77-1.08,1.11-1.62.16-.25.33-.51.49-.76.75-1.11,1.12-2.26,1.11-3.44,0-.5.29-.84.8-1.39l.1-.11s.02,0,.03,0c.11,0,.22,0,.33,0,.86,0,1.62.13,2.3.4.1.04.19.11.2.13.35.55.67,1.11.93,1.68.34.72.66,1.46.99,2.19.84,1.91,1.72,3.89,2.9,5.72l.12.18c.24.37.48.75.78,1.12.4.48.39.68.34.88-.08.34-.04.65,0,.88,0,0,0,0,0,0-.46.34-1.01.51-1.58.51-.65,0-1.28-.24-1.76-.66-.83-.74-1.55-1.66-2.35-2.98-.09-.15-.17-.31-.26-.47-.1-.19-.2-.38-.31-.57-.13-.22-.53-.89-1.31-.89-.65,0-1.06.49-1.2.65-.33.38-.61.78-.89,1.17l-.05.07c-.64.88-1.4,1.7-2.34,2.49-1.52,1.29-3.1,2.5-4.58,3.61-.5.38-.94.68-1.42.9-.4.18-.75.41-1.08.63-.25.16-.48.32-.72.44-.27.14-.54.28-.81.42-1.09.57-2.12,1.1-3.21,1.52-1.72.67-3.78,1.35-5.97,1.35-.44,0-.87-.03-1.3-.08-1.82-.24-3.03-.79-3.93-1.81-.32-.37-.56-.75-.74-1.2-.81-2.04-.55-4.03.8-6.09l.12-.18c.88-1.35,1.79-2.74,2.95-3.83.19-.18.35-.38.46-.58.78-1.38,1.89-2.55,2.91-3.53.08-.07.22-.2.34-.39.74-1.23,1.78-2.22,2.87-3.28.38-.36.76-.73,1.13-1.11.26-.26.47-.53.68-.8.07-.09.15-.19.23-.28.08-.1.16-.21.23-.33.03-.04.05-.08.07-.11.88-.47,1.35-1.23,1.72-1.84.07-.11.13-.22.2-.33.17-.26.33-.53.5-.8.24-.39.49-.79.74-1.17.76-1.12,1.27-2.11,1.61-3.09.26-.76-.08-1.49-.86-1.82-2.11-.88-4.35-1.33-6.64-1.33-.58,0-1.18.03-1.77.09-1.88.18-3.68.85-5.5,2.03-.85.55-1.61.82-2.35.82-.32,0-.64-.05-.97-.15-.59-.18-.87-.54-.89-1.12-.06-2.05-.07-2.26,2.08-3.07,1.52-.57,3.13-1.07,4.8-1.5.79-.2,1.62-.28,2.5-.37.24-.02.47-.05.71-.07.15-.02.29-.02.44-.02s.29,0,.43,0c.16,0,.33,0,.49,0l.92-.02h0M158.89,318.5s0,.09-.01.14c-.31,0-.62-.02-.92-.02-.18,0-.37,0-.55.03-1.12.12-2.26.19-3.35.47-1.66.42-3.3.93-4.91,1.53-2.82,1.05-2.8,1.86-2.73,4.04.03,1.02.62,1.74,1.59,2.04.43.14.86.2,1.27.2,1.03,0,1.99-.39,2.9-.98,1.55-1.01,3.23-1.7,5.06-1.88.56-.05,1.12-.08,1.67-.08,2.14,0,4.23.41,6.25,1.25.26.11.39.28.3.57-.35,1.03-.89,1.96-1.5,2.86-.44.65-.83,1.33-1.26,1.99-.45.7-.8,1.46-1.62,1.86-.23.12-.37.44-.55.66-.28.34-.54.7-.85,1.01-1.44,1.47-3.05,2.77-4.14,4.56-.05.08-.13.14-.21.21-1.16,1.13-2.26,2.31-3.06,3.73-.07.13-.17.24-.28.34-1.3,1.22-2.26,2.72-3.22,4.19-1.4,2.14-1.89,4.5-.89,7,.22.56.52,1.04.92,1.49,1.21,1.38,2.8,1.92,4.55,2.14.48.06.96.09,1.43.09,2.19,0,4.28-.63,6.33-1.41,1.41-.55,2.75-1.29,4.11-1.98.61-.31,1.14-.77,1.76-1.05.59-.27,1.09-.62,1.61-1.01,1.57-1.18,3.12-2.38,4.62-3.64.95-.8,1.78-1.67,2.5-2.67.29-.4.57-.8.89-1.17.17-.2.31-.29.44-.29.15,0,.29.13.45.4.2.34.36.7.57,1.03.71,1.18,1.51,2.3,2.54,3.22.68.61,1.55.92,2.42.92.76,0,1.52-.23,2.17-.71.3-.22.48-.49.41-.88-.03-.19-.07-.4-.03-.58.16-.7-.12-1.23-.55-1.75-.31-.37-.57-.8-.83-1.21-1.58-2.45-2.59-5.17-3.82-7.79-.29-.62-.63-1.22-1-1.79-.15-.23-.42-.42-.67-.52-.86-.34-1.75-.48-2.67-.48-.12,0-.24,0-.36,0-.23,0-.52.1-.66.26-.59.65-1.23,1.25-1.23,2.26,0,1.04-.35,2.01-.94,2.88-.52.77-.99,1.58-1.56,2.31-1.46,1.85-2.98,3.65-5.05,4.88-.29.17-.56.4-.81.63-.54.51-1.19.85-1.82,1.24-1.72,1.07-3.58,1.84-5.46,2.56-1.25.48-2.54.68-3.86.68-.11,0-.21,0-.32,0-.62-.01-.9-.36-.8-.95.04-.24.08-.49.18-.71.69-1.58,1.64-3.02,2.69-4.38.8-1.05,1.73-2,2.6-3,.58-.67,1.15-1.34,1.72-2.01.56-.68,1.11-1.37,1.67-2.04.25-.3.52-.58.79-.85.31-.31.66-.59.97-.89.88-.85,1.62-1.83,2.41-2.76,1.91-2.25,3.71-4.56,4.98-7.25.54-1.13.81-2.32.62-3.58-.06-.37-.17-.8-.41-1.07-.82-.92-1.8-1.66-2.94-2.15-1.99-.85-4.05-1.49-6.21-1.74-1.12-.13-2.24-.26-3.35-.39h0Z"/>
      </g>
      <g>
        <path class="cls-1" d="M633.14,374.88c-.68,0-1.39-.19-2.05-.38-.08-.02-.21-.11-.34-.27-1.02-1.23-2.21-2.28-3.36-3.3-.35-.31-.7-.61-1.04-.93-.68-.62-1.34-1.31-1.97-1.97-.33-.35-.67-.7-1.01-1.04-1.61-1.63-3.06-3.47-4.45-5.24l-.62-.79c-.46-.59-.88-1.25-1.28-1.89l-.32-.51c-2.13-3.36-3.95-6.51-5.56-9.64-.48-.93-.98-1.81-1.59-2.85-.1-.18-.38-.65-.87-.65s-.81.51-.92.7l-.13.2c-.16.24-.33.52-.41.85-.18.79-.56,1.5-.95,2.26-.35.66-.7,1.34-.93,2.08-2.01,3.39-4.07,5.48-6.67,6.8-.32.16-.73.27-1.23.32-.21.02-.42.03-.63.03-1.27,0-2.46-.4-3.57-.83-2.02-.8-3.52-2.27-5.13-3.97-.22-.24-.43-.49-.64-.74-.16-.2-.33-.4-.5-.59-1.78-1.99-3.07-4.38-4.33-6.69l-.13-.24c-.44-.81-.82-1.66-1.2-2.49-.36-.79-.73-1.62-1.15-2.41-.4-.75-.52-1.33-.39-1.93l.02-.1-.02-.1c-.16-.83.14-1.33,1.05-1.76.44-.21.91-.32,1.37-.32.73,0,1.76.27,2.53,1.58.33.57.68,1.15.91,1.76.45,1.19,1.05,2.3,1.63,3.38.27.51.55,1.02.8,1.54,1.4,2.81,3.25,5.25,5.5,7.26.55.5,1.09.82,1.67,1.01.27.09.52.13.76.13.49,0,.94-.18,1.36-.54,1.44-1.24,2.46-2.46,3.21-3.84.69-1.26,1.32-2.57,1.94-3.84.34-.7.67-1.4,1.02-2.09.82-1.63,1.83-3.18,2.81-4.69.5-.76,1.06-1.1,1.79-1.1,0,0,.32,0,.42,0,.16,0,.32,0,.47,0h.1c.82,0,1.37.31,1.8,1,.46.73.93,1.45,1.41,2.16.63.94,1.27,1.91,1.85,2.9.47.8.89,1.66,1.3,2.49.3.61.59,1.21.91,1.81l.59,1.09c.95,1.77,1.93,3.61,3.01,5.35,1.26,2.05,2.67,4.03,4.01,5.86.35.48.77.88,1.18,1.28.31.3.61.58.87.89,1.37,1.62,2.93,3.06,4.44,4.45.49.45.98.9,1.46,1.36.41.39.91.8,1.67.8.14,0,.3-.02.46-.05.06-.01.11-.02.16-.02.44,0,.83.4,1.22.84.4.45.58.9.55,1.38-.02.38-.02.77-.02,1.15,0,.35,0,.7-.02,1.05,0,0,0,.08-.14.28-.19.29-.4.6-.65.87-.16.18-.35.34-.54.45-.46.27-.96.4-1.52.4Z"/>
        <path class="cls-1" d="M582.2,337.01h0c.86,0,1.58.46,2.1,1.34.32.55.66,1.12.87,1.68.46,1.22,1.07,2.35,1.65,3.44.27.51.54,1.01.8,1.53,1.43,2.86,3.32,5.36,5.62,7.41.61.54,1.2.9,1.85,1.11.32.1.62.15.91.15.61,0,1.18-.22,1.68-.66,1.48-1.29,2.54-2.55,3.32-3.98.7-1.28,1.34-2.6,1.95-3.88.33-.69.67-1.39,1.01-2.07.8-1.6,1.81-3.15,2.81-4.68.38-.58.78-.83,1.35-.83h.09c.11,0,.22,0,.33,0,.16,0,.33,0,.49,0h.09c.64,0,1.04.22,1.38.76.46.74.95,1.47,1.42,2.17.62.94,1.27,1.9,1.84,2.87.46.78.86,1.59,1.28,2.45.29.6.6,1.22.92,1.83l.59,1.1c.95,1.78,1.94,3.62,3.02,5.37,1.27,2.07,2.69,4.05,4.03,5.89.37.51.82.94,1.24,1.34.3.29.59.56.83.85,1.39,1.64,2.96,3.09,4.48,4.5.49.45.98.9,1.46,1.36.52.49,1.12.94,2.01.94.18,0,.37-.02.56-.06.02,0,.04,0,.06,0,.25,0,.64.44.85.67.31.35.45.68.43,1.03-.02.39-.02.78-.03,1.17,0,.32,0,.64-.02.96,0,.02-.03.05-.06.09-.18.28-.38.57-.6.82-.13.14-.28.27-.42.35-.39.22-.79.33-1.26.33-.61,0-1.28-.18-1.87-.35-.02,0-.07-.05-.13-.12-1.04-1.26-2.25-2.32-3.42-3.35-.35-.31-.69-.61-1.04-.92-.67-.61-1.29-1.26-1.95-1.94-.34-.35-.67-.7-1.02-1.05-1.59-1.61-3.03-3.43-4.42-5.2l-.62-.79c-.45-.57-.83-1.19-1.25-1.85l-.32-.52c-2.12-3.35-3.93-6.49-5.54-9.6-.49-.94-.99-1.82-1.6-2.87-.35-.6-.79-.9-1.31-.9-.79,0-1.21.71-1.35.94-.04.06-.08.13-.12.19-.17.27-.38.59-.47,1.01-.17.73-.53,1.41-.91,2.14-.35.66-.71,1.34-.95,2.11-1.95,3.27-3.94,5.29-6.44,6.56-.26.13-.62.23-1.06.27-.19.02-.38.03-.57.03-1.19,0-2.33-.38-3.39-.8-1.92-.76-3.38-2.19-4.95-3.84-.21-.22-.41-.46-.61-.71-.17-.2-.34-.41-.51-.6-1.74-1.95-2.96-4.21-4.26-6.59l-.13-.24c-.43-.79-.79-1.6-1.18-2.46-.36-.8-.73-1.63-1.16-2.44-.34-.64-.44-1.12-.34-1.59l.04-.2-.04-.2c-.09-.47-.08-.81.77-1.22.37-.18.77-.27,1.15-.27M582.2,336.01c-.55,0-1.1.14-1.58.37-1.04.49-1.54,1.16-1.33,2.3-.17.82.06,1.55.44,2.26.85,1.6,1.48,3.31,2.35,4.9,1.34,2.46,2.65,4.92,4.53,7.02.39.44.74.91,1.15,1.34,1.55,1.64,3.14,3.24,5.31,4.09,1.22.48,2.45.87,3.75.87.23,0,.45-.01.68-.04.48-.05.98-.16,1.4-.38,3.09-1.56,5.18-4.13,6.91-7.04.46-1.55,1.54-2.84,1.91-4.43.07-.32.3-.61.48-.91.18-.3.33-.45.49-.45.14,0,.29.13.44.4.54.93,1.08,1.87,1.58,2.83,1.71,3.32,3.59,6.53,5.58,9.68.52.83,1.02,1.68,1.63,2.45,1.64,2.08,3.24,4.19,5.11,6.08,1,1.01,1.95,2.08,3,3.03,1.49,1.35,3.06,2.61,4.35,4.17.15.18.36.36.58.43.73.21,1.46.4,2.19.4.59,0,1.18-.13,1.77-.47.25-.14.48-.34.67-.55.26-.29.48-.61.69-.93.1-.16.21-.35.22-.53.03-.73,0-1.47.04-2.2.03-.69-.26-1.27-.68-1.74-.42-.48-.93-1.01-1.6-1.01-.09,0-.17,0-.26.03-.13.03-.25.04-.36.04-.55,0-.93-.29-1.32-.67-1.99-1.89-4.09-3.67-5.87-5.77-.63-.75-1.45-1.35-2.03-2.13-1.39-1.9-2.75-3.83-3.98-5.83-1.28-2.09-2.42-4.27-3.58-6.42-.77-1.42-1.4-2.93-2.22-4.32-1.02-1.73-2.2-3.36-3.27-5.07-.54-.86-1.27-1.23-2.23-1.23-.04,0-.08,0-.12,0-.15,0-.3,0-.46,0-.09,0-.19,0-.28,0-.05,0-.09,0-.14,0-.96,0-1.66.48-2.18,1.28-1.01,1.56-2.03,3.11-2.86,4.78-.99,1.97-1.89,3.98-2.95,5.92-.8,1.46-1.87,2.63-3.1,3.7-.32.28-.66.42-1.03.42-.19,0-.39-.04-.6-.11-.58-.19-1.06-.52-1.5-.91-2.26-2.02-4.04-4.41-5.39-7.11-.81-1.62-1.76-3.17-2.41-4.88-.24-.64-.59-1.24-.94-1.83-.78-1.32-1.89-1.83-2.96-1.83h0Z"/>
      </g>
      <g>
        <path class="cls-1" d="M294.37,353.2c-.31,0-.53-.03-.73-.17l-.26-.18c-.49-.34-.92-.63-1.14-1.12-.22-.5-.46-.99-.69-1.48-.33-.69-.66-1.38-.95-2.09-.9-2.18-1.82-4.43-2.61-6.67-.75-2.14-1.41-4.46-2.05-7.31l-.17-.77c-.33-1.51-.68-3.06-1.24-4.56-.26-.69-.19-1.46.23-2.5.18-.45,1.03-.92,1.65-.92.09,0,.17,0,.23.03.82.23,1.56.52,2.21.86.21.11.46.41.61.75.21.45.37.99.46,1.55.5,3.1,1.28,6.2,2.33,9.2.12.34.23.68.33,1.02.13.41.26.82.41,1.23.6,1.66,1.22,3.32,1.85,4.98.07.18.29.74.83.74.3,0,.55-.18.73-.34.97-.85,1.82-1.65,2.6-2.43,1.82-1.81,3.58-3.25,5.39-4.39.37-.23.72-.49,1.07-.75l.4-.29c1.31-.95,2.82-1.6,4.29-2.23.37-.16.74-.32,1.1-.48,1.72-.77,3.61-1.26,5.8-1.5l.29-.04c.21-.03.43-.06.64-.06s.4.03.55.11c.11.05.27.1.46.1.37-.03.66-.04.96-.04,2.23,0,4.3.64,6.21,1.33.9.33,1.73.73,2.54,1.23.34.21.69.4,1.04.59.6.32,1.17.63,1.68,1.03.37.29.73.58,1.1.87,2.03,1.61,4.13,3.27,5.7,5.39.17.23.39.41.58.57.14.11.28.23.39.36.09.11.18.21.27.32.52.59.77.92.56,1.48l-.07.17.06.17c.15.46-.02.82-.31,1.37-.11.21-.22.42-.31.65-.26.08-.5.19-.73.3-.41.18-.79.35-1.17.35-.1,0-.19-.01-.29-.03-.33-.08-.67-.2-1.01-.32l-.33-.12c-.45-.16-.71-.39-.84-.76-.32-.88-.9-1.55-1.5-2.22-1.33-1.46-2.95-2.88-4.96-4.32-1.94-1.4-3.64-2.29-5.34-2.8-1.34-.4-2.79-.78-4.33-.78-.26,0-.52.01-.78.03-.88.08-1.63.22-2.28.45-.43.15-.86.29-1.29.43-1.1.36-2.23.72-3.32,1.22-1.59.72-3.13,1.69-4.7,2.94-1.38,1.1-2.49,2.05-3.49,3-.61.57-1.17,1.2-1.71,1.81-.27.3-.54.61-.81.9-1.07,1.15-2.14,2.29-3.21,3.43-.04.05-.07.08-.09.09-.46.03-.85.19-1.23.34-.36.14-.7.28-1.05.28h-.53Z"/>
        <path class="cls-1" d="M286.42,325.92c.06,0,.09,0,.1,0,.78.22,1.49.5,2.12.82.08.04.26.24.39.52.19.41.33.9.42,1.42.5,3.13,1.29,6.25,2.35,9.28.12.33.22.67.33,1,.13.42.26.83.41,1.25.53,1.47,1.17,3.21,1.86,4.99.34.88.89,1.06,1.3,1.06.47,0,.83-.26,1.06-.46.98-.86,1.84-1.66,2.63-2.45,1.79-1.79,3.53-3.2,5.3-4.32.39-.25.75-.52,1.1-.78.13-.1.26-.19.39-.28,1.26-.91,2.68-1.53,4.19-2.18.37-.16.74-.32,1.11-.48,1.67-.75,3.52-1.22,5.66-1.46.1-.01.2-.02.3-.04.21-.03.4-.05.58-.05.15,0,.26.02.35.06.15.07.39.15.67.15h.07s.04,0,.04,0c.28-.02.56-.03.85-.03,2.15,0,4.17.63,6.04,1.31.87.32,1.67.7,2.45,1.18.36.22.72.41,1.07.6.58.31,1.13.61,1.6.98.37.29.73.58,1.1.88,2.1,1.66,4.08,3.22,5.61,5.3.21.28.45.48.66.66.13.11.25.21.32.29.09.11.19.22.28.33.53.61.56.72.47.96l-.13.34.11.34c.09.26,0,.46-.28.98-.08.15-.17.31-.24.48-.2.08-.39.16-.56.24-.37.17-.69.31-.97.31-.06,0-.12,0-.18-.02-.3-.07-.62-.18-.95-.31l-.34-.12c-.35-.12-.47-.27-.54-.46-.36-.96-.96-1.67-1.6-2.38-1.35-1.49-3-2.92-5.04-4.39-1.99-1.43-3.73-2.34-5.49-2.87-1.31-.4-2.87-.8-4.48-.8-.28,0-.55.01-.82.04-.92.08-1.71.23-2.4.47-.43.15-.85.28-1.28.42-1.11.36-2.26.73-3.37,1.24-1.63.74-3.2,1.72-4.8,3-1.39,1.1-2.51,2.06-3.52,3.02-.63.59-1.19,1.23-1.74,1.85-.27.3-.53.6-.81.89-1.05,1.13-2.11,2.26-3.17,3.38-.45.06-.84.22-1.18.35-.33.13-.61.24-.87.25-.09,0-.19,0-.28,0-.08,0-.17,0-.25,0-.28,0-.38-.03-.44-.07l-.27-.18c-.5-.34-.81-.57-.97-.91-.22-.5-.46-.99-.7-1.49-.34-.71-.66-1.38-.94-2.07-.89-2.17-1.81-4.41-2.6-6.65-.75-2.12-1.39-4.43-2.03-7.25l-.17-.77c-.34-1.52-.69-3.1-1.26-4.62-.21-.57-.14-1.23.23-2.14.09-.22.72-.61,1.19-.61M286.42,324.92c-.8,0-1.85.57-2.12,1.23-.37.91-.6,1.9-.24,2.87.64,1.71.99,3.49,1.39,5.26.56,2.49,1.22,4.96,2.06,7.36.8,2.26,1.71,4.48,2.62,6.69.5,1.22,1.11,2.38,1.65,3.58.32.73.97,1.09,1.57,1.51.31.22.66.26,1.02.26.17,0,.35,0,.53,0,.87,0,1.54-.6,2.38-.63.12,0,.26-.14.36-.25,1.08-1.14,2.15-2.28,3.21-3.43.83-.9,1.61-1.85,2.5-2.69,1.11-1.04,2.27-2.02,3.46-2.97,1.42-1.13,2.93-2.11,4.6-2.87,1.48-.68,3.04-1.1,4.57-1.63.69-.24,1.43-.36,2.16-.42.25-.02.49-.03.73-.03,1.43,0,2.82.34,4.19.76,1.9.57,3.61,1.59,5.2,2.73,1.75,1.26,3.42,2.64,4.88,4.25.57.62,1.11,1.25,1.4,2.05.21.55.61.87,1.15,1.06.46.16.92.35,1.4.46.14.03.27.05.4.05.8,0,1.47-.52,2.23-.72.04-.01.08-.06.1-.11.26-.81,1.01-1.49.68-2.49.4-1.02-.36-1.62-.9-2.29-.28-.34-.69-.56-.95-.91-1.89-2.56-4.45-4.4-6.89-6.36-.85-.68-1.85-1.09-2.77-1.66-.83-.51-1.7-.93-2.64-1.27-2.08-.76-4.17-1.37-6.38-1.37-.31,0-.61.01-.92.04-.01,0-.02,0-.03,0-.08,0-.18-.02-.25-.06-.25-.11-.51-.15-.76-.15-.33,0-.66.06-.98.1-2.05.23-4.06.69-5.95,1.54-1.87.84-3.8,1.55-5.48,2.76-.48.35-.94.71-1.44,1.02-2.01,1.26-3.8,2.79-5.47,4.46-.83.83-1.7,1.63-2.58,2.4-.16.14-.29.21-.4.21-.15,0-.26-.14-.37-.42-.64-1.65-1.25-3.3-1.85-4.96-.27-.74-.48-1.5-.74-2.24-1.04-2.97-1.81-6-2.31-9.11-.09-.58-.25-1.16-.5-1.68-.18-.38-.48-.79-.84-.98-.73-.38-1.52-.68-2.31-.9-.11-.03-.24-.05-.37-.05h0Z"/>
      </g>
      <g>
        <path class="cls-1" d="M125.99,365.99c-.49,0-.99-.22-1.51-.45-.14-.06-.32-.27-.41-.5-.39-.99-.51-1.75-.39-2.46l.13-.7c.12-.63.24-1.27.32-1.91.11-.9.25-1.8.39-2.69.12-.74.23-1.48.33-2.22.14-1.05.2-2.11.26-3.13.03-.57.06-1.14.11-1.71.13-1.61-.2-3.13-.51-4.61l-.07-.31c-.3-1.41-.86-2.84-1.68-4.24-1.41-2.41-3.04-4.13-4.98-5.25-1.52-.88-3.13-1.32-4.78-1.32-.43,0-.88.03-1.32.09-1.36.18-2.68.59-4.06,1.25-.46.22-.94.43-1.41.64-.65.29-1.3.57-1.93.9-.24.12-.49.18-.79.18-.32,0-.64-.06-.99-.13-.27-.05-.54-.1-.8-.13h0s-.03-.04-.07-.07c-.47-.35-.76-.93-.85-1.59-.09-.68.05-1.34.37-1.76.51-.66,1.24-1.04,1.96-1.36,1.76-.78,4.09-1.74,6.56-2.29.35-.08.75-.13,1.22-.15.25-.01.5-.01.75-.01h1.14c.28,0,.54-.01.79-.01,1.91,0,3.8.37,5.64,1.1.51.2.95.43,1.33.69,1.25.87,2.44,1.92,3.63,3.22,1.26,1.38,2.17,2.63,2.85,3.93,1.19,2.29,1.91,4.25,2.26,6.19.22,1.19.45,2.6.54,4.01.04.71-.02,1.42-.08,2.17-.03.33-.06.66-.08.98,0,.1-.02.2-.03.3-.02.21-.04.42-.04.62.08,2.16-.28,4.33-.63,6.42-.12.75-.25,1.5-.35,2.25-.03.2-.06.41-.1.61-.06.33-.11.67-.15,1-.1,1.02-.61,1.67-1.76,2.25-.27.14-.53.2-.81.2Z"/>
        <path class="cls-1" d="M113.76,330.53c1.84,0,3.68.36,5.46,1.06.47.19.89.4,1.23.64,1.22.85,2.39,1.88,3.55,3.15,1.23,1.35,2.11,2.56,2.77,3.83,1.17,2.24,1.87,4.16,2.21,6.05.21,1.18.44,2.57.53,3.95.04.67-.02,1.36-.08,2.1-.03.33-.06.67-.08,1,0,.09-.02.18-.03.28-.02.21-.05.44-.04.7.07,2.11-.26,4.16-.62,6.32-.12.75-.25,1.51-.35,2.26-.03.2-.06.4-.1.6-.06.33-.11.68-.15,1.04-.08.83-.5,1.35-1.49,1.85-.2.1-.39.15-.58.15-.39,0-.82-.19-1.3-.4-.04-.03-.12-.13-.16-.23-.36-.9-.47-1.58-.36-2.18.04-.23.09-.47.13-.7.12-.63.24-1.27.32-1.94.11-.89.25-1.8.39-2.67.12-.74.23-1.49.33-2.23.14-1.07.2-2.14.26-3.17.03-.57.06-1.13.11-1.69.13-1.68-.2-3.24-.52-4.75l-.07-.31c-.31-1.46-.89-2.94-1.74-4.39-1.46-2.49-3.14-4.27-5.16-5.43-1.6-.92-3.29-1.39-5.04-1.39-.46,0-.92.03-1.39.1-1.41.19-2.79.61-4.2,1.29-.46.22-.92.42-1.39.63-.64.28-1.31.58-1.96.91-.17.09-.35.13-.56.13-.27,0-.57-.06-.89-.12-.22-.04-.44-.09-.67-.12l-.06-.04c-.29-.22-.52-.68-.59-1.21-.07-.54.03-1.07.27-1.38.44-.57,1.11-.92,1.76-1.21,1.74-.77,4.04-1.72,6.47-2.26.33-.07.7-.12,1.13-.14.24-.01.48-.01.73-.01.19,0,.38,0,.56,0,.19,0,.39,0,.58,0h.05c.25-.01.5-.02.74-.02M113.76,329.53c-.26,0-.53,0-.79.02-.38,0-.76,0-1.15,0-.26,0-.51,0-.77.01-.44.02-.88.06-1.31.16-2.31.52-4.5,1.37-6.65,2.32-.8.35-1.59.78-2.15,1.51-.84,1.09-.58,3.18.52,4,.12.09.25.2.38.22.62.06,1.22.27,1.84.27.34,0,.67-.06,1.02-.24,1.09-.55,2.23-1,3.33-1.53,1.25-.59,2.51-1.01,3.91-1.2.43-.06.84-.09,1.25-.09,1.62,0,3.12.44,4.53,1.26,2.08,1.2,3.6,3.02,4.8,5.07.74,1.27,1.32,2.63,1.63,4.09.33,1.57.7,3.13.56,4.78-.13,1.6-.15,3.2-.36,4.81-.22,1.64-.52,3.28-.72,4.92-.11.87-.29,1.72-.44,2.58-.17.94.07,1.86.42,2.73.12.3.37.64.65.76.57.25,1.13.5,1.74.5.33,0,.67-.07,1.03-.26,1.15-.58,1.9-1.33,2.03-2.65.05-.54.17-1.06.24-1.6.41-2.91,1.09-5.79.98-8.76-.01-.29.05-.58.06-.88.06-1.07.22-2.15.16-3.21-.08-1.36-.3-2.73-.54-4.07-.41-2.24-1.26-4.32-2.31-6.33-.78-1.49-1.79-2.8-2.92-4.04-1.13-1.23-2.35-2.35-3.72-3.29-.44-.3-.93-.55-1.43-.75-1.88-.74-3.82-1.13-5.83-1.13h0Z"/>
      </g>
      <g>
        <path class="cls-1" d="M269.22,354.07c-.16,0-.34-.05-.57-.13-1.25-.43-1.85-1.21-1.89-2.46-.03-.97-.04-1.94-.06-2.91,0-.74-.02-1.49-.04-2.23-.02-.81-.06-1.62-.1-2.44-.07-1.4-.15-2.85-.1-4.27.06-1.74-.04-3.31-.32-4.8l-.08-.46c-.12-.69-.24-1.4-.53-2.06-.29-.67-.31-1.32-.05-2.23.39-1.35.69-1.57,1.47-1.57.21,0,.46.02.73.06.63.09,1.26.31,1.85.54.85.33,1.34,1.02,1.48,2.09.24,1.76.41,3.19.53,4.49l.09,1.01c.2,2.1.4,4.27.31,6.41,0,.22,0,.44.02.67l.02.26c-.04.59-.03,1.24-.03,1.89,0,1.13.01,2.19-.2,3.26-.06.31-.06.61-.06.91,0,.12,0,.23,0,.35,0,.19,0,.38,0,.56,0,.4,0,.78-.05,1.15-.11.86-.48,1.32-1.17,1.51-.31.08-.64.18-.94.34-.1.05-.2.08-.31.08Z"/>
        <path class="cls-1" d="M266.96,329h0c.18,0,.4.02.66.05.57.08,1.17.29,1.74.51.42.16,1.01.52,1.17,1.7.24,1.79.41,3.16.52,4.46l.09,1.01c.19,2.08.39,4.24.3,6.34-.01.26,0,.5.02.72,0,.07.01.14.01.2-.04.65-.03,1.29-.03,1.92,0,1.1.01,2.14-.19,3.16-.07.36-.07.7-.07,1.01,0,.11,0,.22,0,.33,0,.19,0,.38,0,.58,0,.39,0,.75-.05,1.09-.1.75-.39.98-.81,1.09-.34.09-.7.2-1.05.38-.03.02-.05.02-.07.02-.11,0-.31-.07-.41-.1-1.05-.36-1.52-.96-1.55-2.01-.03-.97-.04-1.94-.06-2.91,0-.74-.02-1.49-.04-2.23-.02-.82-.06-1.65-.1-2.45-.07-1.39-.15-2.83-.1-4.23.06-1.78-.04-3.39-.32-4.91-.03-.15-.05-.3-.08-.45-.12-.72-.25-1.46-.57-2.18-.25-.56-.25-1.09-.02-1.89.35-1.21.52-1.21.99-1.21M266.96,328c-1.12,0-1.55.51-1.95,1.93-.25.87-.32,1.68.07,2.57.33.75.43,1.6.58,2.41.29,1.55.36,3.12.31,4.69-.08,2.25.15,4.49.2,6.74.04,1.72.04,3.43.09,5.15.05,1.48.81,2.44,2.23,2.92.25.08.49.16.73.16.18,0,.36-.04.54-.14.26-.14.55-.22.83-.3.99-.26,1.42-.99,1.54-1.92.08-.58.05-1.18.07-1.76.01-.39-.03-.79.05-1.17.35-1.75.13-3.52.24-5.27-.01-.29-.05-.59-.04-.88.11-2.51-.18-5-.4-7.48-.14-1.51-.32-3.01-.53-4.51-.16-1.13-.68-2.06-1.8-2.49-.63-.25-1.29-.48-1.96-.57-.3-.04-.56-.06-.8-.06h0Z"/>
      </g>
      <g>
        <path class="cls-1" d="M199.61,357.52l-.2-.06c-.55-.15-1.02-.27-1.27-.68-.28-.44-.55-.88-.69-1.31-.52-1.58-.92-3.23-1.22-5.06-.42-2.51-1.01-4.94-1.48-6.78-.41-1.59-.91-3.57-.97-5.52-.03-.86-.12-1.73-.22-2.57-.02-.21-.05-.41-.07-.62h.08s-.06-.95-.06-.95c-.02-.38-.05-.77-.06-1.15,0-.21-.01-.42.02-.61.32-1.7.93-1.93,1.49-1.93.37,0,.82.12,1.36.35.11.05.23.09.34.14.23.09.45.17.6.29.7.56,1.01,1.11,1.01,1.85.01,1.5.11,3,.29,4.45.12.94.31,1.88.51,2.79.08.38.16.76.23,1.14l.42,2.15c.3,1.49.59,2.98.87,4.47.11.6.21,1.21.3,1.81.11.7.22,1.41.36,2.11.14.72.38,1.4.61,2.04.5,1.37.3,1.99-.9,2.78-.1.06-.19.14-.28.22s-.17.15-.24.18c-.18.08-.33.19-.46.29-.13.1-.25.19-.33.19-.02,0-.03,0-.05,0Z"/>
        <path class="cls-1" d="M194.95,330.78c.2,0,.57.05,1.16.31.12.05.24.1.36.14.19.07.38.14.47.21.59.47.82.88.82,1.46.01,1.52.11,3.04.29,4.51.12.97.32,1.92.51,2.83.08.38.16.75.23,1.13.14.73.29,1.45.43,2.18.29,1.48.59,2.95.86,4.44.11.6.21,1.2.3,1.8.11.69.22,1.41.36,2.12.15.76.41,1.49.63,2.12.42,1.16.31,1.53-.7,2.2-.11.07-.22.16-.33.25-.04.04-.09.08-.11.1-.24.1-.42.24-.57.35-.03.02-.05.04-.08.06l-.07-.02c-.51-.14-.84-.24-.99-.48-.26-.42-.51-.81-.63-1.19-.51-1.56-.91-3.19-1.21-4.98-.42-2.53-1.01-4.97-1.48-6.82-.51-1.99-.9-3.66-.96-5.42-.03-.88-.13-1.76-.22-2.6,0-.04,0-.07-.01-.11h.06s-.06-.98-.06-.98l-.03-.47c-.02-.37-.05-.75-.06-1.12,0-.17-.01-.36.01-.5.29-1.52.75-1.52,1-1.52M194.95,329.78c-1.11,0-1.69.83-1.98,2.33-.05.24-.04.48-.03.73.02.54.06,1.08.09,1.62-.03,0-.07,0-.1,0,.12,1.22.3,2.43.34,3.65.06,1.93.52,3.79.99,5.63.57,2.23,1.09,4.47,1.47,6.73.29,1.75.69,3.46,1.24,5.13.17.5.46.97.75,1.42.4.64,1.11.77,1.77.96.07.02.13.03.19.03.4,0,.65-.37.99-.52.22-.1.39-.3.59-.43,1.4-.93,1.67-1.79,1.09-3.37-.23-.64-.46-1.3-.59-1.97-.26-1.3-.42-2.61-.66-3.91-.41-2.21-.86-4.42-1.3-6.62-.25-1.3-.57-2.58-.74-3.89-.18-1.46-.27-2.93-.28-4.39,0-1-.49-1.67-1.2-2.24-.29-.24-.7-.34-1.05-.49-.61-.27-1.13-.4-1.56-.4h0Z"/>
      </g>
      <g>
        <path class="cls-1" d="M499.79,355.41c-.7,0-1.18-.09-1.33-.17-.59-.32-.92-.82-.99-1.5-.02-.19-.02-.39-.03-.58,0-.19,0-.39-.02-.58-.02-.28-.06-.56-.09-.84-.05-.39-.1-.79-.12-1.19-.05-1.14-.22-2.28-.38-3.38-.14-.95-.28-1.93-.34-2.9-.11-1.56-.04-3.15.03-4.68.04-.86.08-1.72.09-2.58,0-.93.13-1.89.37-2.94.14-.6.49-1.09,1.04-1.44.2-.13.38-.19.46-.19,1.32.19,2.1.47,2.54,1.4l.06.14c.1.23.22.52.48.7.47.32.54.75.53,1.53-.01.54-.04,1.07-.06,1.61-.04.87-.08,1.77-.07,2.67.01,1.48.07,3.07.2,5.14.06,1.03.16,2.05.25,3.06l.12,1.31-.04.9c-.03.77-.06,1.53-.11,2.29-.04.59-.2.93-.52,1.13-.27.17-.43.42-.56.61-.13.21-.21.32-.34.36-.17.06-.59.11-1.14.11Z"/>
        <path class="cls-1" d="M498.48,332.94c1.11.17,1.74.39,2.07,1.11.02.04.03.08.05.12.11.26.27.66.67.92.24.16.32.35.3,1.1-.01.53-.04,1.07-.06,1.6-.04.88-.08,1.79-.07,2.7.01,1.49.07,3.09.2,5.17.06,1.04.16,2.07.25,3.08.04.42.08.84.12,1.25l-.04.91c-.03.76-.06,1.51-.11,2.26-.04.54-.17.67-.29.74-.37.23-.57.54-.71.77-.04.06-.08.13-.11.17-.14.03-.48.08-.96.08-.63,0-1.02-.08-1.09-.11-.44-.24-.68-.6-.74-1.12-.02-.18-.02-.35-.02-.53,0-.21,0-.41-.03-.62-.03-.29-.06-.57-.1-.86-.05-.4-.1-.78-.11-1.15-.05-1.17-.22-2.32-.38-3.43-.14-.94-.27-1.91-.34-2.86-.11-1.53-.04-3.1.03-4.63.04-.85.08-1.72.09-2.59,0-.9.12-1.8.36-2.83.11-.47.38-.85.82-1.14.09-.06.16-.09.2-.1M498.46,331.94c-.24,0-.52.13-.73.27-.64.41-1.08.99-1.25,1.75-.23,1-.37,2-.38,3.04-.03,2.43-.28,4.85-.11,7.3.15,2.11.62,4.16.72,6.27.03.68.15,1.36.21,2.04.03.39,0,.79.05,1.18.1.83.51,1.48,1.25,1.88.3.16.95.23,1.57.23.52,0,1.03-.05,1.3-.14.54-.18.6-.76,1.01-1.03.56-.35.71-.92.75-1.52.07-1.08.1-2.15.15-3.26-.13-1.43-.29-2.9-.37-4.36-.1-1.7-.18-3.41-.2-5.12-.01-1.42.1-2.84.13-4.26.02-.74-.02-1.47-.75-1.96-.18-.12-.26-.41-.37-.63-.58-1.24-1.73-1.51-2.91-1.69-.03,0-.06,0-.08,0h0Z"/>
      </g>
      <g>
        <path class="cls-1" d="M502.6,315.2c-.81-.19-1.58-.36-2.22-.76-.75-.47-1.12-1.47-.89-2.43.02-.11.06-.21.09-.32.04-.13.08-.26.11-.39.19-.83.8-1.21,1.73-1.56.05,0,.09,0,.11,0,.05,0,.07,0,.08,0,.89.37,1.89.55,3.14.55h.49c.2,0,.27.02.27.02.31.34.76.43,1.12.51.21.05.4.08.53.17l.13.09s.16,0,.16,0c.66,0,1.06.37,1.53.81.2.18.4.36.61.52.01,0,.02.06-.03.19-.14.3-.29.48-.54.61-.89.47-1.89.75-2.86,1.02-.78.22-1.52.45-2.23.8-.22.11-.45.17-.67.24-.06.02-.13.04-.19.06-.16-.04-.32-.07-.47-.11Z"/>
        <path class="cls-1" d="M501.51,310.23c.93.37,1.96.55,3.25.55.13,0,.26,0,.39,0h.09s.02,0,.03,0c0,0,0,0,0,0,.43.35.91.45,1.24.52.15.03.31.07.37.1l.32.17.32-.02c.37,0,.66.24,1.12.68.12.11.23.22.36.32-.07.09-.13.14-.22.19-.85.44-1.78.71-2.76.99l-.08.02c-.72.2-1.49.44-2.23.81-.17.08-.37.14-.59.21-.02,0-.04.01-.06.02-.12-.03-.23-.05-.35-.08-.8-.18-1.5-.34-2.07-.7-.57-.36-.85-1.14-.67-1.89.02-.1.05-.19.08-.29.04-.14.08-.28.12-.43.12-.53.47-.84,1.34-1.17M501.51,309.22c-.09,0-.19.01-.27.04-.94.35-1.79.82-2.05,1.92-.05.24-.14.47-.2.71-.27,1.13.15,2.36,1.11,2.97.88.55,1.91.71,2.98.97.33-.11.71-.2,1.06-.36.66-.32,1.35-.54,2.07-.74,1.03-.29,2.07-.58,3.04-1.09.38-.2.6-.47.77-.84.14-.31.14-.6-.12-.8-.74-.55-1.31-1.43-2.37-1.43-.03,0-.06,0-.1,0-.49-.31-1.16-.18-1.61-.65-.12-.12-.37-.14-.58-.14-.04,0-.08,0-.12,0-.12,0-.25,0-.37,0-1.01,0-2-.11-2.95-.51-.09-.04-.19-.05-.3-.05h0Z"/>
      </g>
      <g>
        <path class="cls-1" d="M204.94,309.54c-.49,0-.96-.19-1.55-.5-.51-.27-.74-.78-1.01-1.36-.06-.13-.12-.27-.18-.4.05-.19.07-.32.09-.45.04-.28.07-.55.05-.82-.04-.53.25-.87.74-1.37l.12-.12s.16-.07.27-.07c1.71.06,3.05.77,4.12,2.19.05.06.08.13.12.2l.07.12c.08.13.1.25-.03.45-.06.09-.12.18-.19.27-.14.2-.28.4-.4.62-.32.6-.82.87-1.53,1.12-.24.08-.46.12-.69.12Z"/>
        <path class="cls-1" d="M203.46,304.94c1.53.05,2.74.71,3.71,1.99.03.04.06.09.08.14l.05.08c-.05.08-.11.16-.16.24-.14.2-.29.42-.43.67-.22.41-.53.63-1.25.88-.18.06-.36.1-.53.1-.39,0-.78-.16-1.32-.45-.34-.18-.52-.55-.78-1.13-.03-.07-.06-.14-.1-.21v-.02c.01-.12.03-.24.04-.34.04-.29.08-.6.05-.93-.02-.3.14-.51.6-.98l.04-.04M203.46,303.94c-.22,0-.5.08-.64.22-.5.53-1.06,1.03-.99,1.88.03.34-.05.68-.1,1.14,0,.02-.05.19,0,.31.36.74.6,1.56,1.41,1.98.59.31,1.15.56,1.79.56.27,0,.55-.05.85-.15.8-.28,1.41-.61,1.8-1.35.16-.3.38-.57.56-.86.2-.31.23-.64.04-.97-.07-.13-.14-.26-.22-.38-1.12-1.49-2.61-2.33-4.49-2.39,0,0-.02,0-.03,0h0Z"/>
      </g>
      <g>
        <path class="cls-1" d="M272.29,316.56c-.37,0-.74-.09-1.11-.29-.09-.05-.18-.1-.27-.15-.17-.1-.35-.21-.54-.29-.25-.1-.39-.26-.48-.53l-.13-.42c-.12-.38-.24-.78-.42-1.17-.25-.52-.16-.97.29-1.49.44-.51.77-.72,1.17-.72.11,0,.23.02.36.05.24.06.48.07.63.07.1,0,.5-.02.59-.02.24,0,.41.03.55.09.8.35,1.67,1.5,1.68,2.54l-.08.29c-.1.37-.23.82-.37,1.25-.01.03-.08.12-.17.18-.62.39-1.17.59-1.7.59Z"/>
        <path class="cls-1" d="M270.8,312.01c.07,0,.14.01.23.03.3.08.58.09.76.09.11,0,.22,0,.33,0,.09,0,.17,0,.26,0,.17,0,.27.01.35.05.61.27,1.33,1.21,1.37,2.02l-.06.22c-.09.34-.21.75-.34,1.15-.53.34-.99.5-1.42.5-.29,0-.58-.08-.87-.23-.08-.04-.16-.09-.25-.14-.17-.1-.37-.22-.6-.32-.1-.04-.15-.08-.2-.23-.04-.13-.09-.27-.13-.41-.12-.4-.25-.82-.44-1.23-.12-.25-.18-.49.21-.95.39-.45.59-.54.79-.54M270.8,311.01c-.65,0-1.12.39-1.55.89-.51.6-.73,1.25-.36,2.03.23.48.36,1.01.53,1.53.13.39.37.67.76.84.27.11.51.29.77.42.46.24.9.35,1.34.35.68,0,1.33-.26,1.97-.66.16-.1.31-.27.37-.44.2-.6.36-1.22.48-1.63.03-1.27-.96-2.64-1.98-3.08-.25-.11-.5-.13-.75-.13-.2,0-.4.02-.59.02-.17,0-.34-.01-.51-.06-.17-.05-.33-.07-.48-.07h0Z"/>
      </g>
      <g>
        <path class="cls-1" d="M272.58,344.61h-.44c-.08,0-.15.07-.15.15s.07.15.15.15h.44c.08,0,.15-.07.15-.15s-.07-.15-.15-.15Z"/>
        <path class="cls-1" d="M272.58,344.61h-.44c-.08,0-.15.07-.15.15s.07.15.15.15h.44c.08,0,.15-.07.15-.15s-.07-.15-.15-.15h0Z"/>
      </g>
      <g>
        <path class="cls-1" d="M636.62,371.16h-.44c-.08,0-.15.07-.15.15s.07.15.15.15h.44c.08,0,.15-.07.15-.15s-.07-.15-.15-.15Z"/>
        <path class="cls-1" d="M636.62,371.16h-.44c-.08,0-.15.07-.15.15s.07.15.15.15h.44c.08,0,.15-.07.15-.15s-.07-.15-.15-.15h0Z"/>
      </g>
      <g>
        <path class="cls-1" d="M406.95,288.71v.44c0,.08.07.15.15.15s.15-.07.15-.15v-.44c0-.08-.07-.15-.15-.15s-.15.07-.15.15Z"/>
        <path class="cls-1" d="M407.1,288.56c-.08,0-.15.07-.15.15v.44c0,.08.07.15.15.15s.15-.07.15-.15v-.44c0-.08-.07-.15-.15-.15h0Z"/>
      </g>
      <g>
        <path class="cls-1" d="M540.15,369.69h-.44c-.08,0-.15.07-.15.15s.07.15.15.15h.44c.08,0,.15-.07.15-.15s-.07-.15-.15-.15Z"/>
        <path class="cls-1" d="M540.15,369.69h-.44c-.08,0-.15.07-.15.15s.07.15.15.15h.44c.08,0,.15-.07.15-.15s-.07-.15-.15-.15h0Z"/>
      </g>
    </g>
  </g>
</svg>