<?xml version="1.0" encoding="UTF-8"?>
<svg id="Layer_2" data-name="Layer 2" xmlns="http://www.w3.org/2000/svg" xmlns:xlink="http://www.w3.org/1999/xlink" viewBox="0 0 3002.57 3004.59">
  <defs>
    <style>
      .cls-1 {
        fill: #d1e2e5;
        stroke: #fff;
        stroke-miterlimit: 10;
      }

      .cls-2 {
        fill: #072a51;
      }
    </style>
  </defs>
  <g id="BG-COLOUR">
    <rect class="cls-1" x="4.71" y=".5" width="2997.36" height="2995.64"/>
  </g>
  <g id="Layer_1-2" data-name="Layer 1">
    <image width="2469" height="2469" transform="translate(0 9.04) scale(1.21)" xlink:href="../../EXPORTS/HPR-WATERTOWER-DOT7.png"/>
  </g>
  <g id="TX">
    <g>
      <path class="cls-2" d="M126.13,2552.57h5.98c3.51,0,5.98.43,7.41,1.3,1.43.87,2.14,2.3,2.14,4.31,0,2.22-.62,3.75-1.88,4.59-1.25.84-3.99,1.26-8.21,1.26h-23.57c-2.2,0-3.85-.49-4.96-1.46-1.1-.98-1.65-2.44-1.65-4.39,0-2.12.64-3.58,1.92-4.39,1.28-.81,3.71-1.22,7.28-1.22h1.61v-73.28h-1.43c-3.57,0-6.03-.43-7.37-1.3-1.34-.87-2.01-2.38-2.01-4.55,0-2,.55-3.48,1.65-4.43,1.1-.95,2.81-1.42,5.13-1.42h22.5c4.76,0,7.78.42,9.06,1.26,1.28.84,1.92,2.37,1.92,4.59s-.8,3.69-2.41,4.55c-1.61.87-4.64,1.3-9.11,1.3h-4.02v28.3h42.77v-28.3h-6.07c-3.39,0-5.82-.46-7.28-1.38-1.46-.92-2.19-2.41-2.19-4.47,0-2.22.67-3.75,2.01-4.59,1.34-.84,4.63-1.26,9.87-1.26h21.79c2.14,0,3.76.49,4.87,1.46,1.1.98,1.65,2.44,1.65,4.39,0,2.12-.62,3.62-1.88,4.51-1.25.89-3.48,1.34-6.7,1.34h-2.14v73.28h1.43c3.57,0,6.01.42,7.32,1.26,1.31.84,1.96,2.29,1.96,4.35,0,2.22-.62,3.75-1.88,4.59-1.25.84-4.14,1.26-8.66,1.26h-18.48c-4.82,0-7.89-.42-9.2-1.26-1.31-.84-1.96-2.37-1.96-4.59s.77-3.58,2.32-4.39c1.55-.81,4.49-1.22,8.84-1.22h4.38v-33.83h-42.77v33.83Z"/>
      <path class="cls-2" d="M284.34,2552.57c4.58,0,7.51.39,8.79,1.18,1.28.79,1.92,2.26,1.92,4.43s-.64,3.75-1.92,4.59c-1.28.84-4.21,1.26-8.79,1.26h-58.39c-2.14,0-3.78-.49-4.91-1.46-1.13-.98-1.7-2.44-1.7-4.39,0-2.17.65-3.65,1.96-4.43,1.31-.79,4.25-1.18,8.84-1.18h20.18v-73.28h-20.18c-4.46,0-7.38-.42-8.75-1.26-1.37-.84-2.05-2.37-2.05-4.6,0-2,.56-3.48,1.7-4.43,1.13-.95,2.83-1.42,5.09-1.42h62.41c2.14,0,3.76.49,4.87,1.46,1.1.98,1.65,2.44,1.65,4.39,0,2.22-.67,3.76-2.01,4.6-1.34.84-4.24,1.26-8.71,1.26h-20.18v73.28h20.18Z"/>
      <path class="cls-2" d="M395.32,2549.99v-19.29h-22.14c-1.79,0-3.11-.43-3.97-1.3-.86-.87-1.29-2.2-1.29-3.99,0-2.06.39-3.47,1.16-4.23.77-.76,2.26-1.14,4.46-1.14h38.57c1.55,0,2.69.45,3.44,1.34.74.89,1.12,2.24,1.12,4.03,0,2.01-.49,3.39-1.47,4.15-.98.76-2.72,1.14-5.22,1.14h-1.16v24.48c0,1.46-.18,2.48-.54,3.05-.36.57-1.07,1.13-2.14,1.67-3.39,1.84-8.33,3.42-14.82,4.72-6.49,1.3-13.07,1.95-19.73,1.95-15.95,0-28.84-4.64-38.66-13.91-9.82-9.27-14.73-21.36-14.73-36.27s4.81-27.22,14.42-36.92c9.61-9.71,21.86-14.56,36.74-14.56,4.05,0,8.11.42,12.19,1.26,4.08.84,8.32,2.1,12.72,3.78.59-1.41,1.41-2.43,2.46-3.05,1.04-.62,2.4-.93,4.06-.93,2.8,0,4.66.76,5.58,2.28.92,1.52,1.38,5.02,1.38,10.49v11.06c0,2.66-.51,4.51-1.52,5.57-1.01,1.06-2.77,1.59-5.27,1.59-3.1,0-5.33-1.73-6.7-5.21-.48-1.03-.86-1.82-1.16-2.36-2.2-4.28-5.36-7.59-9.46-9.92-4.11-2.33-8.81-3.5-14.11-3.5-10.66,0-19.17,3.51-25.54,10.52-6.37,7.01-9.55,16.48-9.55,28.4s3.51,22.07,10.54,29.33c7.02,7.26,16.37,10.89,28.04,10.89,3.39,0,6.89-.41,10.49-1.22,3.6-.81,7.54-2.11,11.83-3.89Z"/>
      <path class="cls-2" d="M455.32,2552.57h5.98c3.51,0,5.98.43,7.41,1.3,1.43.87,2.14,2.3,2.14,4.31,0,2.22-.62,3.75-1.88,4.59-1.25.84-3.99,1.26-8.21,1.26h-23.57c-2.2,0-3.85-.49-4.96-1.46-1.1-.98-1.65-2.44-1.65-4.39,0-2.12.64-3.58,1.92-4.39,1.28-.81,3.71-1.22,7.28-1.22h1.61v-73.28h-1.43c-3.57,0-6.03-.43-7.37-1.3-1.34-.87-2.01-2.38-2.01-4.55,0-2,.55-3.48,1.65-4.43,1.1-.95,2.81-1.42,5.13-1.42h22.5c4.76,0,7.78.42,9.06,1.26,1.28.84,1.92,2.37,1.92,4.59s-.8,3.69-2.41,4.55c-1.61.87-4.64,1.3-9.11,1.3h-4.02v28.3h42.77v-28.3h-6.07c-3.39,0-5.82-.46-7.28-1.38-1.46-.92-2.19-2.41-2.19-4.47,0-2.22.67-3.75,2.01-4.59,1.34-.84,4.63-1.26,9.87-1.26h21.79c2.14,0,3.76.49,4.87,1.46,1.1.98,1.65,2.44,1.65,4.39,0,2.12-.62,3.62-1.88,4.51-1.25.89-3.48,1.34-6.7,1.34h-2.14v73.28h1.43c3.57,0,6.01.42,7.32,1.26,1.31.84,1.96,2.29,1.96,4.35,0,2.22-.62,3.75-1.88,4.59-1.25.84-4.14,1.26-8.66,1.26h-18.48c-4.82,0-7.89-.42-9.2-1.26-1.31-.84-1.96-2.37-1.96-4.59s.77-3.58,2.32-4.39c1.55-.81,4.49-1.22,8.84-1.22h4.38v-33.83h-42.77v33.83Z"/>
    </g>
    <g>
      <path class="cls-2" d="M151.13,2678.11c2.92,0,5.03.45,6.34,1.34,1.31.9,1.96,2.32,1.96,4.27,0,2.17-.62,3.69-1.88,4.55-1.25.87-3.63,1.3-7.14,1.3h-43.66c-2.02,0-3.57-.5-4.64-1.5-1.07-1-1.61-2.45-1.61-4.35s.52-3.31,1.56-4.23c1.04-.92,2.66-1.38,4.87-1.38h11.52v-73.28h-6.25c-5.24,0-8.5-.42-9.78-1.26-1.28-.84-1.92-2.37-1.92-4.6,0-1.9.54-3.35,1.61-4.35,1.07-1,2.62-1.5,4.64-1.5h41.34c14.46,0,25.45,2.55,32.95,7.65,7.5,5.1,11.25,12.61,11.25,22.53s-3.72,17.4-11.16,22.45c-7.44,5.04-18.45,7.56-33.04,7.56h-15.62v24.81h18.66ZM132.47,2604.83v37.74h16.7c9.34,0,16.34-1.57,20.98-4.72,4.64-3.14,6.96-7.89,6.96-14.23s-2.34-10.92-7.01-14.07c-4.67-3.14-11.65-4.72-20.94-4.72h-16.7Z"/>
      <path class="cls-2" d="M305.5,2641.27c0,14.86-4.52,27.04-13.57,36.56-9.05,9.52-20.62,14.27-34.73,14.27s-25.52-4.77-34.6-14.31c-9.08-9.54-13.62-21.71-13.62-36.52s4.49-27.18,13.48-36.64c8.99-9.46,20.56-14.19,34.73-14.19s25.68,4.77,34.73,14.31c9.05,9.54,13.57,21.72,13.57,36.52ZM257.2,2680.63c10,0,17.87-3.49,23.62-10.47,5.74-6.98,8.62-16.61,8.62-28.89s-2.87-21.91-8.62-28.89c-5.75-6.98-13.62-10.47-23.62-10.47s-17.93,3.46-23.62,10.39c-5.69,6.93-8.53,16.58-8.53,28.97s2.87,21.91,8.62,28.89c5.74,6.98,13.59,10.47,23.53,10.47Z"/>
      <path class="cls-2" d="M394.07,2678.11c4.58,0,7.51.39,8.79,1.18,1.28.79,1.92,2.26,1.92,4.43s-.64,3.75-1.92,4.59c-1.28.84-4.21,1.26-8.79,1.26h-58.39c-2.14,0-3.78-.49-4.91-1.46-1.13-.98-1.7-2.44-1.7-4.39,0-2.17.65-3.65,1.96-4.43,1.31-.79,4.25-1.18,8.84-1.18h20.18v-73.28h-20.18c-4.46,0-7.38-.42-8.75-1.26-1.37-.84-2.05-2.37-2.05-4.6,0-2,.56-3.48,1.7-4.43,1.13-.95,2.83-1.42,5.09-1.42h62.41c2.14,0,3.76.49,4.87,1.46,1.1.98,1.65,2.44,1.65,4.39,0,2.22-.67,3.76-2.01,4.6-1.34.84-4.24,1.26-8.71,1.26h-20.18v73.28h20.18Z"/>
      <path class="cls-2" d="M452.38,2678.11h11.16c3.21,0,5.51.43,6.88,1.3,1.37.87,2.05,2.3,2.05,4.31,0,2.22-.64,3.75-1.92,4.59-1.28.84-4.09,1.26-8.44,1.26h-26.52c-2.14,0-3.75-.49-4.82-1.46-1.07-.98-1.61-2.44-1.61-4.39,0-2.17.61-3.65,1.83-4.43,1.22-.79,3.59-1.18,7.1-1.18h1.7v-73.28h-2.23c-5,0-8.38-.43-10.13-1.3-1.76-.87-2.63-2.38-2.63-4.55,0-2,.76-3.46,2.28-4.35,1.52-.89,3.97-1.34,7.37-1.34,2.38-.11,4.17-.16,5.36-.16h8.39c2.74,0,4.66.29,5.76.85,1.1.57,2.4,2.02,3.88,4.35l45,70.76v-64.25h-9.82c-3.21,0-5.55-.47-7.01-1.42-1.46-.95-2.19-2.43-2.19-4.43,0-2.22.62-3.75,1.88-4.59,1.25-.84,3.87-1.26,7.86-1.26h25.62c2.14,0,3.73.49,4.78,1.46,1.04.98,1.56,2.44,1.56,4.39,0,2.17-.64,3.69-1.92,4.55-1.28.87-3.62,1.3-7.01,1.3h-1.07v81.9c0,1.57-.4,2.66-1.21,3.25-.8.6-2.67.9-5.58.9s-4.72-.15-5.4-.45c-.69-.3-1.83-1.69-3.44-4.19l-47.5-74.58v66.45Z"/>
      <path class="cls-2" d="M553,2625.98c-.12,4.07-.64,6.66-1.56,7.77-.92,1.11-2.72,1.67-5.4,1.67-2.08,0-3.65-.5-4.69-1.5-1.04-1-1.56-2.48-1.56-4.43.12-1.68.18-2.95.18-3.82l.89-26.84c.12-2.01.71-3.46,1.79-4.35,1.07-.89,2.74-1.34,5-1.34h77.59c2.26,0,3.93.45,5,1.34s1.64,2.35,1.7,4.35l.98,26.84c0,.98.03,1.9.09,2.76.06.87.09,1.28.09,1.22,0,1.95-.57,3.4-1.7,4.35-1.13.95-2.83,1.42-5.09,1.42-2.38,0-4.02-.56-4.91-1.67-.89-1.11-1.4-3.7-1.52-7.77l-.89-21.15h-25.62v73.28h17.23c2.5,0,4.31.45,5.45,1.34,1.13.9,1.7,2.32,1.7,4.27s-.54,3.35-1.61,4.35c-1.07,1-2.62,1.5-4.64,1.5h-50.09c-2.02,0-3.57-.5-4.64-1.5-1.07-1-1.61-2.45-1.61-4.35,0-2.01.58-3.44,1.74-4.31,1.16-.87,3.14-1.3,5.94-1.3h16.7v-73.28h-25.62l-.89,21.15Z"/>
    </g>
    <g>
      <path class="cls-2" d="M127.56,2803.64h6.07c3.45,0,5.89.43,7.32,1.3,1.43.87,2.14,2.3,2.14,4.31,0,2.17-.62,3.69-1.88,4.55-1.25.87-3.6,1.3-7.05,1.3h-30c-2.02,0-3.57-.5-4.64-1.5-1.07-1-1.61-2.45-1.61-4.35,0-2.01.59-3.44,1.79-4.31,1.19-.87,3.15-1.3,5.89-1.3h8.12v-74.01h-5.18c-4.46,0-7.35-.38-8.66-1.14-1.31-.76-1.96-2.2-1.96-4.31,0-1.84.52-3.22,1.56-4.15,1.04-.92,2.6-1.38,4.69-1.38h37.68c9.11,0,15.91.39,20.4,1.18,4.49.79,8.29,2.13,11.38,4.03,3.99,2.44,7.13,5.67,9.42,9.68,2.29,4.01,3.44,8.32,3.44,12.93,0,6.24-2.1,11.59-6.29,16.06-4.2,4.47-10.04,7.58-17.54,9.31,1.55.81,2.93,1.76,4.15,2.85,1.22,1.08,2.4,2.39,3.53,3.9l17.95,25.05h2.95c3.33,0,5.62.42,6.88,1.26,1.25.84,1.88,2.29,1.88,4.35,0,1.9-.52,3.35-1.56,4.35-1.04,1-2.58,1.5-4.6,1.5h-10.09c-2.92,0-5.77-1.95-8.57-5.86-.36-.33-.62-.6-.8-.81l-17.14-23.67c-3.51-4.83-6.41-7.94-8.71-9.35-2.29-1.41-5.31-2.12-9.06-2.12h-11.88v30.34ZM127.56,2729.63v32.86h18.48c8.33,0,14.6-1.37,18.79-4.11,4.2-2.74,6.29-6.82,6.29-12.24s-2.05-9.6-6.16-12.36c-4.11-2.77-10.24-4.15-18.39-4.15h-19.02Z"/>
      <path class="cls-2" d="M243.36,2730.36h-13.04c-3.63,0-6.18-.45-7.63-1.34-1.46-.9-2.19-2.4-2.19-4.51,0-2.22.64-3.75,1.92-4.59,1.28-.84,4.78-1.26,10.49-1.26h25.45c3.27,0,5.49.39,6.65,1.18,1.16.79,2.22,2.24,3.17,4.35l34.91,79.46h1.52c3.21,0,5.42.41,6.61,1.22,1.19.81,1.79,2.28,1.79,4.39,0,2.22-.57,3.75-1.7,4.59-1.13.84-3.25,1.26-6.34,1.26h-24.29c-4.52,0-7.43-.42-8.71-1.26-1.28-.84-1.92-2.37-1.92-4.59,0-2.06.7-3.51,2.1-4.35,1.4-.84,4.03-1.26,7.9-1.26h8.3l-8.66-19.36h-45.36l-7.68,19.36h8.66c3.93,0,6.61.42,8.04,1.26,1.43.84,2.14,2.29,2.14,4.35,0,2.22-.64,3.75-1.92,4.59-1.28.84-4.09,1.26-8.44,1.26h-23.48c-3.81,0-6.34-.42-7.59-1.26-1.25-.84-1.88-2.37-1.88-4.59s.62-3.58,1.88-4.39c1.25-.81,3.66-1.22,7.23-1.22h1.7l30.36-73.28ZM238.81,2773.47h36.52l-19.2-43.1-17.32,43.1Z"/>
      <path class="cls-2" d="M345.59,2815.11h-18.12c-2.2,0-3.85-.49-4.96-1.46-1.1-.98-1.65-2.44-1.65-4.39,0-2.12.64-3.58,1.92-4.39,1.28-.81,3.71-1.22,7.28-1.22h1.61v-73.28h-1.43c-3.57,0-6.03-.43-7.37-1.3-1.34-.87-2.01-2.38-2.01-4.55,0-2,.55-3.48,1.65-4.43,1.1-.95,2.81-1.42,5.13-1.42h37.68c14.82,0,26.64,4.35,35.45,13.05,8.81,8.7,13.21,20.45,13.21,35.26,0,7.21-1.27,13.91-3.79,20.09-2.53,6.18-6.21,11.6-11.03,16.27-4.46,4.23-9.9,7.31-16.29,9.23-6.4,1.92-14.63,2.89-24.69,2.89-1.19,0-3.2-.05-6.03-.16-2.83-.11-5.02-.16-6.56-.16ZM345.59,2803.64c1.9.16,3.79.29,5.67.37s3.71.12,5.49.12c14.64,0,25.37-2.98,32.19-8.95,6.81-5.96,10.22-15.37,10.22-28.22s-3.42-22.3-10.27-28.18c-6.85-5.88-17.8-8.82-32.86-8.82-2.8,0-4.93.03-6.38.08-1.46.05-2.81.16-4.06.33v73.28Z"/>
      <path class="cls-2" d="M503.81,2803.64c4.58,0,7.51.39,8.79,1.18,1.28.79,1.92,2.26,1.92,4.43s-.64,3.75-1.92,4.59c-1.28.84-4.21,1.26-8.79,1.26h-58.39c-2.14,0-3.78-.49-4.91-1.46-1.13-.98-1.7-2.44-1.7-4.39,0-2.17.65-3.65,1.96-4.43,1.31-.79,4.25-1.18,8.84-1.18h20.18v-73.28h-20.18c-4.46,0-7.38-.42-8.75-1.26-1.37-.84-2.05-2.37-2.05-4.6,0-2,.56-3.48,1.7-4.43,1.13-.95,2.83-1.42,5.09-1.42h62.41c2.14,0,3.76.49,4.87,1.46,1.1.98,1.65,2.44,1.65,4.39,0,2.22-.67,3.76-2.01,4.6-1.34.84-4.24,1.26-8.71,1.26h-20.18v73.28h20.18Z"/>
      <path class="cls-2" d="M634.7,2766.8c0,14.86-4.52,27.04-13.57,36.56-9.05,9.52-20.62,14.27-34.73,14.27s-25.52-4.77-34.6-14.31c-9.08-9.54-13.62-21.71-13.62-36.52s4.49-27.18,13.48-36.64c8.99-9.46,20.56-14.19,34.73-14.19s25.68,4.77,34.73,14.31c9.05,9.54,13.57,21.72,13.57,36.52ZM586.39,2806.16c10,0,17.87-3.49,23.62-10.47,5.74-6.98,8.62-16.61,8.62-28.89s-2.87-21.91-8.62-28.89c-5.75-6.98-13.62-10.47-23.62-10.47s-17.93,3.46-23.62,10.39c-5.69,6.93-8.53,16.58-8.53,28.97s2.87,21.91,8.62,28.89c5.74,6.98,13.59,10.47,23.53,10.47Z"/>
    </g>
  </g>
</svg>