<?xml version="1.0" encoding="UTF-8"?>
<svg id="Layer_2" data-name="Layer 2" xmlns="http://www.w3.org/2000/svg" viewBox="0 0 143.93 196.46">
  <defs>
    <style>
      .cls-1 {
        fill: #190808;
      }

      .cls-2 {
        fill: #a24035;
      }

      .cls-3 {
        fill: #fffadf;
      }

      .cls-4 {
        fill: #fff;
      }

      .cls-5 {
        fill: #60632a;
      }

      .cls-6 {
        fill: #a79f43;
      }

      .cls-7 {
        fill: #44491e;
      }

      .cls-8 {
        fill: #4e491d;
      }
    </style>
  </defs>
  <g id="Layer_2-2" data-name="Layer 2">
    <g>
      <rect class="cls-3" width="143.93" height="196.46"/>
      <path class="cls-7" d="M19.58,30.65h1.02c.22,0,.25-.03.25-.25v-9.7c0-.22-.03-.25-.25-.25h-.98c-.06,0-.09-.01-.09-.13s.03-.13.09-.13h4.63c.06,0,.09.01.09.13s-.03.13-.09.13h-1.36c-.22,0-.25.03-.25.25v9.7c0,.22.03.25.25.25h1.69c2.1,0,2.73-.98,3.09-3.31.01-.07.06-.1.13-.1.06,0,.13.03.13.1v3.31c0,.2-.04.26-.25.26h-8.11c-.06,0-.09-.01-.09-.13s.03-.13.09-.13Z"/>
      <path class="cls-7" d="M27.56,20.19h4.12c.06,0,.09.01.09.13s-.03.13-.09.13h-1.08c-.22,0-.23.03-.12.25l1.88,3.34c.31.55.66,1.2.98,1.85h.06l1.5-2.82c1.12-2.1,1.21-2.57-.41-2.63-.06,0-.09-.03-.09-.13,0-.12.03-.13.09-.13h2.96c.06,0,.09.01.09.13,0,.09-.03.13-.12.13-.74.06-1.02.36-2.28,2.71l-1.65,3.08v4.16c0,.22.03.25.25.25h1.07c.06,0,.09.01.09.13s-.03.13-.09.13h-4.42c-.06,0-.09-.01-.09-.13s.03-.13.09-.13h1.07c.22,0,.25-.03.25-.25v-4.16l-3.15-5.55c-.12-.22-.15-.25-.36-.25h-.63c-.06,0-.09-.01-.09-.13s.03-.13.09-.13Z"/>
      <path class="cls-7" d="M37.84,30.65c1.2-.06,1.39-.5,1.39-2.52v-7.43c0-.22-.03-.25-.25-.25h-1.01c-.06,0-.09-.01-.09-.13s.03-.13.09-.13h3.05c.13,0,.2.06.29.19l4.79,7.66h.06v-5.06c0-2.03-.18-2.47-1.63-2.52-.06,0-.09-.04-.09-.13,0-.12.03-.13.09-.13h3.31c.06,0,.09.01.09.13,0,.09-.03.13-.09.13-1.2.06-1.39.5-1.39,2.52v7.72c0,.12-.01.22-.16.22h-.44c-.13,0-.2-.07-.26-.18l-6.01-9.67h-.06v7.06c0,2.03.18,2.47,1.79,2.52.06,0,.09.04.09.13,0,.12-.03.13-.09.13h-3.47c-.06,0-.09-.01-.09-.13,0-.09.03-.13.09-.13Z"/>
      <path class="cls-7" d="M48.33,30.65c1.2-.06,1.39-.5,1.39-2.52v-7.43c0-.22-.03-.25-.25-.25h-1.01c-.06,0-.09-.01-.09-.13s.03-.13.09-.13h3.05c.13,0,.2.06.29.19l4.79,7.66h.06v-5.06c0-2.03-.18-2.47-1.63-2.52-.06,0-.09-.04-.09-.13,0-.12.03-.13.09-.13h3.31c.06,0,.09.01.09.13,0,.09-.03.13-.09.13-1.2.06-1.39.5-1.39,2.52v7.72c0,.12-.01.22-.16.22h-.44c-.13,0-.2-.07-.26-.18l-6.01-9.67h-.06v7.06c0,2.03.18,2.47,1.79,2.52.06,0,.09.04.09.13,0,.12-.03.13-.09.13h-3.47c-.06,0-.09-.01-.09-.13,0-.09.03-.13.09-.13Z"/>
      <path class="cls-7" d="M63.12,30.65h1.02c.22,0,.25-.03.25-.25v-9.7c0-.22-.03-.25-.25-.25h-.98c-.06,0-.09-.01-.09-.13s.03-.13.09-.13h4.89c3.18,0,5.37,2.17,5.37,5.37s-2.19,5.36-5.22,5.36h-5.08c-.06,0-.09-.01-.09-.13s.03-.13.09-.13ZM70.2,21.27c-.48-.48-1.21-.82-2.15-.82h-1.62c-.22,0-.25.03-.25.25v9.7c0,.22.03.25.25.25h1.77c.85,0,1.5-.29,2-.79.74-.74,1.17-1.96,1.17-4.3s-.42-3.55-1.17-4.29Z"/>
      <path class="cls-7" d="M74.56,30.65h1.02c.22,0,.25-.03.25-.25v-9.7c0-.22-.03-.25-.25-.25h-.98c-.06,0-.09-.01-.09-.13s.03-.13.09-.13h7.97c.2,0,.25.06.25.26v2.57c0,.06-.03.09-.15.09-.07,0-.1-.03-.12-.1-.26-1.79-1.17-2.55-2.55-2.55h-2.13c-.22,0-.25.03-.25.25v4.33h.63c1.5,0,1.91-.41,2.1-1.72.01-.07.04-.1.12-.1.12,0,.15.03.15.09v3.74c0,.06-.03.09-.15.09-.07,0-.1-.04-.12-.12-.19-1.31-.6-1.71-2.1-1.71h-.63v5.11c0,.22.03.25.25.25h1.96c1.84,0,2.64-.98,2.98-3.22.01-.07.06-.1.13-.1.12,0,.13.03.13.09v3.24c0,.2-.04.26-.25.26h-8.26c-.06,0-.09-.01-.09-.13s.03-.13.09-.13Z"/>
      <path class="cls-7" d="M83.97,30.65c1.2-.06,1.39-.5,1.39-2.52v-7.43c0-.22-.03-.25-.25-.25h-1.01c-.06,0-.09-.01-.09-.13s.03-.13.09-.13h2.95c.13,0,.25.06.29.19l2.36,6.9c.22.63.38,1.15.44,1.46h.06l2.86-8.36c.04-.13.12-.19.31-.19h2.85c.06,0,.09.01.09.13s-.03.13-.09.13h-.95c-.22,0-.25.03-.25.25v9.7c0,.22.03.25.25.25h1.09c.06,0,.09.01.09.13s-.03.13-.09.13h-4.49c-.06,0-.09-.01-.09-.13s.03-.13.09-.13h1.11c.22,0,.25-.03.25-.25v-9.4h-.07l-3.36,9.73c-.03.12-.09.18-.23.18h-.23c-.13,0-.2-.04-.25-.18l-3.37-9.78h-.06v7.16c0,2.03.18,2.47,1.65,2.52.06,0,.09.04.09.13,0,.12-.03.13-.09.13h-3.33c-.06,0-.09-.01-.09-.13,0-.09.03-.13.09-.13Z"/>
      <path class="cls-7" d="M97.22,30.65h1.02c.22,0,.25-.03.25-.25v-9.7c0-.22-.03-.25-.25-.25h-.98c-.06,0-.09-.01-.09-.13s.03-.13.09-.13h7.97c.2,0,.25.06.25.26v2.57c0,.06-.03.09-.15.09-.07,0-.1-.03-.12-.1-.26-1.79-1.17-2.55-2.55-2.55h-2.13c-.22,0-.25.03-.25.25v4.33h.63c1.5,0,1.91-.41,2.1-1.72.01-.07.04-.1.12-.1.12,0,.15.03.15.09v3.74c0,.06-.03.09-.15.09-.07,0-.1-.04-.12-.12-.19-1.31-.6-1.71-2.1-1.71h-.63v5.11c0,.22.03.25.25.25h1.96c1.84,0,2.64-.98,2.98-3.22.01-.07.06-.1.13-.1.12,0,.13.03.13.09v3.24c0,.2-.04.26-.25.26h-8.26c-.06,0-.09-.01-.09-.13s.03-.13.09-.13Z"/>
      <path class="cls-7" d="M112.08,25.19v.06c1.94.23,2.99.93,2.99,2.8v1.74c0,.6.25.89.7.89.22,0,.51-.12.71-.23.06-.03.19.13.13.19-.31.26-.77.45-1.37.45-1.2,0-1.97-.63-1.97-1.77v-2.19c0-1.21-.93-1.77-2.04-1.77h-1.31v5.03c0,.22.03.25.25.25h.9c.06,0,.09.01.09.13s-.03.13-.09.13h-4.22c-.06,0-.09-.01-.09-.13s.03-.13.09-.13h1.02c.22,0,.25-.03.25-.25v-9.7c0-.22-.03-.25-.25-.25h-.98c-.06,0-.09-.01-.09-.13s.03-.13.09-.13h4.23c2.45,0,3.66,1.01,3.66,2.51,0,1.36-1.05,2.28-2.71,2.5ZM112.34,20.93c-.31-.31-.66-.48-1.31-.48h-.86c-.22,0-.25.03-.25.25v4.41h1.01c.7,0,1.04-.12,1.42-.5.32-.32.6-1.07.6-1.91s-.28-1.44-.6-1.77Z"/>
      <path class="cls-7" d="M120.83,20.06c1.05,0,1.43.42,2.22.42.26,0,.36-.1.5-.26.04-.06.1-.09.16-.09.07,0,.1.04.1.16v3.09s-.06.09-.13.09-.13-.03-.13-.09c-.22-1.87-1.09-3.06-2.73-3.06-1.09,0-1.79.7-1.79,1.58,0,1.02.42,1.62,2.45,2.6,2.09,1.01,2.96,1.9,2.96,3.43,0,1.77-1.34,3.17-3.4,3.17-1.27,0-1.75-.53-2.45-.53-.34,0-.57.1-.73.34-.04.07-.1.12-.16.12-.07,0-.1-.04-.1-.16v-3.71s.04-.09.13-.09c.1,0,.13.04.13.09.32,2.33,1.36,3.68,3.15,3.68,1.46,0,2.36-.82,2.36-1.94s-.58-1.78-2.74-2.82c-2-.96-2.64-1.91-2.64-3.31s1.17-2.7,2.85-2.7Z"/>
      <path class="cls-7" d="M21.19,128h4.1c.06,0,.09.01.09.13s-.03.13-.09.13h-1.12c-.22,0-.23.03-.16.25l2.32,6.63c.16.48.34,1.05.44,1.52h.06l1.93-5.75c.72-2.12.6-2.58-.8-2.64-.06,0-.09-.01-.09-.13s.03-.13.09-.13h2.99c.06,0,.09.01.09.13,0,.09-.03.13-.12.13-.82.06-1.12.41-1.9,2.71l-2.6,7.73c-.03.07-.09.12-.16.12h-.38c-.09,0-.12-.03-.15-.12l-3.56-10.2c-.07-.22-.1-.25-.32-.25h-.66c-.06,0-.09-.01-.09-.13s.03-.13.09-.13Z"/>
      <path class="cls-7" d="M39.02,138.72h-4.1c-.06,0-.09-.01-.09-.13s.03-.13.09-.13h1.12c.22,0,.23-.03.16-.25l-1.14-3.27h-3.31l-.29.88c-.71,2.12-.6,2.58.8,2.64.06,0,.09.01.09.13s-.03.13-.09.13h-2.99c-.06,0-.09-.01-.09-.13,0-.09.03-.13.12-.13.82-.06,1.12-.41,1.9-2.71l2.6-7.73c.03-.07.09-.12.16-.12h.38c.09,0,.12.03.15.12l3.56,10.2c.07.22.1.25.32.25h.66c.06,0,.09.01.09.13s-.03.13-.09.13ZM31.82,134.68h3.15l-1.08-3.09c-.16-.48-.34-1.02-.45-1.52h-.06l-1.56,4.61Z"/>
      <path class="cls-7" d="M39.62,138.46h1.02c.22,0,.25-.03.25-.25v-9.7c0-.22-.03-.25-.25-.25h-.98c-.06,0-.09-.01-.09-.13s.03-.13.09-.13h4.63c.06,0,.09.01.09.13s-.03.13-.09.13h-1.36c-.22,0-.25.03-.25.25v9.7c0,.22.03.25.25.25h1.69c2.1,0,2.73-.98,3.09-3.31.01-.07.06-.1.13-.1.06,0,.13.03.13.1v3.31c0,.2-.04.26-.25.26h-8.11c-.06,0-.09-.01-.09-.13s.03-.13.09-.13Z"/>
      <path class="cls-7" d="M49.12,128h4.28c.06,0,.09.01.09.13s-.03.13-.09.13h-1.07c-.22,0-.25.03-.25.25v6.92c0,2.06.96,3.11,2.57,3.11s2.67-1.05,2.67-3.11v-4.64c0-2.03-.18-2.47-1.56-2.52-.06,0-.09-.01-.09-.13s.03-.13.09-.13h3.24c.06,0,.09.01.09.13s-.03.13-.09.13c-1.2.06-1.39.5-1.39,2.52v4.64c0,2.23-1.18,3.47-3.58,3.47-2.23,0-3.75-1.24-3.75-3.47v-6.92c0-.22-.03-.25-.25-.25h-.92c-.06,0-.09-.01-.09-.13s.03-.13.09-.13Z"/>
      <path class="cls-7" d="M59.52,138.46h1.02c.22,0,.25-.03.25-.25v-9.7c0-.22-.03-.25-.25-.25h-.98c-.06,0-.09-.01-.09-.13s.03-.13.09-.13h7.97c.2,0,.25.06.25.26v2.57c0,.06-.03.09-.15.09-.07,0-.1-.03-.12-.1-.26-1.79-1.17-2.55-2.55-2.55h-2.13c-.22,0-.25.03-.25.25v4.33h.63c1.5,0,1.91-.41,2.1-1.72.01-.07.04-.1.12-.1.12,0,.15.03.15.09v3.74c0,.06-.03.09-.15.09-.07,0-.1-.04-.12-.12-.19-1.31-.6-1.71-2.1-1.71h-.63v5.11c0,.22.03.25.25.25h1.96c1.84,0,2.64-.98,2.98-3.22.01-.07.06-.1.13-.1.12,0,.13.03.13.09v3.24c0,.2-.04.26-.25.26h-8.26c-.06,0-.09-.01-.09-.13s.03-.13.09-.13Z"/>
      <path class="cls-7" d="M72.7,127.87c1.05,0,1.43.42,2.22.42.26,0,.36-.1.5-.26.04-.06.1-.09.16-.09.07,0,.1.04.1.16v3.09s-.06.09-.13.09-.13-.03-.13-.09c-.22-1.87-1.09-3.06-2.73-3.06-1.09,0-1.79.7-1.79,1.58,0,1.02.42,1.62,2.45,2.6,2.09,1.01,2.96,1.9,2.96,3.43,0,1.77-1.34,3.17-3.4,3.17-1.27,0-1.75-.53-2.45-.53-.34,0-.57.1-.73.34-.04.07-.1.12-.16.12-.07,0-.1-.04-.1-.16v-3.71s.04-.09.13-.09c.1,0,.13.04.13.09.32,2.33,1.36,3.68,3.15,3.68,1.46,0,2.36-.82,2.36-1.94s-.58-1.78-2.74-2.82c-2-.96-2.64-1.91-2.64-3.31s1.17-2.7,2.85-2.7Z"/>
      <path class="cls-7" d="M81.46,138.46h1.02c.22,0,.25-.03.25-.25v-9.7c0-.22-.03-.25-.25-.25h-.98c-.06,0-.09-.01-.09-.13s.03-.13.09-.13h4.89c3.18,0,5.37,2.17,5.37,5.37s-2.19,5.36-5.22,5.36h-5.08c-.06,0-.09-.01-.09-.13s.03-.13.09-.13ZM88.54,129.08c-.48-.48-1.21-.82-2.15-.82h-1.62c-.22,0-.25.03-.25.25v9.7c0,.22.03.25.25.25h1.77c.85,0,1.5-.29,2-.79.74-.74,1.17-1.96,1.17-4.3s-.42-3.55-1.17-4.29Z"/>
      <path class="cls-7" d="M92.9,138.46h1.02c.22,0,.25-.03.25-.25v-9.7c0-.22-.03-.25-.25-.25h-.98c-.06,0-.09-.01-.09-.13s.03-.13.09-.13h7.97c.2,0,.25.06.25.26v2.57c0,.06-.03.09-.15.09-.07,0-.1-.03-.12-.1-.26-1.79-1.17-2.55-2.55-2.55h-2.13c-.22,0-.25.03-.25.25v4.33h.63c1.5,0,1.91-.41,2.1-1.72.01-.07.04-.1.12-.1.12,0,.15.03.15.09v3.74c0,.06-.03.09-.15.09-.07,0-.1-.04-.12-.12-.19-1.31-.6-1.71-2.1-1.71h-.63v5.11c0,.22.03.25.25.25h1.96c1.84,0,2.64-.98,2.98-3.22.01-.07.06-.1.13-.1.12,0,.13.03.13.09v3.24c0,.2-.04.26-.25.26h-8.26c-.06,0-.09-.01-.09-.13s.03-.13.09-.13Z"/>
      <path class="cls-7" d="M107.53,127.87c1.28,0,1.96.57,2.54.57.26,0,.47-.1.58-.29.07-.12.13-.15.19-.15.07,0,.1.04.1.16v3.15s-.06.09-.13.09-.12-.03-.13-.09c-.34-2.16-1.18-3.18-3.15-3.18-.67,0-1.3.23-1.78.72-.63.63-.95,1.52-.95,4.54s.32,3.91.95,4.54c.48.48,1.11.71,1.78.71,1.75,0,2.98-1.37,3.31-3.68.01-.06.06-.09.13-.09.06,0,.13.03.13.09v3.65c0,.12-.01.16-.1.16s-.12-.03-.19-.15c-.16-.25-.39-.36-.66-.36-.74,0-1.28.64-2.63.64-2.64,0-4.79-2.36-4.79-5.52s2.15-5.52,4.79-5.52Z"/>
      <path class="cls-7" d="M112.5,138.46h1.02c.22,0,.25-.03.25-.25v-9.7c0-.22-.03-.25-.25-.25h-.98c-.06,0-.09-.01-.09-.13s.03-.13.09-.13h4.25c.06,0,.09.01.09.13s-.03.13-.09.13h-.98c-.22,0-.25.03-.25.25v4.32l2.41-2.16c2.55-2.29,2.17-2.35.67-2.41-.06,0-.09-.04-.09-.13,0-.12.03-.13.09-.13h3.6c.06,0,.09.01.09.13,0,.09-.03.13-.12.13-1.02.06-1.26.1-4.06,2.58l-1.33,1.18,4.66,6.19c.18.22.22.25.44.25h.82c.06,0,.09.01.09.13s-.03.13-.09.13h-4.57c-.06,0-.09-.01-.09-.13s.03-.13.09-.13h1.17c.22,0,.25-.03.07-.25l-2.83-3.75c-.23-.31-.9-1.23-.96-1.34h-.06v5.09c0,.22.03.25.25.25h.98c.06,0,.09.01.09.13s-.03.13-.09.13h-4.29c-.06,0-.09-.01-.09-.13s.03-.13.09-.13Z"/>
      <path class="cls-7" d="M30.75,144.02c.58,0,.88.26,1.14.26.12,0,.21-.05.26-.13.03-.05.06-.07.09-.07.03,0,.05.02.05.07v1.42s-.03.04-.06.04-.05-.01-.06-.04c-.15-.97-.53-1.43-1.42-1.43-.3,0-.58.1-.8.32-.28.28-.43.68-.43,2.04s.14,1.76.43,2.04c.22.22.5.32.8.32.79,0,1.34-.62,1.49-1.65,0-.03.03-.04.06-.04.03,0,.06.01.06.04v1.64c0,.05,0,.07-.05.07s-.05-.01-.09-.07c-.07-.11-.18-.16-.3-.16-.33,0-.58.29-1.18.29-1.19,0-2.15-1.06-2.15-2.48s.97-2.48,2.15-2.48Z"/>
      <path class="cls-7" d="M34.47,148.98c-.82,0-1.44-.63-1.44-1.49s.62-1.49,1.44-1.49,1.44.62,1.44,1.49-.62,1.49-1.44,1.49ZM34.03,148.69c.12.12.26.18.44.18s.32-.06.44-.18c.2-.2.3-.56.3-1.19s-.11-1-.3-1.19c-.12-.12-.26-.18-.44-.18s-.32.06-.44.18c-.2.2-.3.56-.3,1.19s.11,1,.3,1.19Z"/>
      <path class="cls-7" d="M37.5,147.33c.25,0,.43.06.57.12v-.64c0-.5-.24-.7-.56-.7s-.49.14-.49.27c0,.15.12.21.12.39,0,.14-.11.26-.27.26s-.28-.16-.28-.35c0-.32.39-.68.92-.68.8,0,1.19.38,1.19,1.04v1.5c0,.21.08.28.21.28.08,0,.18-.03.25-.07.03-.02.09.08.07.1-.15.09-.3.14-.49.14-.29,0-.54-.22-.62-.49h-.03c-.11.31-.38.49-.73.49-.66,0-.96-.37-.96-.82,0-.53.39-.83,1.09-.83ZM37.56,148.84c.26,0,.47-.26.51-.69v-.57c-.11-.07-.28-.14-.45-.14-.32,0-.53.18-.53.72,0,.51.16.68.47.68Z"/>
      <path class="cls-7" d="M41.59,147.12c-.15,0-.25-.11-.25-.24,0-.18.13-.26.13-.43s-.16-.33-.49-.33c-.18,0-.32.06-.44.18-.2.2-.3.56-.3,1.19s.11.97.3,1.16c.12.12.3.18.49.18.39,0,.66-.31.85-.62.02-.03.11.02.1.05-.2.38-.57.72-1.05.72-.77,0-1.39-.63-1.39-1.49s.62-1.49,1.44-1.49c.49,0,.97.33.97.74,0,.23-.2.38-.35.38Z"/>
      <path class="cls-7" d="M42.33,148.78h.34c.1,0,.11-.01.11-.11v-4.48c0-.1-.01-.11-.11-.11h-.28s-.03,0-.03-.06,0-.06.03-.06h.93c.1,0,.11.01.11.11v1.94c0,.16-.02.43-.04.58h.02c.11-.3.37-.59.88-.59.7,0,1.07.37,1.07,1.02v1.65c0,.1.01.11.11.11h.26s.04,0,.04.06-.01.06-.04.06h-1.44s-.04,0-.04-.06.01-.06.04-.06h.31c.1,0,.11-.01.11-.11v-1.71c0-.56-.23-.81-.6-.81-.34,0-.6.3-.68.74v1.79c0,.1.01.11.11.11h.35s.04,0,.04.06-.01.06-.04.06h-1.56s-.04,0-.04-.06.01-.06.04-.06Z"/>
      <path class="cls-7" d="M46,148.78h.35c.1,0,.11-.01.11-.11v-2.36c0-.1-.01-.11-.11-.11h-.28s-.04,0-.04-.06.01-.06.04-.06h.93c.1,0,.11.01.11.11v2.48c0,.1.01.11.11.11h.3s.04,0,.04.06-.01.06-.04.06h-1.52s-.04,0-.04-.06.01-.06.04-.06ZM46.74,144.08c.24,0,.42.2.42.41s-.18.41-.42.41-.41-.19-.41-.41.18-.41.41-.41Z"/>
      <path class="cls-7" d="M47.8,148.78h.35c.1,0,.11-.01.11-.11v-2.36c0-.1-.01-.11-.11-.11h-.27s-.04,0-.04-.06.01-.06.04-.06h.91c.1,0,.11.01.11.11,0,.09-.01.27-.03.4h.02c.11-.3.37-.59.89-.59.66,0,1.03.36,1.03,1.02v1.65c0,.1.01.11.11.11h.27s.04,0,.04.06-.01.06-.04.06h-1.44s-.04,0-.04-.06.01-.06.04-.06h.3c.1,0,.11-.01.11-.11v-1.73c0-.59-.25-.8-.58-.8s-.6.3-.67.75v1.78c0,.1.01.11.11.11h.3s.04,0,.04.06-.01.06-.04.06h-1.52s-.04,0-.04-.06.01-.06.04-.06Z"/>
      <path class="cls-7" d="M52.21,149.03v-.03c-.45-.02-.68-.28-.68-.6,0-.37.28-.63.77-.66v-.02c-.32-.14-.56-.46-.56-.78,0-.5.45-.94,1.12-.94.32,0,.58.1.78.26.08-.28.26-.42.5-.42.28,0,.41.16.41.33s-.14.31-.28.31c-.12,0-.22-.07-.22-.2,0-.14.09-.19.09-.26,0-.04-.05-.07-.09-.07-.15,0-.29.15-.34.38.16.16.26.38.26.61,0,.54-.43.93-1.12.93-.15,0-.3-.05-.43-.05-.42,0-.65.14-.65.37,0,.16.12.26.33.26h1.12c.73,0,1.15.39,1.15.95,0,.73-.68,1.31-1.52,1.31-.89,0-1.35-.37-1.35-.86,0-.39.28-.67.7-.82ZM52.86,150.59c.69,0,1.14-.41,1.14-.91,0-.42-.3-.65-.7-.65h-.83c-.28.08-.47.28-.47.82,0,.48.25.74.87.74ZM52.52,147.63c.09.09.2.13.34.13s.26-.05.34-.13c.13-.13.2-.33.2-.69s-.07-.56-.2-.7c-.09-.09-.2-.13-.34-.13s-.26.05-.34.13c-.13.13-.2.33-.2.7s.07.56.2.69Z"/>
      <path class="cls-7" d="M56.59,148.78h.46c.1,0,.11-.01.11-.11v-4.37c0-.1-.01-.11-.11-.11h-.44s-.04,0-.04-.06.01-.06.04-.06h3.58c.09,0,.11.03.11.12v1.16s-.01.04-.07.04c-.03,0-.05-.01-.05-.05-.12-.81-.53-1.15-1.15-1.15h-.96c-.1,0-.11.01-.11.11v1.95h.28c.68,0,.86-.18.95-.77,0-.03.02-.05.05-.05.05,0,.07.01.07.04v1.68s-.01.04-.07.04c-.03,0-.05-.02-.05-.05-.09-.59-.27-.77-.95-.77h-.28v2.3c0,.1.01.11.11.11h.88c.83,0,1.19-.44,1.34-1.45,0-.03.03-.05.06-.05.05,0,.06.01.06.04v1.46c0,.09-.02.12-.11.12h-3.72s-.04,0-.04-.06.01-.06.04-.06Z"/>
      <path class="cls-7" d="M60.78,146.08h1.47s.04,0,.04.06-.01.06-.05.06h-.35c-.1,0-.1.01-.06.11l.54,1.35c.07.16.17.45.24.66h.03l.41-1.15c.3-.85.24-.95-.22-.97-.03,0-.04-.01-.04-.06,0-.05.01-.06.04-.06h1.03s.04,0,.04.06c0,.05-.01.06-.04.06-.28.03-.35.1-.68,1l-.61,1.67s-.04.05-.07.05h-.23s-.05-.01-.07-.05l-1.02-2.56c-.04-.1-.05-.11-.15-.11h-.24s-.04,0-.04-.06.01-.06.04-.06Z"/>
      <path class="cls-7" d="M65.51,148.98c-.82,0-1.44-.63-1.44-1.49s.62-1.49,1.44-1.49,1.44.62,1.44,1.49-.62,1.49-1.44,1.49ZM65.07,148.69c.12.12.26.18.44.18s.32-.06.44-.18c.2-.2.3-.56.3-1.19s-.11-1-.3-1.19c-.12-.12-.26-.18-.44-.18s-.32.06-.44.18c-.2.2-.3.56-.3,1.19s.11,1,.3,1.19Z"/>
      <path class="cls-7" d="M67.24,148.78h.38c.1,0,.11-.01.11-.11v-4.48c0-.1-.01-.11-.11-.11h-.31s-.04,0-.04-.06.01-.06.04-.06h.96c.1,0,.11.01.11.11v4.6c0,.1.01.11.11.11h.3s.04,0,.04.06-.01.06-.04.06h-1.56s-.04,0-.04-.06.01-.06.04-.06Z"/>
      <path class="cls-7" d="M69.12,146.08h.94c.1,0,.11.01.11.11v1.84c0,.54.22.8.57.8s.55-.3.64-.75v-1.77c0-.1-.01-.11-.11-.11h-.32s-.04,0-.04-.06.01-.06.04-.06h.97c.1,0,.11.01.11.11v2.48c0,.1.01.11.11.11h.27s.04,0,.04.06-.01.06-.04.06h-.89c-.1,0-.11-.02-.11-.11,0-.05,0-.28.01-.42h-.02c-.12.33-.35.61-.84.61-.68,0-1.04-.37-1.04-1.14v-1.54c0-.1-.01-.11-.11-.11h-.29s-.04,0-.04-.06.01-.06.04-.06Z"/>
      <path class="cls-7" d="M72.73,146.08h.4v-.06s0-.05.03-.07c.19-.27.33-.53.46-.81.03-.07.05-.08.09-.08.05,0,.08.01.08.11v.91h.73s.04,0,.04.06-.01.06-.04.06h-.73v2.17c0,.29.1.39.28.39.15,0,.32-.12.46-.39.02-.04.12,0,.11.05-.18.39-.43.57-.75.57-.47,0-.74-.3-.74-.89v-1.9h-.4s-.04,0-.04-.06.01-.06.04-.06Z"/>
      <path class="cls-7" d="M74.95,148.78h.35c.1,0,.11-.01.11-.11v-2.36c0-.1-.01-.11-.11-.11h-.28s-.04,0-.04-.06.01-.06.04-.06h.93c.1,0,.11.01.11.11v2.48c0,.1.01.11.11.11h.3s.04,0,.04.06-.01.06-.04.06h-1.52s-.04,0-.04-.06.01-.06.04-.06ZM75.69,144.08c.24,0,.42.2.42.41s-.18.41-.42.41-.41-.19-.41-.41.18-.41.41-.41Z"/>
      <path class="cls-7" d="M78.32,148.98c-.82,0-1.44-.63-1.44-1.49s.62-1.49,1.44-1.49,1.44.62,1.44,1.49-.62,1.49-1.44,1.49ZM77.88,148.69c.12.12.26.18.44.18s.32-.06.44-.18c.2-.2.3-.56.3-1.19s-.11-1-.3-1.19c-.12-.12-.26-.18-.44-.18s-.32.06-.44.18c-.2.2-.3.56-.3,1.19s.11,1,.3,1.19Z"/>
      <path class="cls-7" d="M80.14,148.78h.35c.1,0,.11-.01.11-.11v-2.36c0-.1-.01-.11-.11-.11h-.27s-.04,0-.04-.06.01-.06.04-.06h.91c.1,0,.11.01.11.11,0,.09-.01.27-.03.4h.02c.11-.3.37-.59.89-.59.66,0,1.03.36,1.03,1.02v1.65c0,.1.01.11.11.11h.27s.04,0,.04.06-.01.06-.04.06h-1.44s-.04,0-.04-.06.01-.06.04-.06h.3c.1,0,.11-.01.11-.11v-1.73c0-.59-.25-.8-.58-.8s-.6.3-.67.75v1.78c0,.1.01.11.11.11h.3s.04,0,.04.06-.01.06-.04.06h-1.52s-.04,0-.04-.06.01-.06.04-.06Z"/>
      <path class="cls-7" d="M85,147.33c.25,0,.43.06.57.12v-.64c0-.5-.24-.7-.56-.7s-.49.14-.49.27c0,.15.12.21.12.39,0,.14-.11.26-.27.26s-.28-.16-.28-.35c0-.32.39-.68.92-.68.8,0,1.19.38,1.19,1.04v1.5c0,.21.08.28.21.28.08,0,.18-.03.25-.07.03-.02.09.08.07.1-.15.09-.3.14-.49.14-.29,0-.54-.22-.62-.49h-.03c-.11.31-.38.49-.73.49-.66,0-.96-.37-.96-.82,0-.53.39-.83,1.09-.83ZM85.06,148.84c.26,0,.47-.26.51-.69v-.57c-.11-.07-.28-.14-.45-.14-.32,0-.53.18-.53.72,0,.51.16.68.47.68Z"/>
      <path class="cls-7" d="M86.92,148.78h.35c.1,0,.11-.01.11-.11v-2.36c0-.1-.01-.11-.11-.11h-.31s-.04,0-.04-.06.01-.06.04-.06h.95c.1,0,.11.01.11.11v.03c0,.07-.01.32-.01.42h.02c.09-.37.37-.64.74-.64.34,0,.56.24.56.51s-.19.42-.37.42c-.16,0-.28-.11-.28-.26,0-.18.11-.24.11-.36,0-.09-.06-.16-.16-.16-.23,0-.51.29-.59.96v1.57c0,.1.01.11.11.11h.39s.04,0,.04.06-.01.06-.04.06h-1.61s-.04,0-.04-.06.01-.06.04-.06Z"/>
      <path class="cls-7" d="M89.45,146.08h1.48s.03,0,.03.06-.01.06-.04.06h-.34c-.1,0-.11.01-.07.11l.54,1.35c.07.16.16.45.24.65h.03l.4-1.14c.3-.85.24-.95-.22-.97-.03,0-.04-.01-.04-.06,0-.05.01-.06.04-.06h1.03s.04,0,.04.06c0,.05-.02.06-.04.06-.28.03-.35.1-.68,1l-1,2.74c-.2.55-.39.73-.71.73s-.51-.23-.51-.51c0-.23.19-.4.36-.4.15,0,.24.09.24.24,0,.18-.2.28-.2.4,0,.07.05.15.14.15.22,0,.37-.13.57-.66l.35-.97h-.15s-.05-.01-.07-.05l-1.02-2.56c-.04-.1-.05-.11-.15-.11h-.26s-.03,0-.03-.06.01-.06.03-.06Z"/>
      <path class="cls-7" d="M96.88,144.02c.58,0,.88.26,1.14.26.12,0,.21-.05.26-.13.03-.05.06-.07.09-.07.03,0,.05.02.05.07v1.42s-.03.04-.06.04-.05-.01-.06-.04c-.15-.97-.53-1.43-1.42-1.43-.3,0-.58.1-.8.32-.28.28-.43.68-.43,2.04s.14,1.76.43,2.04c.22.22.5.32.8.32.79,0,1.34-.62,1.49-1.65,0-.03.03-.04.06-.04.03,0,.06.01.06.04v1.64c0,.05,0,.07-.05.07s-.05-.01-.09-.07c-.07-.11-.18-.16-.3-.16-.33,0-.58.29-1.18.29-1.19,0-2.15-1.06-2.15-2.48s.97-2.48,2.15-2.48Z"/>
      <path class="cls-7" d="M99.09,148.78h.34c.1,0,.11-.01.11-.11v-4.48c0-.1-.01-.11-.11-.11h-.28s-.03,0-.03-.06,0-.06.03-.06h.93c.1,0,.11.01.11.11v1.94c0,.16-.02.43-.04.58h.02c.11-.3.37-.59.88-.59.7,0,1.07.37,1.07,1.02v1.65c0,.1.01.11.11.11h.26s.04,0,.04.06-.01.06-.04.06h-1.44s-.04,0-.04-.06.01-.06.04-.06h.31c.1,0,.11-.01.11-.11v-1.71c0-.56-.23-.81-.6-.81-.34,0-.6.3-.68.74v1.79c0,.1.01.11.11.11h.35s.04,0,.04.06-.01.06-.04.06h-1.56s-.04,0-.04-.06.01-.06.04-.06Z"/>
      <path class="cls-7" d="M103.96,147.33c.25,0,.43.06.57.12v-.64c0-.5-.24-.7-.56-.7s-.49.14-.49.27c0,.15.12.21.12.39,0,.14-.11.26-.27.26s-.28-.16-.28-.35c0-.32.39-.68.92-.68.8,0,1.19.38,1.19,1.04v1.5c0,.21.08.28.21.28.08,0,.18-.03.25-.07.03-.02.09.08.07.1-.15.09-.3.14-.49.14-.29,0-.54-.22-.62-.49h-.03c-.11.31-.38.49-.73.49-.66,0-.96-.37-.96-.82,0-.53.39-.83,1.09-.83ZM104.02,148.84c.26,0,.47-.26.51-.69v-.57c-.11-.07-.28-.14-.45-.14-.32,0-.53.18-.53.72,0,.51.16.68.47.68Z"/>
      <path class="cls-7" d="M105.89,148.78h.35c.1,0,.11-.01.11-.11v-2.36c0-.1-.01-.11-.11-.11h-.27s-.04,0-.04-.06.01-.06.04-.06h.91c.1,0,.11.01.11.11,0,.09-.01.27-.03.4h.02c.11-.3.37-.59.89-.59.66,0,1.03.36,1.03,1.02v1.65c0,.1.01.11.11.11h.27s.04,0,.04.06-.01.06-.04.06h-1.44s-.04,0-.04-.06.01-.06.04-.06h.3c.1,0,.11-.01.11-.11v-1.73c0-.59-.25-.8-.58-.8s-.6.3-.67.75v1.78c0,.1.01.11.11.11h.3s.04,0,.04.06-.01.06-.04.06h-1.52s-.04,0-.04-.06.01-.06.04-.06Z"/>
      <path class="cls-7" d="M110.29,149.03v-.03c-.45-.02-.68-.28-.68-.6,0-.37.28-.63.77-.66v-.02c-.32-.14-.56-.46-.56-.78,0-.5.45-.94,1.12-.94.32,0,.58.1.78.26.08-.28.26-.42.5-.42.28,0,.41.16.41.33s-.14.31-.28.31c-.12,0-.22-.07-.22-.2,0-.14.09-.19.09-.26,0-.04-.05-.07-.09-.07-.15,0-.29.15-.34.38.16.16.26.38.26.61,0,.54-.43.93-1.12.93-.15,0-.3-.05-.43-.05-.42,0-.65.14-.65.37,0,.16.12.26.33.26h1.12c.73,0,1.15.39,1.15.95,0,.73-.68,1.31-1.52,1.31-.89,0-1.35-.37-1.35-.86,0-.39.28-.67.7-.82ZM110.94,150.59c.69,0,1.14-.41,1.14-.91,0-.42-.3-.65-.7-.65h-.83c-.28.08-.47.28-.47.82,0,.48.25.74.87.74ZM110.6,147.63c.09.09.2.13.34.13s.26-.05.34-.13c.13-.13.2-.33.2-.69s-.07-.56-.2-.7c-.09-.09-.2-.13-.34-.13s-.26.05-.34.13c-.13.13-.2.33-.2.7s.07.56.2.69Z"/>
      <path class="cls-7" d="M114.17,146c.75,0,1.17.62,1.17,1.27,0,.09-.03.11-.11.11h-1.75v.12c0,.64.11.97.3,1.16.12.12.3.18.49.18.43,0,.74-.31.93-.62.02-.03.11.02.1.05-.18.38-.6.72-1.12.72-.77,0-1.39-.63-1.39-1.49s.66-1.49,1.39-1.49ZM113.74,146.27c-.21.21-.27.56-.27.99h1.11c.09,0,.12,0,.12-.07,0-.53-.05-.77-.22-.94-.09-.09-.22-.14-.35-.14s-.28.05-.39.16Z"/>
      <path class="cls-7" d="M30.88,156.66h.46c.1,0,.11-.01.11-.11v-4.37c0-.1-.01-.11-.11-.11h-.44s-.04,0-.04-.06.01-.06.04-.06h3.63c.09,0,.11.03.11.12v1.31s-.01.04-.07.04c-.03,0-.05-.02-.05-.05-.18-.94-.54-1.29-1.17-1.29h-.98c-.1,0-.11.01-.11.11v2h.41c.68,0,.85-.18.94-.77,0-.03.02-.05.05-.05.05,0,.07.01.07.04v1.68s-.01.04-.07.04c-.03,0-.05-.02-.05-.05-.09-.59-.26-.77-.94-.77h-.41v2.25c0,.1.01.11.11.11h.6s.04,0,.04.06-.01.06-.04.06h-2.09s-.04,0-.04-.06.01-.06.04-.06Z"/>
      <path class="cls-7" d="M36.12,156.86c-.82,0-1.44-.63-1.44-1.49s.62-1.49,1.44-1.49,1.44.62,1.44,1.49-.62,1.49-1.44,1.49ZM35.68,156.56c.12.12.26.18.44.18s.32-.06.44-.18c.2-.2.3-.56.3-1.19s-.11-1-.3-1.19c-.12-.12-.26-.18-.44-.18s-.32.06-.44.18c-.2.2-.3.56-.3,1.19s.11,1,.3,1.19Z"/>
      <path class="cls-7" d="M37.95,156.66h.35c.1,0,.11-.01.11-.11v-2.36c0-.1-.01-.11-.11-.11h-.31s-.04,0-.04-.06.01-.06.04-.06h.95c.1,0,.11.01.11.11v.03c0,.07-.01.32-.01.42h.02c.09-.37.37-.64.74-.64.34,0,.56.24.56.51s-.19.42-.37.42c-.16,0-.28-.11-.28-.26,0-.18.11-.24.11-.36,0-.09-.06-.16-.16-.16-.23,0-.51.29-.59.96v1.57c0,.1.01.11.11.11h.39s.04,0,.04.06-.01.06-.04.06h-1.61s-.04,0-.04-.06.01-.06.04-.06Z"/>
      <path class="cls-7" d="M42.47,156.66h.46c.1,0,.11-.01.11-.11v-4.37c0-.1-.01-.11-.11-.11h-.44s-.04,0-.04-.06.01-.06.04-.06h1.91s.04,0,.04.06-.01.06-.04.06h-.44c-.1,0-.11.01-.11.11v1.89h1.83v-1.89c0-.1-.01-.11-.11-.11h-.44s-.04,0-.04-.06.01-.06.04-.06h1.91s.04,0,.04.06-.01.06-.04.06h-.44c-.1,0-.11.01-.11.11v4.37c0,.1.01.11.11.11h.46s.04,0,.04.06-.01.06-.04.06h-1.95s-.04,0-.04-.06.01-.06.04-.06h.46c.1,0,.11-.01.11-.11v-2.36h-1.83v2.36c0,.1.01.11.11.11h.46s.04,0,.04.06-.01.06-.04.06h-1.95s-.04,0-.04-.06.01-.06.04-.06Z"/>
      <path class="cls-7" d="M47.4,156.66h.35c.1,0,.11-.01.11-.11v-2.36c0-.1-.01-.11-.11-.11h-.28s-.04,0-.04-.06.01-.06.04-.06h.93c.1,0,.11.01.11.11v2.48c0,.1.01.11.11.11h.3s.04,0,.04.06-.01.06-.04.06h-1.52s-.04,0-.04-.06.01-.06.04-.06ZM48.14,151.96c.24,0,.42.2.42.41s-.18.41-.42.41-.41-.19-.41-.41.18-.41.41-.41Z"/>
      <path class="cls-7" d="M49.95,156.91v-.03c-.45-.02-.68-.28-.68-.6,0-.37.28-.63.77-.66v-.02c-.32-.14-.56-.46-.56-.78,0-.5.45-.94,1.12-.94.32,0,.58.1.78.26.08-.28.26-.42.5-.42.28,0,.41.16.41.33s-.14.32-.28.32c-.12,0-.22-.07-.22-.2,0-.14.09-.19.09-.26,0-.04-.05-.07-.09-.07-.15,0-.29.15-.34.38.16.16.26.38.26.61,0,.54-.43.93-1.12.93-.15,0-.3-.05-.43-.05-.42,0-.65.14-.65.37,0,.16.12.26.33.26h1.12c.73,0,1.15.39,1.15.95,0,.73-.68,1.31-1.52,1.31-.89,0-1.35-.37-1.35-.86,0-.39.28-.67.7-.82ZM50.6,158.47c.69,0,1.14-.41,1.14-.91,0-.42-.3-.65-.7-.65h-.83c-.28.08-.47.28-.47.82,0,.48.25.74.87.74ZM50.26,155.51c.09.09.2.13.34.13s.26-.05.34-.13c.13-.13.2-.33.2-.69s-.07-.56-.2-.7c-.09-.09-.2-.13-.34-.13s-.26.05-.34.13c-.13.13-.2.33-.2.7s.07.56.2.69Z"/>
      <path class="cls-7" d="M52.47,156.66h.34c.1,0,.11-.01.11-.11v-4.48c0-.1-.01-.11-.11-.11h-.28s-.03,0-.03-.06,0-.06.03-.06h.93c.1,0,.11.01.11.11v1.94c0,.16-.02.43-.04.58h.02c.11-.3.37-.59.88-.59.7,0,1.07.37,1.07,1.02v1.65c0,.1.01.11.11.11h.26s.04,0,.04.06-.01.06-.04.06h-1.44s-.04,0-.04-.06.01-.06.04-.06h.31c.1,0,.11-.01.11-.11v-1.71c0-.56-.23-.81-.6-.81-.34,0-.6.3-.68.74v1.79c0,.1.01.11.11.11h.35s.04,0,.04.06-.01.06-.04.06h-1.56s-.04,0-.04-.06.01-.06.04-.06Z"/>
      <path class="cls-7" d="M56.16,156.66h.38c.1,0,.11-.01.11-.11v-4.48c0-.1-.01-.11-.11-.11h-.31s-.04,0-.04-.06.01-.06.04-.06h.96c.1,0,.11.01.11.11v4.6c0,.1.01.11.11.11h.3s.04,0,.04.06-.01.06-.04.06h-1.56s-.04,0-.04-.06.01-.06.04-.06Z"/>
      <path class="cls-7" d="M57.82,153.96h1.48s.03,0,.03.06-.01.06-.04.06h-.34c-.1,0-.11.01-.07.11l.54,1.35c.07.16.16.45.24.65h.03l.4-1.14c.3-.85.24-.95-.22-.97-.03,0-.04-.01-.04-.06,0-.05.01-.06.04-.06h1.03s.04,0,.04.06c0,.05-.02.06-.04.06-.28.03-.35.1-.68,1l-1,2.74c-.2.55-.39.73-.71.73s-.51-.23-.51-.51c0-.23.19-.4.36-.4.15,0,.24.09.24.24,0,.18-.2.28-.2.4,0,.07.05.15.14.15.22,0,.37-.13.57-.66l.35-.97h-.15s-.05-.01-.07-.05l-1.02-2.56c-.04-.1-.05-.11-.15-.11h-.26s-.03,0-.03-.06.01-.06.03-.06Z"/>
      <path class="cls-7" d="M64.6,151.9c.47,0,.64.19,1,.19.12,0,.16-.05.22-.12.02-.03.05-.04.07-.04.03,0,.05.02.05.07v1.39s-.03.04-.06.04-.06-.01-.06-.04c-.1-.84-.49-1.38-1.23-1.38-.49,0-.81.31-.81.71,0,.46.19.73,1.1,1.17.94.45,1.33.85,1.33,1.54,0,.79-.6,1.42-1.53,1.42-.57,0-.79-.24-1.1-.24-.15,0-.26.05-.33.15-.02.03-.05.05-.07.05-.03,0-.05-.02-.05-.07v-1.67s.02-.04.06-.04c.05,0,.06.02.06.04.14,1.05.61,1.65,1.42,1.65.66,0,1.06-.37,1.06-.87s-.26-.8-1.23-1.27c-.9-.43-1.19-.86-1.19-1.49s.53-1.21,1.28-1.21Z"/>
      <path class="cls-7" d="M68.14,153.88c.75,0,1.17.62,1.17,1.27,0,.09-.03.11-.11.11h-1.75v.12c0,.64.11.97.3,1.16.12.12.3.18.49.18.43,0,.74-.31.93-.62.02-.03.11.02.1.05-.18.38-.6.72-1.12.72-.77,0-1.39-.63-1.39-1.49s.66-1.49,1.39-1.49ZM67.71,154.15c-.21.21-.27.56-.27.99h1.11c.09,0,.12,0,.12-.07,0-.53-.05-.77-.22-.94-.09-.09-.22-.14-.35-.14s-.28.05-.39.16Z"/>
      <path class="cls-7" d="M69.68,156.66h.35c.1,0,.11-.01.11-.11v-2.36c0-.1-.01-.11-.11-.11h-.27s-.04,0-.04-.06.01-.06.04-.06h.91c.1,0,.11.01.11.11,0,.09-.01.27-.03.4h.02c.11-.3.37-.59.89-.59.66,0,1.03.36,1.03,1.02v1.65c0,.1.01.11.11.11h.27s.04,0,.04.06-.01.06-.04.06h-1.44s-.04,0-.04-.06.01-.06.04-.06h.3c.1,0,.11-.01.11-.11v-1.73c0-.59-.25-.8-.58-.8s-.6.3-.67.75v1.78c0,.1.01.11.11.11h.3s.04,0,.04.06-.01.06-.04.06h-1.52s-.04,0-.04-.06.01-.06.04-.06Z"/>
      <path class="cls-7" d="M74.46,153.88c.35,0,.5.16.62.16.07,0,.09-.03.14-.09.02-.03.04-.04.07-.04s.05.02.05.05v.74s-.03.04-.06.04-.05-.01-.06-.04c-.12-.49-.34-.71-.75-.71-.3,0-.47.18-.47.44,0,.21.14.42.66.59.64.21.9.53.9.93,0,.53-.37.9-1.04.9-.42,0-.56-.18-.77-.18-.07,0-.11.03-.17.11-.02.03-.04.04-.07.04s-.05-.02-.05-.05v-1.02s.02-.04.06-.04c.05,0,.05.02.06.04.13.64.43.99.94.99.39,0,.62-.21.62-.52s-.18-.5-.68-.66c-.6-.2-.87-.47-.87-.91,0-.49.41-.77.89-.77Z"/>
      <path class="cls-7" d="M75.9,156.66h.35c.1,0,.11-.01.11-.11v-2.36c0-.1-.01-.11-.11-.11h-.28s-.04,0-.04-.06.01-.06.04-.06h.93c.1,0,.11.01.11.11v2.48c0,.1.01.11.11.11h.3s.04,0,.04.06-.01.06-.04.06h-1.52s-.04,0-.04-.06.01-.06.04-.06ZM76.65,151.96c.24,0,.42.2.42.41s-.18.41-.42.41-.41-.19-.41-.41.18-.41.41-.41Z"/>
      <path class="cls-7" d="M77.7,153.96h.4v-.06s0-.05.03-.07c.19-.27.33-.53.46-.81.03-.07.05-.08.09-.08.05,0,.08.01.08.11v.91h.73s.04,0,.04.06-.01.06-.04.06h-.73v2.17c0,.29.1.39.28.39.15,0,.32-.12.46-.39.02-.04.12,0,.11.05-.18.39-.43.57-.75.57-.47,0-.74-.3-.74-.89v-1.9h-.4s-.04,0-.04-.06.01-.06.04-.06Z"/>
      <path class="cls-7" d="M79.92,156.66h.35c.1,0,.11-.01.11-.11v-2.36c0-.1-.01-.11-.11-.11h-.28s-.04,0-.04-.06.01-.06.04-.06h.93c.1,0,.11.01.11.11v2.48c0,.1.01.11.11.11h.3s.04,0,.04.06-.01.06-.04.06h-1.52s-.04,0-.04-.06.01-.06.04-.06ZM80.67,151.96c.24,0,.42.2.42.41s-.18.41-.42.41-.41-.19-.41-.41.18-.41.41-.41Z"/>
      <path class="cls-7" d="M81.66,153.96h1.47s.04,0,.04.06-.01.06-.05.06h-.35c-.1,0-.1.01-.06.11l.54,1.35c.07.16.17.45.24.66h.03l.41-1.15c.3-.85.24-.95-.22-.97-.03,0-.04-.01-.04-.06,0-.05.01-.06.04-.06h1.03s.04,0,.04.06c0,.05-.01.06-.04.06-.28.03-.35.1-.68,1l-.61,1.67s-.04.05-.07.05h-.23s-.05-.01-.07-.05l-1.02-2.56c-.04-.1-.05-.11-.15-.11h-.24s-.04,0-.04-.06.01-.06.04-.06Z"/>
      <path class="cls-7" d="M86.33,153.88c.75,0,1.17.62,1.17,1.27,0,.09-.03.11-.11.11h-1.75v.12c0,.64.11.97.3,1.16.12.12.3.18.49.18.43,0,.74-.31.93-.62.02-.03.11.02.1.05-.18.38-.6.72-1.12.72-.77,0-1.39-.63-1.39-1.49s.66-1.49,1.39-1.49ZM85.91,154.15c-.21.21-.27.56-.27.99h1.11c.09,0,.12,0,.12-.07,0-.53-.05-.77-.22-.94-.09-.09-.22-.14-.35-.14s-.28.05-.39.16Z"/>
      <path class="cls-7" d="M91.76,154.67c-.16,0-.39-.02-.59-.06v1.94c0,.1.01.11.11.11h.51s.04,0,.04.06-.01.06-.04.06h-2s-.04,0-.04-.06.01-.06.04-.06h.46c.1,0,.11-.01.11-.11v-4.37c0-.1-.01-.11-.11-.11h-.44s-.04,0-.04-.06.01-.06.04-.06h1.98c1.2,0,1.77.63,1.77,1.36,0,.78-.64,1.36-1.8,1.36ZM92.41,152.3c-.15-.15-.33-.22-.62-.22h-.51c-.1,0-.11.01-.11.11v2.31c.18.04.43.06.59.06.3,0,.5-.07.62-.19.19-.19.32-.48.32-1.05,0-.54-.1-.83-.28-1.02Z"/>
      <path class="cls-7" d="M95.17,153.88c.75,0,1.17.62,1.17,1.27,0,.09-.03.11-.11.11h-1.75v.12c0,.64.11.97.3,1.16.12.12.3.18.49.18.43,0,.74-.31.93-.62.02-.03.11.02.1.05-.18.38-.6.72-1.12.72-.77,0-1.39-.63-1.39-1.49s.66-1.49,1.39-1.49ZM94.74,154.15c-.21.21-.27.56-.27.99h1.11c.09,0,.12,0,.12-.07,0-.53-.05-.77-.22-.94-.09-.09-.22-.14-.35-.14s-.28.05-.39.16Z"/>
      <path class="cls-7" d="M96.71,156.66h.35c.1,0,.11-.01.11-.11v-2.36c0-.1-.01-.11-.11-.11h-.31s-.04,0-.04-.06.01-.06.04-.06h.95c.1,0,.11.01.11.11v.03c0,.07-.01.32-.01.42h.02c.09-.37.37-.64.74-.64.34,0,.56.24.56.51s-.19.42-.37.42c-.16,0-.28-.11-.28-.26,0-.18.11-.24.11-.36,0-.09-.06-.16-.16-.16-.23,0-.51.29-.59.96v1.57c0,.1.01.11.11.11h.39s.04,0,.04.06-.01.06-.04.06h-1.61s-.04,0-.04-.06.01-.06.04-.06Z"/>
      <path class="cls-7" d="M100.43,153.88c.35,0,.5.16.62.16.07,0,.09-.03.14-.09.02-.03.04-.04.07-.04s.05.02.05.05v.74s-.03.04-.06.04-.05-.01-.06-.04c-.12-.49-.34-.71-.75-.71-.3,0-.47.18-.47.44,0,.21.14.42.66.59.64.21.9.53.9.93,0,.53-.37.9-1.04.9-.42,0-.56-.18-.77-.18-.07,0-.11.03-.17.11-.02.03-.04.04-.07.04s-.05-.02-.05-.05v-1.02s.02-.04.06-.04c.05,0,.05.02.06.04.13.64.43.99.94.99.39,0,.62-.21.62-.52s-.18-.5-.68-.66c-.6-.2-.87-.47-.87-.91,0-.49.41-.77.89-.77Z"/>
      <path class="cls-7" d="M103.44,156.86c-.82,0-1.44-.63-1.44-1.49s.62-1.49,1.44-1.49,1.44.62,1.44,1.49-.62,1.49-1.44,1.49ZM103,156.56c.12.12.26.18.44.18s.32-.06.44-.18c.2-.2.3-.56.3-1.19s-.11-1-.3-1.19c-.12-.12-.26-.18-.44-.18s-.32.06-.44.18c-.2.2-.3.56-.3,1.19s.11,1,.3,1.19Z"/>
      <path class="cls-7" d="M105.27,156.66h.35c.1,0,.11-.01.11-.11v-2.36c0-.1-.01-.11-.11-.11h-.27s-.04,0-.04-.06.01-.06.04-.06h.91c.1,0,.11.01.11.11,0,.09-.01.27-.03.4h.02c.11-.3.37-.59.89-.59.66,0,1.03.36,1.03,1.02v1.65c0,.1.01.11.11.11h.27s.04,0,.04.06-.01.06-.04.06h-1.44s-.04,0-.04-.06.01-.06.04-.06h.3c.1,0,.11-.01.11-.11v-1.73c0-.59-.25-.8-.58-.8s-.6.3-.67.75v1.78c0,.1.01.11.11.11h.3s.04,0,.04.06-.01.06-.04.06h-1.52s-.04,0-.04-.06.01-.06.04-.06Z"/>
      <path class="cls-7" d="M110.05,153.88c.35,0,.5.16.62.16.07,0,.09-.03.14-.09.02-.03.04-.04.07-.04s.05.02.05.05v.74s-.03.04-.06.04-.05-.01-.06-.04c-.12-.49-.34-.71-.75-.71-.3,0-.47.18-.47.44,0,.21.14.42.66.59.64.21.9.53.9.93,0,.53-.37.9-1.04.9-.42,0-.56-.18-.77-.18-.07,0-.11.03-.17.11-.02.03-.04.04-.07.04s-.05-.02-.05-.05v-1.02s.02-.04.06-.04c.05,0,.05.02.06.04.13.64.43.99.94.99.39,0,.62-.21.62-.52s-.18-.5-.68-.66c-.6-.2-.87-.47-.87-.91,0-.49.41-.77.89-.77Z"/>
      <path class="cls-4" d="M72.17,78.7c.17.12.33.25.47.38-.35.23-.73.43-1.12.62-.11-.06-.18-.14-.23-.24.29-.28.59-.53.89-.75h0Z"/>
      <path class="cls-6" d="M37.97,99.87c-13.92-13-16.23-28.15-7.67-34.27.38-.36.98-.36,1.31.05,2.2,2.83,3.38,11.24,3.49,11.59l.28.34c.12-1.88-.06-3.79-.58-5.73l-2.23-6.26-.09-.46c1.01-.42,2.17-.19,2.93.6,2.9,3.01,6.08,7.95,6.73,13.32.07.61.04,1.24-.11,1.84-4.41,14.18-4.05,18.98-4.05,18.98Z"/>
      <path class="cls-5" d="M30.8,55.3c3.66-3.06,6.21-5.95,7.29-11.29.04-.18.27-.2.34-.04,1.93,4.17,1.85,7.89-.19,11.72-.04.07-.09.15-.13.24-.74,1.28-1.23,1.82-2.91,3.26-2.81,2.41-6.14,3.82-8.3,5.82-1.63,1.47-3.01,3.49-3.93,6.03-.12.33-.59.29-.66-.05-2.42-13.56,3.26-22.14,14.97-27.73.17-.08.36.07.33.26-1.12,5.32-3.41,7.73-6.95,11.85"/>
      <path class="cls-8" d="M43.01,41.35c5.32.56,10.48,1.27,14.08,3.48.39.31.28.53-.18.42,0,0-12.74-3.67-17.29-2.32l6.05,6.97c2.71,2.88,6.32,4.83,10.26,5.27.24.03,2.55.23,2.79.23,10.05.12,11.23-.31,16.17,2.86-3.52-14.01-13.96-19.97-32.09-16.95"/>
      <path class="cls-6" d="M102.61,40.7c-13.85-1.05-24.45,4.47-27.7,11.08-.36.8-.09,1.01,1.07.39l6.47-4.13c.43-.28.69-.39.39.09-2.04,1.38-4.23,3.04-5.92,4.71-.42.3-.44.88,0,1.18,2.62,2.09,8.16,1.88,12.39.29,1.42-.71,2.65-1.44,3.66-2.17,1.61-1.21,2.01-1.46,3.24-4.88,1.05-2.91,3.68-4.19,6.41-6.56h0Z"/>
      <path class="cls-8" d="M104.36,40.97c3.7,3.33,7.94,8.47,9.86,12.83.04.1-.09.18-.16.09-3.21-4.46-6.9-8.73-10.4-11.18-1.26,3.31-2.2,8.67-.85,12.78,1.44,4.41,3.12,6.98,6.99,9.54,5.08,3.36,9.57,12.75,8.27,17.26,8.73-17.74,3.16-36.78-13.72-41.34"/>
      <path class="cls-6" d="M111.82,77.99c1.75,3.17,2.66,6.73,2.84,10.6.01.32.46.41.6.12,3.71-7.79,2.17-14.1-4.57-19.19-3.1-2.34-5.81-5.11-8.34-8.42,1.82,4.11,1.85,8.64,1.31,12.19-.66,4.41.28,8.95,2.9,12.56,1.49,2.05,3.33,3.64,5.52,4.79.49.26,1.08-.09,1.11-.64.2-3.88-.38-7.86-1.61-11.91-.04-.14.16-.23.23-.09h0Z"/>
      <path class="cls-8" d="M88.6,98.2c4.02.17,7.8.63,11.21,1.52.71.18,1.43.31,2.15.31,3.53-.06,6.26-1.76,9.24-5.39.31-.38.01-.98-.47-1.07-1.48-.3-4.89-.2-9.7.2,3.93-.76,6.68-1.36,9.81-.7.51-.04.8-.65.46-1.04h0c-4.6-4.79-9.5-5.84-14.85-1.71-.59.46-1.12,1.01-1.55,1.62-2.12,2.95-4.24,4.77-6.35,5.98-.14.08-.09.28.07.29h0Z"/>
      <path class="cls-6" d="M89.52,108.56c-.47.41-.66.2-.42-.23,2.74-2.76,5.83-5.13,10.32-5.9.48-.08.38-.53-.01-.78-.14-.09-.74-.41-1.17-.41-7.09,0-13.8,1.09-14.34,8.3-.36,4.76-3.2,8.59-5.44,11.48,5.83-1.79,11.26-4.37,15.95-8.36.42-.35.85-.68,1.28-1.01,1.79-1.38,3.53-4.84,5.36-8.44.12-1.48-3.06-.31-8.74,2.9-.78.44-1.51.97-2.13,1.61-.27.28-.51.57-.7.87"/>
      <path class="cls-1" d="M64.22,100.08c-.66,1.96-1.69,3.8-3.13,5.52-.1.12-.31.04-.29-.12,1.26-6.01,2.05-11.52,1.88-15.98-.04-1.1-.58-2.13-1.5-2.76-3.42-2.33-7.45-4.25-11.67-6.04-.2-.08-.16-.37.05-.4,6.25-.41,11.55.56,14.63-.93,1.04-.5,1.85-1.07,2.66-1.37.6-.23.9-.89.66-1.48-.23-1.66-1.11-3.58-2.3-5.65-9.84-3.4-18.01-7.57-27.4-9.49-.35-.09-.39-.57-.05-.7,4.38-1.77,9.9-2.25,17.25-.66,2.48.75,6.04.91,10.08.82,2.87-.3,6.31.09,10,.81,2.82.66,5.38,2.84,7.51,5.54.4.51,1.16.55,1.61.07,1.88-2.02,4.09-2.64,7.94-1.26.12.04.26.06.39.04l3.38-.61-.83,2.01c-.04.12-.09.23-.12.35l-.58,2.42c-.04.18-.12.34-.23.49-2.11,1.48-1.07,3.44-4.65,5.23-.8.54-1.07,1.49-.8,2.86,1.51,5.39,1.05,10.02-1.32,13.91-3.22,6.36-6.81,8.56-10.49,15.46-2.95,4.62-6.46,7.88-10.28,10.38-.52.34-1.15-.21-.88-.77,1.47-2.98,3.35-6.25,4.22-10.21,1.23-5.57,3.31-11.03,5.5-16.8.1-.27.04-.58-.17-.77l-1.1-1.58c-.48-.48-1.36-.76-1.82-.26-.89.97-2.34,2.74-4.74,4.33-1.47,1.84-2.58,4.49-3.22,7.19-.04.15-.09.29-.17.42l.02-.03Z"/>
      <path class="cls-2" d="M93.6,68.77l.2.32c-.85,3.13-2.44,5.43-4.93,6.7-.17.09-.36-.04-.36-.23.02-.94.14-1.82.74-2.3,1.68-1.36,1.22-1.15,1.42-1.18,1.17-.19,2.11-.43,2.1-2.29,0-.1.04-.21.11-.28l.73-.74h0Z"/>
    </g>
  </g>
</svg>