<?xml version="1.0" encoding="UTF-8"?>
<svg id="Layer_2" data-name="Layer 2" xmlns="http://www.w3.org/2000/svg" viewBox="0 0 330.26 450.79">
  <defs>
    <style>
      .cls-1 {
        fill: #190808;
      }

      .cls-2 {
        fill: #a24035;
      }

      .cls-3 {
        fill: #fffadf;
      }

      .cls-4 {
        fill: #fff;
      }

      .cls-5 {
        fill: #60632a;
      }

      .cls-6 {
        fill: #a79f43;
      }

      .cls-7 {
        fill: #44491e;
      }

      .cls-8 {
        fill: #4e491d;
      }
    </style>
  </defs>
  <g id="Layer_2-2" data-name="Layer 2">
    <g>
      <rect class="cls-3" width="330.26" height="450.79"/>
      <path class="cls-7" d="M44.93,70.33h2.34c.5,0,.57-.07.57-.57v-22.27c0-.5-.07-.57-.57-.57h-2.24c-.13,0-.2-.03-.2-.3s.07-.3.2-.3h10.61c.13,0,.2.03.2.3s-.07.3-.2.3h-3.11c-.5,0-.57.07-.57.57v22.27c0,.5.07.57.57.57h3.88c4.82,0,6.26-2.24,7.1-7.6.03-.17.13-.23.3-.23.13,0,.3.07.3.23v7.6c0,.47-.1.6-.57.6h-18.62c-.13,0-.2-.03-.2-.3s.07-.3.2-.3Z"/>
      <path class="cls-7" d="M63.25,46.32h9.44c.13,0,.2.03.2.3s-.07.3-.2.3h-2.48c-.5,0-.54.07-.27.57l4.32,7.67c.7,1.27,1.51,2.75,2.24,4.25h.13l3.45-6.46c2.58-4.82,2.78-5.89-.94-6.03-.13,0-.2-.07-.2-.3,0-.27.07-.3.2-.3h6.8c.13,0,.2.03.2.3,0,.2-.07.3-.27.3-1.71.13-2.34.84-5.22,6.23l-3.78,7.06v9.54c0,.5.07.57.57.57h2.44c.13,0,.2.03.2.3s-.07.3-.2.3h-10.15c-.13,0-.2-.03-.2-.3s.07-.3.2-.3h2.44c.5,0,.57-.07.57-.57v-9.54l-7.23-12.72c-.27-.5-.33-.57-.84-.57h-1.44c-.13,0-.2-.03-.2-.3s.07-.3.2-.3Z"/>
      <path class="cls-7" d="M86.82,70.33c2.75-.13,3.18-1.14,3.18-5.79v-17.04c0-.5-.07-.57-.57-.57h-2.31c-.13,0-.2-.03-.2-.3s.07-.3.2-.3h7c.3,0,.47.13.67.44l10.98,17.58h.13v-11.62c0-4.65-.4-5.66-3.75-5.79-.13,0-.2-.1-.2-.3,0-.27.07-.3.2-.3h7.6c.13,0,.2.03.2.3,0,.2-.07.3-.2.3-2.75.13-3.18,1.14-3.18,5.79v17.71c0,.27-.03.5-.37.5h-1c-.3,0-.47-.17-.6-.4l-13.8-22.2h-.13v16.21c0,4.65.4,5.66,4.12,5.79.13,0,.2.1.2.3,0,.27-.07.3-.2.3h-7.97c-.13,0-.2-.03-.2-.3,0-.2.07-.3.2-.3Z"/>
      <path class="cls-7" d="M110.89,70.33c2.75-.13,3.18-1.14,3.18-5.79v-17.04c0-.5-.07-.57-.57-.57h-2.31c-.13,0-.2-.03-.2-.3s.07-.3.2-.3h7c.3,0,.47.13.67.44l10.98,17.58h.13v-11.62c0-4.65-.4-5.66-3.75-5.79-.13,0-.2-.1-.2-.3,0-.27.07-.3.2-.3h7.6c.13,0,.2.03.2.3,0,.2-.07.3-.2.3-2.75.13-3.18,1.14-3.18,5.79v17.71c0,.27-.03.5-.37.5h-1c-.3,0-.47-.17-.6-.4l-13.8-22.2h-.13v16.21c0,4.65.4,5.66,4.12,5.79.13,0,.2.1.2.3,0,.27-.07.3-.2.3h-7.97c-.13,0-.2-.03-.2-.3,0-.2.07-.3.2-.3Z"/>
      <path class="cls-7" d="M144.84,70.33h2.34c.5,0,.57-.07.57-.57v-22.27c0-.5-.07-.57-.57-.57h-2.24c-.13,0-.2-.03-.2-.3s.07-.3.2-.3h11.22c7.3,0,12.32,4.99,12.32,12.32s-5.02,12.29-11.99,12.29h-11.65c-.13,0-.2-.03-.2-.3s.07-.3.2-.3ZM161.08,48.8c-1.11-1.1-2.78-1.88-4.92-1.88h-3.72c-.5,0-.57.07-.57.57v22.27c0,.5.07.57.57.57h4.05c1.94,0,3.45-.67,4.59-1.81,1.71-1.71,2.68-4.49,2.68-9.88s-.97-8.14-2.68-9.84Z"/>
      <path class="cls-7" d="M171.09,70.33h2.34c.5,0,.57-.07.57-.57v-22.27c0-.5-.07-.57-.57-.57h-2.24c-.13,0-.2-.03-.2-.3s.07-.3.2-.3h18.28c.47,0,.57.13.57.6v5.89c0,.13-.07.2-.33.2-.17,0-.23-.07-.27-.23-.6-4.12-2.68-5.86-5.86-5.86h-4.89c-.5,0-.57.07-.57.57v9.94h1.44c3.45,0,4.39-.94,4.82-3.95.03-.17.1-.23.27-.23.27,0,.33.07.33.2v8.57c0,.13-.07.2-.33.2-.17,0-.23-.1-.27-.27-.44-3.01-1.37-3.92-4.82-3.92h-1.44v11.72c0,.5.07.57.57.57h4.49c4.22,0,6.06-2.24,6.83-7.4.03-.17.13-.23.3-.23.27,0,.3.07.3.2v7.43c0,.47-.1.6-.57.6h-18.95c-.13,0-.2-.03-.2-.3s.07-.3.2-.3Z"/>
      <path class="cls-7" d="M192.68,70.33c2.75-.13,3.18-1.14,3.18-5.79v-17.04c0-.5-.07-.57-.57-.57h-2.31c-.13,0-.2-.03-.2-.3s.07-.3.2-.3h6.76c.3,0,.57.13.67.44l5.42,15.84c.5,1.44.87,2.65,1,3.35h.13l6.56-19.19c.1-.3.27-.44.7-.44h6.53c.13,0,.2.03.2.3s-.07.3-.2.3h-2.18c-.5,0-.57.07-.57.57v22.27c0,.5.07.57.57.57h2.51c.13,0,.2.03.2.3s-.07.3-.2.3h-10.31c-.13,0-.2-.03-.2-.3s.07-.3.2-.3h2.54c.5,0,.57-.07.57-.57v-21.56h-.17l-7.7,22.33c-.07.27-.2.4-.54.4h-.54c-.3,0-.47-.1-.57-.4l-7.73-22.43h-.13v16.44c0,4.65.4,5.66,3.78,5.79.13,0,.2.1.2.3,0,.27-.07.3-.2.3h-7.63c-.13,0-.2-.03-.2-.3,0-.2.07-.3.2-.3Z"/>
      <path class="cls-7" d="M223.08,70.33h2.34c.5,0,.57-.07.57-.57v-22.27c0-.5-.07-.57-.57-.57h-2.24c-.13,0-.2-.03-.2-.3s.07-.3.2-.3h18.28c.47,0,.57.13.57.6v5.89c0,.13-.07.2-.33.2-.17,0-.23-.07-.27-.23-.6-4.12-2.68-5.86-5.86-5.86h-4.89c-.5,0-.57.07-.57.57v9.94h1.44c3.45,0,4.39-.94,4.82-3.95.03-.17.1-.23.27-.23.27,0,.33.07.33.2v8.57c0,.13-.07.2-.33.2-.17,0-.23-.1-.27-.27-.44-3.01-1.37-3.92-4.82-3.92h-1.44v11.72c0,.5.07.57.57.57h4.49c4.22,0,6.06-2.24,6.83-7.4.03-.17.13-.23.3-.23.27,0,.3.07.3.2v7.43c0,.47-.1.6-.57.6h-18.95c-.13,0-.2-.03-.2-.3s.07-.3.2-.3Z"/>
      <path class="cls-7" d="M257.17,57.81v.13c4.45.54,6.86,2.14,6.86,6.43v3.98c0,1.37.57,2.04,1.61,2.04.5,0,1.17-.27,1.64-.54.13-.07.44.3.3.44-.7.6-1.77,1.04-3.15,1.04-2.75,0-4.52-1.44-4.52-4.05v-5.02c0-2.78-2.14-4.05-4.69-4.05h-3.01v11.55c0,.5.07.57.57.57h2.08c.13,0,.2.03.2.3s-.07.3-.2.3h-9.68c-.13,0-.2-.03-.2-.3s.07-.3.2-.3h2.34c.5,0,.57-.07.57-.57v-22.27c0-.5-.07-.57-.57-.57h-2.24c-.13,0-.2-.03-.2-.3s.07-.3.2-.3h9.71c5.63,0,8.4,2.31,8.4,5.76,0,3.11-2.41,5.22-6.23,5.73ZM257.77,48.03c-.7-.7-1.51-1.11-3.01-1.11h-1.98c-.5,0-.57.07-.57.57v10.11h2.31c1.61,0,2.38-.27,3.25-1.14.74-.74,1.37-2.44,1.37-4.39s-.64-3.31-1.37-4.05Z"/>
      <path class="cls-7" d="M277.26,46.02c2.41,0,3.28.97,5.09.97.6,0,.84-.23,1.14-.6.1-.13.23-.2.37-.2.17,0,.23.1.23.37v7.1c0,.1-.13.2-.3.2s-.3-.07-.3-.2c-.5-4.29-2.51-7.03-6.26-7.03-2.51,0-4.12,1.61-4.12,3.62,0,2.34.97,3.72,5.63,5.96,4.79,2.31,6.8,4.35,6.8,7.87,0,4.05-3.08,7.27-7.8,7.27-2.91,0-4.02-1.21-5.63-1.21-.77,0-1.31.23-1.67.77-.1.17-.23.27-.37.27-.17,0-.23-.1-.23-.37v-8.51c0-.1.1-.2.3-.2.23,0,.3.1.3.2.74,5.36,3.11,8.44,7.23,8.44,3.35,0,5.42-1.87,5.42-4.45s-1.34-4.08-6.29-6.46c-4.59-2.21-6.06-4.39-6.06-7.6s2.68-6.19,6.53-6.19Z"/>
      <path class="cls-7" d="M48.61,293.7h9.41c.13,0,.2.03.2.3s-.07.3-.2.3h-2.58c-.5,0-.54.07-.37.57l5.32,15.2c.37,1.1.77,2.41,1,3.48h.13l4.42-13.19c1.64-4.86,1.37-5.93-1.84-6.06-.13,0-.2-.03-.2-.3s.07-.3.2-.3h6.86c.13,0,.2.03.2.3,0,.2-.07.3-.27.3-1.88.13-2.58.94-4.35,6.23l-5.96,17.75c-.07.17-.2.27-.37.27h-.87c-.2,0-.27-.07-.33-.27l-8.17-23.4c-.17-.5-.23-.57-.74-.57h-1.51c-.13,0-.2-.03-.2-.3s.07-.3.2-.3Z"/>
      <path class="cls-7" d="M89.53,318.31h-9.41c-.13,0-.2-.03-.2-.3s.07-.3.2-.3h2.58c.5,0,.54-.07.37-.57l-2.61-7.5h-7.6l-.67,2.01c-1.64,4.86-1.37,5.93,1.84,6.06.13,0,.2.03.2.3s-.07.3-.2.3h-6.86c-.13,0-.2-.03-.2-.3,0-.2.07-.3.27-.3,1.88-.13,2.58-.94,4.35-6.23l5.96-17.75c.07-.17.2-.27.37-.27h.87c.2,0,.27.07.33.27l8.17,23.4c.17.5.23.57.74.57h1.51c.13,0,.2.03.2.3s-.07.3-.2.3ZM73.02,309.03h7.23l-2.48-7.1c-.37-1.1-.77-2.34-1.04-3.48h-.13l-3.58,10.58Z"/>
      <path class="cls-7" d="M90.9,317.7h2.34c.5,0,.57-.07.57-.57v-22.27c0-.5-.07-.57-.57-.57h-2.24c-.13,0-.2-.03-.2-.3s.07-.3.2-.3h10.61c.13,0,.2.03.2.3s-.07.3-.2.3h-3.11c-.5,0-.57.07-.57.57v22.27c0,.5.07.57.57.57h3.88c4.82,0,6.26-2.24,7.1-7.6.03-.17.13-.23.3-.23.13,0,.3.07.3.23v7.6c0,.47-.1.6-.57.6h-18.62c-.13,0-.2-.03-.2-.3s.07-.3.2-.3Z"/>
      <path class="cls-7" d="M112.7,293.7h9.81c.13,0,.2.03.2.3s-.07.3-.2.3h-2.44c-.5,0-.57.07-.57.57v15.87c0,4.72,2.21,7.13,5.89,7.13s6.13-2.41,6.13-7.13v-10.65c0-4.65-.4-5.66-3.58-5.79-.13,0-.2-.03-.2-.3s.07-.3.2-.3h7.43c.13,0,.2.03.2.3s-.07.3-.2.3c-2.75.13-3.18,1.14-3.18,5.79v10.65c0,5.12-2.71,7.97-8.2,7.97-5.12,0-8.61-2.85-8.61-7.97v-15.87c0-.5-.07-.57-.57-.57h-2.11c-.13,0-.2-.03-.2-.3s.07-.3.2-.3Z"/>
      <path class="cls-7" d="M136.57,317.7h2.34c.5,0,.57-.07.57-.57v-22.27c0-.5-.07-.57-.57-.57h-2.24c-.13,0-.2-.03-.2-.3s.07-.3.2-.3h18.28c.47,0,.57.13.57.6v5.89c0,.13-.07.2-.33.2-.17,0-.23-.07-.27-.23-.6-4.12-2.68-5.86-5.86-5.86h-4.89c-.5,0-.57.07-.57.57v9.94h1.44c3.45,0,4.39-.94,4.82-3.95.03-.17.1-.23.27-.23.27,0,.33.07.33.2v8.57c0,.13-.07.2-.33.2-.17,0-.23-.1-.27-.27-.44-3.01-1.37-3.92-4.82-3.92h-1.44v11.72c0,.5.07.57.57.57h4.49c4.22,0,6.06-2.24,6.83-7.4.03-.17.13-.23.3-.23.27,0,.3.07.3.2v7.43c0,.47-.1.6-.57.6h-18.95c-.13,0-.2-.03-.2-.3s.07-.3.2-.3Z"/>
      <path class="cls-7" d="M166.8,293.4c2.41,0,3.28.97,5.09.97.6,0,.84-.23,1.14-.6.1-.13.23-.2.37-.2.17,0,.23.1.23.37v7.1c0,.1-.13.2-.3.2s-.3-.07-.3-.2c-.5-4.29-2.51-7.03-6.26-7.03-2.51,0-4.12,1.61-4.12,3.62,0,2.34.97,3.72,5.63,5.96,4.79,2.31,6.8,4.35,6.8,7.87,0,4.05-3.08,7.27-7.8,7.27-2.91,0-4.02-1.21-5.63-1.21-.77,0-1.31.23-1.67.77-.1.17-.23.27-.37.27-.17,0-.23-.1-.23-.37v-8.51c0-.1.1-.2.3-.2.23,0,.3.1.3.2.74,5.36,3.11,8.44,7.23,8.44,3.35,0,5.42-1.87,5.42-4.45s-1.34-4.08-6.29-6.46c-4.59-2.21-6.06-4.39-6.06-7.6s2.68-6.19,6.53-6.19Z"/>
      <path class="cls-7" d="M186.92,317.7h2.34c.5,0,.57-.07.57-.57v-22.27c0-.5-.07-.57-.57-.57h-2.24c-.13,0-.2-.03-.2-.3s.07-.3.2-.3h11.22c7.3,0,12.32,4.99,12.32,12.32s-5.02,12.29-11.99,12.29h-11.65c-.13,0-.2-.03-.2-.3s.07-.3.2-.3ZM203.16,296.18c-1.11-1.1-2.78-1.88-4.92-1.88h-3.72c-.5,0-.57.07-.57.57v22.27c0,.5.07.57.57.57h4.05c1.94,0,3.45-.67,4.59-1.81,1.71-1.71,2.68-4.49,2.68-9.88s-.97-8.14-2.68-9.84Z"/>
      <path class="cls-7" d="M213.17,317.7h2.34c.5,0,.57-.07.57-.57v-22.27c0-.5-.07-.57-.57-.57h-2.24c-.13,0-.2-.03-.2-.3s.07-.3.2-.3h18.28c.47,0,.57.13.57.6v5.89c0,.13-.07.2-.33.2-.17,0-.23-.07-.27-.23-.6-4.12-2.68-5.86-5.86-5.86h-4.89c-.5,0-.57.07-.57.57v9.94h1.44c3.45,0,4.39-.94,4.82-3.95.03-.17.1-.23.27-.23.27,0,.33.07.33.2v8.57c0,.13-.07.2-.33.2-.17,0-.23-.1-.27-.27-.44-3.01-1.37-3.92-4.82-3.92h-1.44v11.72c0,.5.07.57.57.57h4.49c4.22,0,6.06-2.24,6.83-7.4.03-.17.13-.23.3-.23.27,0,.3.07.3.2v7.43c0,.47-.1.6-.57.6h-18.95c-.13,0-.2-.03-.2-.3s.07-.3.2-.3Z"/>
      <path class="cls-7" d="M246.72,293.4c2.95,0,4.49,1.31,5.83,1.31.6,0,1.07-.23,1.34-.67.17-.27.3-.33.44-.33.17,0,.23.1.23.37v7.23c0,.1-.13.2-.3.2s-.27-.07-.3-.2c-.77-4.96-2.71-7.3-7.23-7.3-1.54,0-2.98.54-4.08,1.64-1.44,1.44-2.18,3.48-2.18,10.41s.74,8.97,2.18,10.41c1.1,1.1,2.54,1.64,4.08,1.64,4.02,0,6.83-3.15,7.6-8.44.03-.13.13-.2.3-.2.13,0,.3.07.3.2v8.37c0,.27-.03.37-.23.37s-.27-.07-.44-.33c-.37-.57-.9-.84-1.51-.84-1.71,0-2.95,1.47-6.03,1.47-6.06,0-10.98-5.42-10.98-12.66s4.92-12.66,10.98-12.66Z"/>
      <path class="cls-7" d="M258.14,317.7h2.34c.5,0,.57-.07.57-.57v-22.27c0-.5-.07-.57-.57-.57h-2.24c-.13,0-.2-.03-.2-.3s.07-.3.2-.3h9.74c.13,0,.2.03.2.3s-.07.3-.2.3h-2.24c-.5,0-.57.07-.57.57v9.91l5.52-4.96c5.86-5.26,4.99-5.39,1.54-5.53-.13,0-.2-.1-.2-.3,0-.27.07-.3.2-.3h8.27c.13,0,.2.03.2.3,0,.2-.07.3-.27.3-2.34.13-2.88.23-9.31,5.93l-3.05,2.71,10.68,14.2c.4.5.5.57,1,.57h1.88c.13,0,.2.03.2.3s-.07.3-.2.3h-10.48c-.13,0-.2-.03-.2-.3s.07-.3.2-.3h2.68c.5,0,.57-.07.17-.57l-6.5-8.61c-.54-.7-2.08-2.81-2.21-3.08h-.13v11.69c0,.5.07.57.57.57h2.24c.13,0,.2.03.2.3s-.07.3-.2.3h-9.84c-.13,0-.2-.03-.2-.3s.07-.3.2-.3Z"/>
      <path class="cls-7" d="M70.56,330.45c1.33,0,2.02.59,2.62.59.27,0,.48-.11.6-.3.08-.12.14-.15.2-.15.08,0,.11.05.11.17v3.25s-.06.09-.14.09-.12-.03-.14-.09c-.35-2.23-1.22-3.28-3.25-3.28-.69,0-1.34.24-1.84.74-.65.65-.98,1.57-.98,4.68s.33,4.04.98,4.68c.5.5,1.15.74,1.84.74,1.81,0,3.07-1.42,3.42-3.8.02-.06.06-.09.14-.09.06,0,.14.03.14.09v3.77c0,.12-.02.17-.11.17s-.12-.03-.2-.15c-.17-.26-.41-.38-.68-.38-.77,0-1.33.66-2.71.66-2.73,0-4.94-2.44-4.94-5.69s2.21-5.69,4.94-5.69Z"/>
      <path class="cls-7" d="M79.1,341.84c-1.88,0-3.31-1.45-3.31-3.42s1.42-3.42,3.31-3.42,3.31,1.43,3.31,3.42-1.43,3.42-3.31,3.42ZM78.09,341.16c.27.27.59.41,1.01.41s.74-.14,1.01-.41c.45-.45.69-1.28.69-2.74s-.24-2.29-.69-2.74c-.27-.27-.59-.41-1.01-.41s-.74.14-1.01.41c-.45.45-.69,1.28-.69,2.74s.24,2.29.69,2.74Z"/>
      <path class="cls-7" d="M86.05,338.05c.57,0,.98.14,1.31.29v-1.46c0-1.15-.54-1.6-1.28-1.6s-1.13.32-1.13.62c0,.35.29.48.29.89,0,.32-.24.59-.62.59s-.65-.38-.65-.81c0-.74.89-1.55,2.11-1.55,1.84,0,2.74.87,2.74,2.38v3.45c0,.48.18.63.48.63.18,0,.42-.08.57-.17.08-.05.21.18.15.23-.35.21-.69.32-1.11.32-.66,0-1.23-.5-1.43-1.11h-.06c-.24.71-.87,1.11-1.67,1.11-1.52,0-2.2-.86-2.2-1.88,0-1.22.9-1.91,2.5-1.91ZM86.18,341.51c.6,0,1.08-.59,1.17-1.58v-1.31c-.26-.17-.63-.32-1.02-.32-.74,0-1.22.41-1.22,1.66,0,1.16.38,1.55,1.07,1.55Z"/>
      <path class="cls-7" d="M95.44,337.58c-.35,0-.57-.26-.57-.56,0-.41.3-.59.3-.98s-.38-.77-1.13-.77c-.42,0-.74.14-1.01.41-.45.45-.69,1.28-.69,2.74s.24,2.21.69,2.67c.27.27.69.42,1.11.42.9,0,1.52-.71,1.96-1.43.05-.08.26.04.23.12-.45.87-1.31,1.64-2.41,1.64-1.76,0-3.19-1.45-3.19-3.42s1.42-3.42,3.31-3.42c1.13,0,2.21.77,2.21,1.7,0,.53-.45.87-.81.87Z"/>
      <path class="cls-7" d="M97.12,341.39h.78c.23,0,.26-.03.26-.26v-10.29c0-.23-.03-.26-.26-.26h-.63c-.06,0-.08-.01-.08-.14s.02-.14.08-.14h2.12c.23,0,.26.03.26.26v4.46c0,.36-.05.99-.09,1.33l.05.03c.24-.72.84-1.39,2.02-1.39,1.6,0,2.46.84,2.46,2.33v3.8c0,.23.03.26.26.26h.59c.06,0,.09.01.09.14s-.03.14-.09.14h-3.3c-.06,0-.09-.01-.09-.14s.03-.14.09-.14h.71c.23,0,.26-.03.26-.26v-3.93c0-1.28-.53-1.87-1.39-1.87-.78,0-1.39.69-1.55,1.69v4.11c0,.23.03.26.26.26h.8c.06,0,.09.01.09.14s-.03.14-.09.14h-3.59c-.06,0-.09-.01-.09-.14s.03-.14.09-.14Z"/>
      <path class="cls-7" d="M105.54,341.39h.8c.23,0,.26-.03.26-.26v-5.42c0-.23-.03-.26-.26-.26h-.65c-.06,0-.09-.02-.09-.14s.03-.14.09-.14h2.14c.23,0,.26.03.26.26v5.69c0,.23.03.26.26.26h.69c.06,0,.09.01.09.14s-.03.14-.09.14h-3.49c-.06,0-.09-.01-.09-.14s.03-.14.09-.14ZM107.24,330.59c.54,0,.96.45.96.95s-.42.93-.96.93-.95-.44-.95-.93.41-.95.95-.95Z"/>
      <path class="cls-7" d="M109.68,341.39h.8c.23,0,.26-.03.26-.26v-5.42c0-.23-.03-.26-.26-.26h-.62c-.06,0-.09-.02-.09-.14s.03-.14.09-.14h2.08c.23,0,.26.03.26.26,0,.21-.03.62-.06.92l.04.03c.26-.72.86-1.39,2.03-1.39,1.52,0,2.36.83,2.36,2.33v3.8c0,.23.03.26.26.26h.62c.06,0,.09.01.09.14s-.03.14-.09.14h-3.31c-.06,0-.09-.01-.09-.14s.03-.14.09-.14h.69c.23,0,.26-.03.26-.26v-3.96c0-1.36-.57-1.84-1.33-1.84s-1.37.69-1.54,1.72v4.08c0,.23.03.26.26.26h.69c.06,0,.09.01.09.14s-.03.14-.09.14h-3.49c-.06,0-.09-.01-.09-.14s.03-.14.09-.14Z"/>
      <path class="cls-7" d="M119.79,341.95v-.06c-1.04-.04-1.57-.63-1.57-1.39,0-.84.65-1.45,1.78-1.51l.02-.04c-.74-.32-1.31-1.05-1.31-1.79,0-1.15,1.02-2.15,2.58-2.15.72,0,1.34.23,1.79.59.18-.63.6-.96,1.14-.96.63,0,.95.36.95.77s-.32.72-.63.72c-.29,0-.5-.17-.5-.47,0-.32.21-.44.21-.6,0-.09-.11-.17-.21-.17-.35,0-.66.35-.78.87.38.38.6.87.6,1.4,0,1.23-.99,2.14-2.58,2.14-.35,0-.68-.11-.99-.11-.96,0-1.49.32-1.49.86,0,.38.29.59.77.59h2.58c1.67,0,2.64.9,2.64,2.17,0,1.67-1.57,3-3.49,3-2.03,0-3.09-.86-3.09-1.97,0-.9.65-1.54,1.6-1.88ZM121.29,345.53c1.58,0,2.61-.93,2.61-2.09,0-.96-.68-1.49-1.61-1.49h-1.91c-.65.18-1.07.65-1.07,1.88,0,1.1.57,1.7,1.99,1.7ZM120.5,338.74c.2.2.47.3.78.3s.59-.11.78-.3c.3-.3.45-.75.45-1.58s-.15-1.3-.45-1.6c-.2-.2-.47-.3-.78-.3s-.59.11-.78.3c-.3.3-.45.75-.45,1.6s.15,1.28.45,1.58Z"/>
      <path class="cls-7" d="M129.86,341.39h1.05c.23,0,.26-.03.26-.26v-10.02c0-.23-.03-.26-.26-.26h-1.01c-.06,0-.09-.02-.09-.14s.03-.14.09-.14h8.22c.21,0,.26.06.26.27v2.65c0,.06-.03.09-.15.09-.08,0-.11-.03-.12-.11-.27-1.85-1.21-2.64-2.64-2.64h-2.2c-.23,0-.26.03-.26.26v4.47h.65c1.55,0,1.97-.42,2.17-1.78.02-.08.05-.11.12-.11.12,0,.15.03.15.09v3.86c0,.06-.03.09-.15.09-.08,0-.11-.04-.12-.12-.2-1.36-.62-1.76-2.17-1.76h-.65v5.27c0,.23.03.26.26.26h2.02c1.9,0,2.73-1.01,3.07-3.33.02-.08.06-.11.14-.11.12,0,.14.03.14.09v3.34c0,.21-.05.27-.26.27h-8.53c-.06,0-.09-.01-.09-.14s.03-.14.09-.14Z"/>
      <path class="cls-7" d="M139.45,335.18h3.37c.06,0,.09.02.09.14s-.03.14-.11.14h-.81c-.23,0-.23.03-.14.26l1.24,3.09c.15.36.39,1.02.56,1.52h.06l.93-2.64c.69-1.96.54-2.17-.5-2.23-.06,0-.09-.03-.09-.14,0-.12.03-.14.09-.14h2.36c.06,0,.09.02.09.14,0,.11-.03.14-.09.14-.65.06-.81.23-1.57,2.3l-1.4,3.83c-.03.08-.09.12-.17.12h-.53c-.09,0-.11-.03-.15-.12l-2.35-5.87c-.09-.23-.12-.26-.35-.26h-.56c-.06,0-.09-.02-.09-.14s.03-.14.09-.14Z"/>
      <path class="cls-7" d="M150.32,341.84c-1.88,0-3.31-1.45-3.31-3.42s1.42-3.42,3.31-3.42,3.31,1.43,3.31,3.42-1.43,3.42-3.31,3.42ZM149.31,341.16c.27.27.59.41,1.01.41s.74-.14,1.01-.41c.45-.45.69-1.28.69-2.74s-.24-2.29-.69-2.74c-.27-.27-.59-.41-1.01-.41s-.74.14-1.01.41c-.45.45-.69,1.28-.69,2.74s.24,2.29.69,2.74Z"/>
      <path class="cls-7" d="M154.28,341.39h.87c.23,0,.26-.03.26-.26v-10.29c0-.23-.03-.26-.26-.26h-.71c-.06,0-.09-.01-.09-.14s.03-.14.09-.14h2.2c.23,0,.26.03.26.26v10.56c0,.23.03.26.26.26h.69c.06,0,.09.01.09.14s-.03.14-.09.14h-3.57c-.06,0-.09-.01-.09-.14s.03-.14.09-.14Z"/>
      <path class="cls-7" d="M158.59,335.18h2.15c.23,0,.26.03.26.26v4.23c0,1.25.51,1.84,1.31,1.84s1.27-.68,1.48-1.73v-4.07c0-.23-.03-.26-.26-.26h-.72c-.06,0-.09-.02-.09-.14s.03-.14.09-.14h2.21c.23,0,.26.03.26.26v5.69c0,.23.03.26.26.26h.62c.06,0,.09.01.09.14s-.03.14-.09.14h-2.05c-.23,0-.26-.04-.26-.26,0-.12.01-.63.03-.96l-.04-.03c-.27.8-.81,1.43-1.93,1.43-1.57,0-2.4-.84-2.4-2.61v-3.52c0-.23-.03-.26-.26-.26h-.66c-.06,0-.09-.02-.09-.14s.03-.14.09-.14Z"/>
      <path class="cls-7" d="M166.88,335.18h.92v-.14c0-.06.02-.11.06-.17.44-.62.75-1.2,1.05-1.85.08-.15.11-.18.2-.18.12,0,.18.03.18.26v2.08h1.67c.06,0,.09.02.09.14s-.03.14-.09.14h-1.67v4.99c0,.66.23.89.63.89.35,0,.72-.27,1.05-.9.05-.09.29.01.24.11-.41.9-.98,1.31-1.73,1.31-1.07,0-1.69-.68-1.69-2.03v-4.35h-.92c-.06,0-.09-.02-.09-.14s.03-.14.09-.14Z"/>
      <path class="cls-7" d="M171.97,341.39h.8c.23,0,.26-.03.26-.26v-5.42c0-.23-.03-.26-.26-.26h-.65c-.06,0-.09-.02-.09-.14s.03-.14.09-.14h2.14c.23,0,.26.03.26.26v5.69c0,.23.03.26.26.26h.69c.06,0,.09.01.09.14s-.03.14-.09.14h-3.49c-.06,0-.09-.01-.09-.14s.03-.14.09-.14ZM173.67,330.59c.54,0,.96.45.96.95s-.42.93-.96.93-.95-.44-.95-.93.41-.95.95-.95Z"/>
      <path class="cls-7" d="M179.7,341.84c-1.88,0-3.31-1.45-3.31-3.42s1.42-3.42,3.31-3.42,3.31,1.43,3.31,3.42-1.43,3.42-3.31,3.42ZM178.69,341.16c.27.27.59.41,1.01.41s.74-.14,1.01-.41c.45-.45.69-1.28.69-2.74s-.24-2.29-.69-2.74c-.27-.27-.59-.41-1.01-.41s-.74.14-1.01.41c-.45.45-.69,1.28-.69,2.74s.24,2.29.69,2.74Z"/>
      <path class="cls-7" d="M183.89,341.39h.8c.23,0,.26-.03.26-.26v-5.42c0-.23-.03-.26-.26-.26h-.62c-.06,0-.09-.02-.09-.14s.03-.14.09-.14h2.08c.23,0,.26.03.26.26,0,.21-.03.62-.06.92l.04.03c.26-.72.86-1.39,2.03-1.39,1.52,0,2.36.83,2.36,2.33v3.8c0,.23.03.26.26.26h.62c.06,0,.09.01.09.14s-.03.14-.09.14h-3.31c-.06,0-.09-.01-.09-.14s.03-.14.09-.14h.69c.23,0,.26-.03.26-.26v-3.96c0-1.36-.57-1.84-1.33-1.84s-1.37.69-1.54,1.72v4.08c0,.23.03.26.26.26h.69c.06,0,.09.01.09.14s-.03.14-.09.14h-3.49c-.06,0-.09-.01-.09-.14s.03-.14.09-.14Z"/>
      <path class="cls-7" d="M195.04,338.05c.57,0,.98.14,1.31.29v-1.46c0-1.15-.54-1.6-1.28-1.6s-1.13.32-1.13.62c0,.35.29.48.29.89,0,.32-.24.59-.62.59s-.65-.38-.65-.81c0-.74.89-1.55,2.11-1.55,1.84,0,2.74.87,2.74,2.38v3.45c0,.48.18.63.48.63.18,0,.42-.08.57-.17.08-.05.21.18.15.23-.35.21-.69.32-1.11.32-.66,0-1.23-.5-1.43-1.11h-.06c-.24.71-.87,1.11-1.67,1.11-1.52,0-2.2-.86-2.2-1.88,0-1.22.9-1.91,2.5-1.91ZM195.17,341.51c.6,0,1.08-.59,1.17-1.58v-1.31c-.26-.17-.63-.32-1.02-.32-.74,0-1.22.41-1.22,1.66,0,1.16.38,1.55,1.07,1.55Z"/>
      <path class="cls-7" d="M199.45,341.39h.8c.23,0,.26-.03.26-.26v-5.42c0-.23-.03-.26-.26-.26h-.71c-.06,0-.09-.02-.09-.14s.03-.14.09-.14h2.17c.23,0,.26.03.26.26v.08c0,.15-.03.74-.03.96l.05.03c.21-.89.84-1.51,1.7-1.51.78,0,1.28.56,1.28,1.16s-.44.96-.86.96c-.38,0-.63-.26-.63-.59,0-.41.26-.54.26-.83,0-.21-.14-.38-.38-.38-.53,0-1.16.66-1.36,2.2v3.6c0,.23.03.26.26.26h.89c.06,0,.09.01.09.14s-.03.14-.09.14h-3.69c-.06,0-.09-.01-.09-.14s.03-.14.09-.14Z"/>
      <path class="cls-7" d="M205.24,335.18h3.39s.08.02.08.14-.03.14-.09.14h-.78c-.23,0-.24.03-.15.26l1.24,3.09c.15.38.38,1.02.54,1.49h.06l.92-2.61c.69-1.96.56-2.17-.5-2.23-.06,0-.09-.03-.09-.14,0-.12.03-.14.09-.14h2.36c.06,0,.09.02.09.14,0,.11-.05.14-.09.14-.65.06-.81.23-1.57,2.3l-2.29,6.3c-.47,1.27-.89,1.67-1.63,1.67s-1.17-.53-1.17-1.16c0-.53.44-.92.83-.92.35,0,.54.2.54.54,0,.41-.45.63-.45.92,0,.17.11.35.33.35.5,0,.86-.3,1.31-1.52l.81-2.23h-.35c-.09,0-.11-.03-.15-.12l-2.35-5.87c-.09-.23-.12-.26-.35-.26h-.59s-.08-.02-.08-.14.03-.14.08-.14Z"/>
      <path class="cls-7" d="M222.29,330.45c1.33,0,2.02.59,2.62.59.27,0,.48-.11.6-.3.08-.12.14-.15.2-.15.08,0,.11.05.11.17v3.25s-.06.09-.14.09-.12-.03-.14-.09c-.35-2.23-1.22-3.28-3.25-3.28-.69,0-1.34.24-1.84.74-.65.65-.98,1.57-.98,4.68s.33,4.04.98,4.68c.5.5,1.14.74,1.84.74,1.81,0,3.07-1.42,3.42-3.8.02-.06.06-.09.14-.09.06,0,.14.03.14.09v3.77c0,.12-.02.17-.11.17s-.12-.03-.2-.15c-.17-.26-.41-.38-.68-.38-.77,0-1.33.66-2.71.66-2.73,0-4.94-2.44-4.94-5.69s2.21-5.69,4.94-5.69Z"/>
      <path class="cls-7" d="M227.37,341.39h.78c.23,0,.26-.03.26-.26v-10.29c0-.23-.03-.26-.26-.26h-.63c-.06,0-.08-.01-.08-.14s.02-.14.08-.14h2.12c.23,0,.26.03.26.26v4.46c0,.36-.05.99-.09,1.33l.05.03c.24-.72.84-1.39,2.02-1.39,1.6,0,2.46.84,2.46,2.33v3.8c0,.23.03.26.26.26h.59c.06,0,.09.01.09.14s-.03.14-.09.14h-3.3c-.06,0-.09-.01-.09-.14s.03-.14.09-.14h.71c.23,0,.26-.03.26-.26v-3.93c0-1.28-.53-1.87-1.39-1.87-.78,0-1.39.69-1.55,1.69v4.11c0,.23.03.26.26.26h.8c.06,0,.09.01.09.14s-.03.14-.09.14h-3.59c-.06,0-.09-.01-.09-.14s.03-.14.09-.14Z"/>
      <path class="cls-7" d="M238.55,338.05c.57,0,.98.14,1.31.29v-1.46c0-1.15-.54-1.6-1.28-1.6s-1.13.32-1.13.62c0,.35.29.48.29.89,0,.32-.24.59-.62.59s-.65-.38-.65-.81c0-.74.89-1.55,2.11-1.55,1.84,0,2.74.87,2.74,2.38v3.45c0,.48.18.63.48.63.18,0,.42-.08.57-.17.08-.05.21.18.15.23-.35.21-.69.32-1.11.32-.66,0-1.23-.5-1.43-1.11h-.06c-.24.71-.87,1.11-1.67,1.11-1.52,0-2.2-.86-2.2-1.88,0-1.22.9-1.91,2.5-1.91ZM238.68,341.51c.6,0,1.08-.59,1.17-1.58v-1.31c-.26-.17-.63-.32-1.02-.32-.74,0-1.22.41-1.22,1.66,0,1.16.38,1.55,1.07,1.55Z"/>
      <path class="cls-7" d="M242.96,341.39h.8c.23,0,.26-.03.26-.26v-5.42c0-.23-.03-.26-.26-.26h-.62c-.06,0-.09-.02-.09-.14s.03-.14.09-.14h2.08c.23,0,.26.03.26.26,0,.21-.03.62-.06.92l.04.03c.26-.72.86-1.39,2.03-1.39,1.52,0,2.36.83,2.36,2.33v3.8c0,.23.03.26.26.26h.62c.06,0,.09.01.09.14s-.03.14-.09.14h-3.31c-.06,0-.09-.01-.09-.14s.03-.14.09-.14h.69c.23,0,.26-.03.26-.26v-3.96c0-1.36-.57-1.84-1.33-1.84s-1.37.69-1.54,1.72v4.08c0,.23.03.26.26.26h.69c.06,0,.09.01.09.14s-.03.14-.09.14h-3.49c-.06,0-.09-.01-.09-.14s.03-.14.09-.14Z"/>
      <path class="cls-7" d="M253.06,341.95v-.06c-1.04-.04-1.57-.63-1.57-1.39,0-.84.65-1.45,1.78-1.51l.02-.04c-.74-.32-1.31-1.05-1.31-1.79,0-1.15,1.02-2.15,2.58-2.15.72,0,1.34.23,1.79.59.18-.63.6-.96,1.14-.96.63,0,.95.36.95.77s-.32.72-.63.72c-.29,0-.5-.17-.5-.47,0-.32.21-.44.21-.6,0-.09-.11-.17-.21-.17-.35,0-.66.35-.78.87.38.38.6.87.6,1.4,0,1.23-.99,2.14-2.58,2.14-.35,0-.68-.11-.99-.11-.96,0-1.49.32-1.49.86,0,.38.29.59.77.59h2.58c1.67,0,2.64.9,2.64,2.17,0,1.67-1.57,3-3.49,3-2.03,0-3.09-.86-3.09-1.97,0-.9.65-1.54,1.6-1.88ZM254.56,345.53c1.58,0,2.61-.93,2.61-2.09,0-.96-.68-1.49-1.61-1.49h-1.91c-.65.18-1.07.65-1.07,1.88,0,1.1.57,1.7,1.99,1.7ZM253.77,338.74c.2.2.47.3.78.3s.59-.11.78-.3c.3-.3.45-.75.45-1.58s-.15-1.3-.45-1.6c-.2-.2-.47-.3-.78-.3s-.59.11-.78.3c-.3.3-.45.75-.45,1.6s.15,1.28.45,1.58Z"/>
      <path class="cls-7" d="M261.96,335c1.72,0,2.68,1.43,2.68,2.91,0,.2-.06.24-.24.24h-4.02v.27c0,1.46.24,2.21.69,2.67.27.27.69.42,1.11.42.98,0,1.7-.72,2.12-1.43.04-.08.26.04.23.12-.41.87-1.39,1.64-2.58,1.64-1.76,0-3.19-1.45-3.19-3.42s1.51-3.42,3.19-3.42ZM260.98,335.62c-.48.48-.62,1.28-.62,2.27h2.55c.21,0,.27-.02.27-.17,0-1.21-.12-1.78-.5-2.15-.21-.21-.51-.32-.81-.32s-.65.12-.89.36Z"/>
      <path class="cls-7" d="M70.86,359.47h1.05c.23,0,.26-.03.26-.26v-10.02c0-.23-.03-.26-.26-.26h-1.01c-.06,0-.09-.02-.09-.14s.03-.14.09-.14h8.33c.21,0,.26.06.26.27v3c0,.06-.03.09-.15.09-.08,0-.11-.04-.12-.12-.42-2.15-1.24-2.97-2.68-2.97h-2.26c-.23,0-.26.03-.26.26v4.59h.95c1.55,0,1.94-.42,2.15-1.78.02-.08.05-.11.12-.11.12,0,.15.03.15.09v3.86c0,.06-.03.09-.15.09-.08,0-.11-.05-.12-.12-.21-1.36-.6-1.76-2.15-1.76h-.95v5.15c0,.23.03.26.26.26h1.39c.06,0,.09.01.09.14s-.03.14-.09.14h-4.81c-.06,0-.09-.01-.09-.14s.03-.14.09-.14Z"/>
      <path class="cls-7" d="M82.89,359.92c-1.88,0-3.31-1.45-3.31-3.42s1.42-3.42,3.31-3.42,3.31,1.43,3.31,3.42-1.43,3.42-3.31,3.42ZM81.88,359.24c.27.27.59.41,1.01.41s.74-.14,1.01-.41c.45-.45.69-1.28.69-2.74s-.24-2.29-.69-2.74c-.27-.27-.59-.41-1.01-.41s-.74.14-1.01.41c-.45.45-.69,1.28-.69,2.74s.24,2.29.69,2.74Z"/>
      <path class="cls-7" d="M87.08,359.47h.8c.23,0,.26-.03.26-.26v-5.42c0-.23-.03-.26-.26-.26h-.71c-.06,0-.09-.02-.09-.14s.03-.14.09-.14h2.17c.23,0,.26.03.26.26v.08c0,.15-.03.74-.03.96l.05.03c.21-.89.84-1.51,1.7-1.51.78,0,1.28.56,1.28,1.16s-.44.96-.86.96c-.38,0-.63-.26-.63-.59,0-.41.26-.54.26-.83,0-.21-.14-.38-.38-.38-.53,0-1.16.66-1.36,2.2v3.6c0,.23.03.26.26.26h.89c.06,0,.09.01.09.14s-.03.14-.09.14h-3.69c-.06,0-.09-.01-.09-.14s.03-.14.09-.14Z"/>
      <path class="cls-7" d="M97.44,359.47h1.05c.23,0,.26-.03.26-.26v-10.02c0-.23-.03-.26-.26-.26h-1.01c-.06,0-.09-.02-.09-.14s.03-.14.09-.14h4.38c.06,0,.09.02.09.14s-.03.14-.09.14h-1.01c-.23,0-.26.03-.26.26v4.34h4.2v-4.34c0-.23-.03-.26-.26-.26h-1.01c-.06,0-.09-.02-.09-.14s.03-.14.09-.14h4.38c.06,0,.09.02.09.14s-.03.14-.09.14h-1.01c-.23,0-.26.03-.26.26v10.02c0,.23.03.26.26.26h1.05c.06,0,.09.01.09.14s-.03.14-.09.14h-4.47c-.06,0-.09-.01-.09-.14s.03-.14.09-.14h1.05c.23,0,.26-.03.26-.26v-5.41h-4.2v5.41c0,.23.03.26.26.26h1.05c.06,0,.09.01.09.14s-.03.14-.09.14h-4.47c-.06,0-.09-.01-.09-.14s.03-.14.09-.14Z"/>
      <path class="cls-7" d="M108.76,359.47h.8c.23,0,.26-.03.26-.26v-5.42c0-.23-.03-.26-.26-.26h-.65c-.06,0-.09-.02-.09-.14s.03-.14.09-.14h2.14c.23,0,.26.03.26.26v5.69c0,.23.03.26.26.26h.69c.06,0,.09.01.09.14s-.03.14-.09.14h-3.49c-.06,0-.09-.01-.09-.14s.03-.14.09-.14ZM110.46,348.67c.54,0,.96.45.96.95s-.42.93-.96.93-.95-.44-.95-.93.41-.95.95-.95Z"/>
      <path class="cls-7" d="M114.62,360.03v-.06c-1.04-.04-1.57-.63-1.57-1.39,0-.84.65-1.45,1.78-1.51l.02-.04c-.74-.32-1.31-1.05-1.31-1.79,0-1.15,1.02-2.15,2.58-2.15.72,0,1.34.23,1.79.59.18-.63.6-.96,1.14-.96.63,0,.95.36.95.77s-.32.72-.63.72c-.29,0-.5-.17-.5-.47,0-.32.21-.44.21-.6,0-.09-.11-.17-.21-.17-.35,0-.66.35-.78.87.38.38.6.87.6,1.4,0,1.23-.99,2.14-2.58,2.14-.35,0-.68-.11-.99-.11-.96,0-1.49.32-1.49.86,0,.38.29.59.77.59h2.58c1.67,0,2.64.9,2.64,2.17,0,1.67-1.57,3-3.49,3-2.03,0-3.09-.86-3.09-1.97,0-.9.65-1.54,1.6-1.88ZM116.11,363.61c1.58,0,2.61-.93,2.61-2.09,0-.96-.68-1.49-1.61-1.49h-1.91c-.65.18-1.07.65-1.07,1.88,0,1.1.57,1.7,1.99,1.7ZM115.33,356.82c.2.2.47.3.78.3s.59-.11.78-.3c.3-.3.45-.75.45-1.58s-.15-1.3-.45-1.6c-.2-.2-.47-.3-.78-.3s-.59.11-.78.3c-.3.3-.45.75-.45,1.6s.15,1.28.45,1.58Z"/>
      <path class="cls-7" d="M120.4,359.47h.78c.23,0,.26-.03.26-.26v-10.29c0-.23-.03-.26-.26-.26h-.63c-.06,0-.08-.01-.08-.14s.02-.14.08-.14h2.12c.23,0,.26.03.26.26v4.46c0,.36-.05.99-.09,1.33l.05.03c.24-.72.84-1.39,2.02-1.39,1.6,0,2.46.84,2.46,2.33v3.8c0,.23.03.26.26.26h.59c.06,0,.09.01.09.14s-.03.14-.09.14h-3.3c-.06,0-.09-.01-.09-.14s.03-.14.09-.14h.71c.23,0,.26-.03.26-.26v-3.93c0-1.28-.53-1.87-1.39-1.87-.78,0-1.39.69-1.55,1.69v4.11c0,.23.03.26.26.26h.8c.06,0,.09.01.09.14s-.03.14-.09.14h-3.59c-.06,0-.09-.01-.09-.14s.03-.14.09-.14Z"/>
      <path class="cls-7" d="M128.85,359.47h.87c.23,0,.26-.03.26-.26v-10.29c0-.23-.03-.26-.26-.26h-.71c-.06,0-.09-.01-.09-.14s.03-.14.09-.14h2.2c.23,0,.26.03.26.26v10.56c0,.23.03.26.26.26h.69c.06,0,.09.01.09.14s-.03.14-.09.14h-3.57c-.06,0-.09-.01-.09-.14s.03-.14.09-.14Z"/>
      <path class="cls-7" d="M132.66,353.26h3.39s.08.02.08.14-.03.14-.09.14h-.78c-.23,0-.24.03-.15.26l1.24,3.09c.15.38.38,1.02.54,1.49h.06l.92-2.61c.69-1.96.56-2.17-.5-2.23-.06,0-.09-.03-.09-.14,0-.12.03-.14.09-.14h2.36c.06,0,.09.02.09.14,0,.11-.05.14-.09.14-.65.06-.81.23-1.57,2.3l-2.29,6.3c-.47,1.27-.89,1.67-1.63,1.67s-1.17-.53-1.17-1.16c0-.53.44-.92.83-.92.35,0,.54.2.54.54,0,.41-.45.63-.45.92,0,.17.11.35.33.35.5,0,.86-.3,1.31-1.52l.81-2.23h-.35c-.09,0-.11-.03-.15-.12l-2.35-5.87c-.09-.23-.12-.26-.35-.26h-.59s-.08-.02-.08-.14.03-.14.08-.14Z"/>
      <path class="cls-7" d="M148.22,348.53c1.08,0,1.48.44,2.29.44.27,0,.38-.11.51-.27.05-.06.11-.09.17-.09.08,0,.11.04.11.17v3.19s-.06.09-.14.09-.14-.03-.14-.09c-.23-1.93-1.13-3.16-2.82-3.16-1.13,0-1.85.72-1.85,1.63,0,1.05.44,1.67,2.53,2.68,2.15,1.04,3.06,1.96,3.06,3.54,0,1.82-1.39,3.27-3.51,3.27-1.31,0-1.81-.54-2.53-.54-.35,0-.59.11-.75.35-.05.08-.11.12-.17.12-.08,0-.11-.04-.11-.17v-3.83s.05-.09.14-.09c.11,0,.14.05.14.09.33,2.41,1.4,3.8,3.25,3.8,1.51,0,2.44-.84,2.44-2s-.6-1.84-2.83-2.91c-2.06-.99-2.73-1.97-2.73-3.42s1.21-2.79,2.94-2.79Z"/>
      <path class="cls-7" d="M156.34,353.08c1.72,0,2.68,1.43,2.68,2.91,0,.2-.06.24-.24.24h-4.02v.27c0,1.46.24,2.21.69,2.67.27.27.69.42,1.11.42.98,0,1.7-.72,2.12-1.43.04-.08.26.04.23.12-.41.87-1.39,1.64-2.58,1.64-1.76,0-3.19-1.45-3.19-3.42s1.51-3.42,3.19-3.42ZM155.36,353.7c-.48.48-.62,1.28-.62,2.27h2.55c.21,0,.27-.02.27-.17,0-1.21-.12-1.78-.5-2.15-.21-.21-.51-.32-.81-.32s-.65.12-.89.36Z"/>
      <path class="cls-7" d="M159.88,359.47h.8c.23,0,.26-.03.26-.26v-5.42c0-.23-.03-.26-.26-.26h-.62c-.06,0-.09-.02-.09-.14s.03-.14.09-.14h2.08c.23,0,.26.03.26.26,0,.21-.03.62-.06.92l.04.03c.26-.72.86-1.39,2.03-1.39,1.52,0,2.36.83,2.36,2.33v3.8c0,.23.03.26.26.26h.62c.06,0,.09.01.09.14s-.03.14-.09.14h-3.31c-.06,0-.09-.01-.09-.14s.03-.14.09-.14h.69c.23,0,.26-.03.26-.26v-3.96c0-1.36-.57-1.84-1.33-1.84s-1.37.69-1.54,1.72v4.08c0,.23.03.26.26.26h.69c.06,0,.09.01.09.14s-.03.14-.09.14h-3.49c-.06,0-.09-.01-.09-.14s.03-.14.09-.14Z"/>
      <path class="cls-7" d="M170.85,353.08c.81,0,1.14.38,1.42.38.15,0,.21-.08.32-.2.05-.06.09-.09.17-.09s.11.04.11.12v1.69s-.06.09-.14.09-.12-.03-.14-.09c-.27-1.13-.78-1.63-1.73-1.63-.68,0-1.07.41-1.07,1.01,0,.48.32.96,1.51,1.36,1.48.48,2.06,1.2,2.06,2.14,0,1.21-.86,2.06-2.38,2.06-.96,0-1.3-.42-1.76-.42-.15,0-.26.08-.39.24-.04.06-.09.09-.17.09s-.11-.05-.11-.12v-2.33s.04-.09.14-.09c.11,0,.12.04.14.09.3,1.46.99,2.27,2.15,2.27.89,0,1.42-.48,1.42-1.19s-.41-1.14-1.57-1.52c-1.39-.45-2-1.07-2-2.09,0-1.11.95-1.76,2.03-1.76Z"/>
      <path class="cls-7" d="M174.17,359.47h.8c.23,0,.26-.03.26-.26v-5.42c0-.23-.03-.26-.26-.26h-.65c-.06,0-.09-.02-.09-.14s.03-.14.09-.14h2.14c.23,0,.26.03.26.26v5.69c0,.23.03.26.26.26h.69c.06,0,.09.01.09.14s-.03.14-.09.14h-3.49c-.06,0-.09-.01-.09-.14s.03-.14.09-.14ZM175.87,348.67c.54,0,.96.45.96.95s-.42.93-.96.93-.95-.44-.95-.93.41-.95.95-.95Z"/>
      <path class="cls-7" d="M178.29,353.26h.92v-.14c0-.06.02-.11.06-.17.44-.62.75-1.2,1.05-1.85.08-.15.11-.18.2-.18.12,0,.18.03.18.26v2.08h1.67c.06,0,.09.02.09.14s-.03.14-.09.14h-1.67v4.99c0,.66.23.89.63.89.35,0,.72-.27,1.05-.9.05-.09.29.01.24.11-.41.9-.98,1.31-1.73,1.31-1.07,0-1.69-.68-1.69-2.03v-4.35h-.92c-.06,0-.09-.02-.09-.14s.03-.14.09-.14Z"/>
      <path class="cls-7" d="M183.39,359.47h.8c.23,0,.26-.03.26-.26v-5.42c0-.23-.03-.26-.26-.26h-.65c-.06,0-.09-.02-.09-.14s.03-.14.09-.14h2.14c.23,0,.26.03.26.26v5.69c0,.23.03.26.26.26h.69c.06,0,.09.01.09.14s-.03.14-.09.14h-3.49c-.06,0-.09-.01-.09-.14s.03-.14.09-.14ZM185.09,348.67c.54,0,.96.45.96.95s-.42.93-.96.93-.95-.44-.95-.93.41-.95.95-.95Z"/>
      <path class="cls-7" d="M187.37,353.26h3.37c.06,0,.09.02.09.14s-.03.14-.11.14h-.81c-.23,0-.23.03-.14.26l1.24,3.09c.15.36.39,1.02.56,1.52h.06l.93-2.64c.69-1.96.54-2.17-.5-2.23-.06,0-.09-.03-.09-.14,0-.12.03-.14.09-.14h2.36c.06,0,.09.02.09.14,0,.11-.03.14-.09.14-.65.06-.81.23-1.57,2.3l-1.4,3.83c-.03.08-.09.12-.17.12h-.53c-.09,0-.11-.03-.15-.12l-2.35-5.87c-.09-.23-.12-.26-.35-.26h-.56c-.06,0-.09-.02-.09-.14s.03-.14.09-.14Z"/>
      <path class="cls-7" d="M198.09,353.08c1.72,0,2.68,1.43,2.68,2.91,0,.2-.06.24-.24.24h-4.02v.27c0,1.46.24,2.21.69,2.67.27.27.69.42,1.11.42.98,0,1.7-.72,2.12-1.43.04-.08.26.04.23.12-.41.87-1.39,1.64-2.58,1.64-1.76,0-3.19-1.45-3.19-3.42s1.51-3.42,3.19-3.42ZM197.12,353.7c-.48.48-.62,1.28-.62,2.27h2.55c.21,0,.27-.02.27-.17,0-1.21-.12-1.78-.5-2.15-.21-.21-.51-.32-.81-.32s-.65.12-.89.36Z"/>
      <path class="cls-7" d="M210.54,354.91c-.38,0-.89-.05-1.36-.14v4.44c0,.23.03.26.26.26h1.17c.06,0,.09.01.09.14s-.03.14-.09.14h-4.59c-.06,0-.09-.01-.09-.14s.03-.14.09-.14h1.05c.23,0,.26-.03.26-.26v-10.02c0-.23-.03-.26-.26-.26h-1.01c-.06,0-.09-.02-.09-.14s.03-.14.09-.14h4.55c2.76,0,4.05,1.45,4.05,3.12,0,1.79-1.46,3.12-4.13,3.12ZM212.04,349.45c-.35-.35-.75-.51-1.42-.51h-1.17c-.23,0-.26.03-.26.26v5.3c.42.09.98.14,1.36.14.68,0,1.14-.17,1.42-.44.44-.44.72-1.1.72-2.41,0-1.23-.23-1.91-.65-2.33Z"/>
      <path class="cls-7" d="M218.37,353.08c1.72,0,2.68,1.43,2.68,2.91,0,.2-.06.24-.24.24h-4.02v.27c0,1.46.24,2.21.69,2.67.27.27.69.42,1.11.42.98,0,1.7-.72,2.12-1.43.04-.08.26.04.23.12-.41.87-1.39,1.64-2.58,1.64-1.76,0-3.19-1.45-3.19-3.42s1.51-3.42,3.19-3.42ZM217.39,353.7c-.48.48-.62,1.28-.62,2.27h2.55c.21,0,.27-.02.27-.17,0-1.21-.12-1.78-.5-2.15-.21-.21-.51-.32-.81-.32s-.65.12-.89.36Z"/>
      <path class="cls-7" d="M221.91,359.47h.8c.23,0,.26-.03.26-.26v-5.42c0-.23-.03-.26-.26-.26h-.71c-.06,0-.09-.02-.09-.14s.03-.14.09-.14h2.17c.23,0,.26.03.26.26v.08c0,.15-.03.74-.03.96l.05.03c.21-.89.84-1.51,1.7-1.51.78,0,1.28.56,1.28,1.16s-.44.96-.86.96c-.38,0-.63-.26-.63-.59,0-.41.26-.54.26-.83,0-.21-.14-.38-.38-.38-.53,0-1.16.66-1.36,2.2v3.6c0,.23.03.26.26.26h.89c.06,0,.09.01.09.14s-.03.14-.09.14h-3.69c-.06,0-.09-.01-.09-.14s.03-.14.09-.14Z"/>
      <path class="cls-7" d="M230.45,353.08c.81,0,1.14.38,1.42.38.15,0,.21-.08.32-.2.05-.06.09-.09.17-.09s.11.04.11.12v1.69s-.06.09-.14.09-.12-.03-.14-.09c-.27-1.13-.78-1.63-1.73-1.63-.68,0-1.07.41-1.07,1.01,0,.48.32.96,1.51,1.36,1.48.48,2.06,1.2,2.06,2.14,0,1.21-.86,2.06-2.38,2.06-.96,0-1.3-.42-1.76-.42-.15,0-.26.08-.39.24-.05.06-.09.09-.17.09s-.11-.05-.11-.12v-2.33s.04-.09.14-.09c.11,0,.12.04.14.09.3,1.46.99,2.27,2.15,2.27.89,0,1.42-.48,1.42-1.19s-.41-1.14-1.57-1.52c-1.39-.45-2-1.07-2-2.09,0-1.11.95-1.76,2.03-1.76Z"/>
      <path class="cls-7" d="M237.35,359.92c-1.88,0-3.31-1.45-3.31-3.42s1.42-3.42,3.31-3.42,3.31,1.43,3.31,3.42-1.43,3.42-3.31,3.42ZM236.34,359.24c.27.27.59.41,1.01.41s.74-.14,1.01-.41c.45-.45.69-1.28.69-2.74s-.24-2.29-.69-2.74c-.27-.27-.59-.41-1.01-.41s-.74.14-1.01.41c-.45.45-.69,1.28-.69,2.74s.24,2.29.69,2.74Z"/>
      <path class="cls-7" d="M241.54,359.47h.8c.23,0,.26-.03.26-.26v-5.42c0-.23-.03-.26-.26-.26h-.62c-.06,0-.09-.02-.09-.14s.03-.14.09-.14h2.08c.23,0,.26.03.26.26,0,.21-.03.62-.06.92l.04.03c.26-.72.86-1.39,2.03-1.39,1.52,0,2.36.83,2.36,2.33v3.8c0,.23.03.26.26.26h.62c.06,0,.09.01.09.14s-.03.14-.09.14h-3.31c-.06,0-.09-.01-.09-.14s.03-.14.09-.14h.69c.23,0,.26-.03.26-.26v-3.96c0-1.36-.57-1.84-1.33-1.84s-1.37.69-1.54,1.72v4.08c0,.23.03.26.26.26h.69c.06,0,.09.01.09.14s-.03.14-.09.14h-3.49c-.06,0-.09-.01-.09-.14s.03-.14.09-.14Z"/>
      <path class="cls-7" d="M252.51,353.08c.81,0,1.14.38,1.42.38.15,0,.21-.08.32-.2.05-.06.09-.09.17-.09s.11.04.11.12v1.69s-.06.09-.14.09-.12-.03-.14-.09c-.27-1.13-.78-1.63-1.73-1.63-.68,0-1.07.41-1.07,1.01,0,.48.32.96,1.51,1.36,1.48.48,2.06,1.2,2.06,2.14,0,1.21-.86,2.06-2.38,2.06-.96,0-1.3-.42-1.76-.42-.15,0-.26.08-.39.24-.04.06-.09.09-.17.09s-.11-.05-.11-.12v-2.33s.04-.09.14-.09c.11,0,.12.04.14.09.3,1.46.99,2.27,2.15,2.27.89,0,1.42-.48,1.42-1.19s-.41-1.14-1.57-1.52c-1.39-.45-2-1.07-2-2.09,0-1.11.95-1.76,2.03-1.76Z"/>
      <path class="cls-4" d="M165.61,180.58c.38.28.75.57,1.07.87-.8.52-1.67.99-2.58,1.42-.25-.13-.42-.32-.52-.55.67-.64,1.36-1.21,2.04-1.72l-.02-.02Z"/>
      <path class="cls-6" d="M87.13,229.16c-31.94-29.83-37.23-64.59-17.59-78.63.87-.84,2.26-.84,3,.12,5.04,6.5,7.75,25.78,8.02,26.58l.64.79c.28-4.32-.13-8.71-1.34-13.14l-5.11-14.36-.22-1.05c2.31-.97,4.99-.44,6.71,1.37,6.65,6.91,13.96,18.25,15.43,30.57.17,1.41.08,2.85-.25,4.22-10.13,32.53-9.29,43.54-9.29,43.54Z"/>
      <path class="cls-5" d="M70.67,126.9c8.39-7.03,14.25-13.66,16.72-25.91.08-.4.62-.47.79-.1,4.44,9.58,4.25,18.11-.44,26.9-.1.17-.2.35-.3.55-1.69,2.93-2.81,4.17-6.68,7.48-6.45,5.52-14.08,8.76-19.05,13.36-3.73,3.38-6.9,8-9.01,13.84-.27.75-1.36.67-1.51-.12-5.56-31.1,7.48-50.79,34.35-63.63.38-.18.84.17.75.59-2.56,12.2-7.82,17.75-15.95,27.19"/>
      <path class="cls-8" d="M98.69,94.87c12.2,1.29,24.06,2.91,32.31,7.99.89.7.65,1.22-.4.95,0,0-29.23-8.42-39.68-5.32l13.88,15.99c6.21,6.61,14.5,11.08,23.54,12.1.55.07,5.84.54,6.41.54,23.07.27,25.76-.72,37.11,6.56-8.09-32.14-32.02-45.82-73.64-38.89"/>
      <path class="cls-6" d="M235.43,93.38c-31.77-2.41-56.1,10.26-63.56,25.43-.82,1.84-.2,2.33,2.46.89l14.85-9.48c.99-.65,1.57-.9.89.2-4.69,3.16-9.71,6.98-13.59,10.8-.97.69-1,2.01,0,2.71,6.01,4.8,18.73,4.32,28.43.67,3.25-1.64,6.08-3.3,8.4-4.99,3.7-2.78,4.6-3.35,7.43-11.2,2.41-6.68,8.45-9.61,14.71-15.05l-.02.02Z"/>
      <path class="cls-8" d="M239.47,94.02c8.49,7.63,18.21,19.44,22.63,29.45.1.23-.22.4-.37.2-7.37-10.23-15.84-20.02-23.86-25.66-2.9,7.58-5.04,19.9-1.96,29.33,3.31,10.13,7.17,16.02,16.04,21.9,11.65,7.72,21.96,29.25,18.98,39.61,20.04-40.71,7.25-84.39-31.47-94.85"/>
      <path class="cls-6" d="M256.58,178.96c4.02,7.28,6.09,15.43,6.51,24.32.03.74,1.05.94,1.37.27,8.52-17.88,4.97-32.34-10.48-44.03-7.11-5.37-13.33-11.72-19.13-19.32,4.17,9.44,4.24,19.82,3.01,27.97-1.52,10.11.65,20.54,6.65,28.81,3.42,4.7,7.65,8.35,12.67,11,1.12.59,2.48-.2,2.54-1.47.47-8.91-.87-18.03-3.68-27.34-.1-.32.37-.52.54-.22h0Z"/>
      <path class="cls-8" d="M203.29,225.33c9.22.39,17.9,1.44,25.71,3.5,1.62.42,3.28.72,4.94.7,8.1-.13,14.36-4.03,21.19-12.37.7-.87.03-2.24-1.07-2.46-3.4-.69-11.22-.45-22.26.45,9.02-1.74,15.32-3.13,22.5-1.61,1.17-.08,1.82-1.49,1.05-2.38l-.02-.03c-10.56-10.97-21.8-13.38-34.08-3.9-1.36,1.05-2.56,2.31-3.57,3.72-4.87,6.78-9.73,10.95-14.56,13.71-.32.18-.2.65.17.67h0Z"/>
      <path class="cls-6" d="M205.42,249.09c-1.09.94-1.51.47-.95-.52,6.28-6.33,13.38-11.77,23.67-13.53,1.1-.18.87-1.21-.03-1.79-.32-.22-1.71-.94-2.68-.94-16.27,0-31.66,2.51-32.91,19.03-.84,10.91-7.35,19.72-12.49,26.35,13.38-4.12,25.83-10.03,36.6-19.18.95-.8,1.94-1.56,2.93-2.33,4.12-3.16,8.1-11.1,12.29-19.37.27-3.4-7.01-.7-20.06,6.66-1.79,1-3.47,2.23-4.89,3.7-.62.64-1.17,1.31-1.61,1.99"/>
      <path class="cls-1" d="M147.36,229.63c-1.52,4.49-3.88,8.72-7.18,12.67-.23.28-.7.08-.67-.28,2.9-13.79,4.7-26.43,4.3-36.66-.1-2.53-1.34-4.89-3.45-6.33-7.85-5.36-17.09-9.76-26.77-13.86-.45-.18-.37-.85.12-.92,14.35-.94,26.5,1.29,33.56-2.13,2.39-1.16,4.25-2.46,6.09-3.15,1.37-.52,2.06-2.04,1.51-3.4-.54-3.8-2.54-8.22-5.27-12.96-22.58-7.8-41.32-17.38-62.88-21.78-.8-.2-.89-1.31-.12-1.61,10.06-4.05,22.72-5.16,39.57-1.51,5.69,1.72,13.86,2.09,23.14,1.87,6.6-.69,14.48.22,22.93,1.86,6.46,1.51,12.35,6.51,17.23,12.72.92,1.17,2.66,1.26,3.68.17,4.32-4.64,9.37-6.06,18.21-2.9.28.1.59.13.89.08l7.75-1.39-1.91,4.6c-.1.27-.2.54-.27.8l-1.32,5.56c-.1.42-.28.79-.54,1.12-4.84,3.4-2.46,7.88-10.68,12-1.84,1.24-2.46,3.42-1.84,6.56,3.47,12.37,2.41,22.98-3.03,31.91-7.38,14.6-15.62,19.64-24.07,35.47-6.78,10.6-14.83,18.08-23.59,23.82-1.19.77-2.65-.49-2.03-1.76,3.38-6.85,7.68-14.35,9.69-23.42,2.81-12.79,7.6-25.31,12.62-38.54.23-.62.08-1.32-.39-1.77l-2.53-3.63c-1.1-1.1-3.13-1.74-4.19-.59-2.04,2.23-5.37,6.29-10.88,9.94-3.36,4.22-5.93,10.31-7.38,16.49-.08.33-.2.67-.38.97l.05-.07Z"/>
      <path class="cls-2" d="M214.77,157.8l.47.74c-1.96,7.18-5.61,12.46-11.32,15.38-.38.2-.84-.1-.82-.52.05-2.16.32-4.17,1.69-5.27,3.85-3.13,2.8-2.65,3.25-2.71,2.68-.44,4.84-.99,4.82-5.26,0-.23.08-.49.25-.65l1.67-1.71h-.02Z"/>
    </g>
  </g>
</svg>