<?xml version="1.0" encoding="UTF-8"?>
<svg id="Layer_2" data-name="Layer 2" xmlns="http://www.w3.org/2000/svg" viewBox="0 0 609.54 832">
  <defs>
    <style>
      .cls-1 {
        fill: #190808;
      }

      .cls-2 {
        fill: #a24035;
      }

      .cls-3 {
        fill: #fffadf;
      }

      .cls-4 {
        fill: #fff;
      }

      .cls-5 {
        fill: #60632a;
      }

      .cls-6 {
        fill: #a79f43;
      }

      .cls-7 {
        fill: #44491e;
      }

      .cls-8 {
        fill: #4e491d;
      }
    </style>
  </defs>
  <g id="Layer_2-2" data-name="Layer 2">
    <rect class="cls-3" width="609.54" height="832"/>
    <g>
      <path class="cls-7" d="M82.93,129.8h4.33c.93,0,1.05-.12,1.05-1.05v-41.1c0-.93-.12-1.05-1.05-1.05h-4.14c-.25,0-.37-.06-.37-.56s.12-.56.37-.56h19.59c.25,0,.37.06.37.56s-.12.56-.37.56h-5.75c-.93,0-1.05.12-1.05,1.05v41.1c0,.93.12,1.05,1.05,1.05h7.17c8.9,0,11.56-4.14,13.1-14.03.06-.31.25-.43.56-.43.25,0,.56.12.56.43v14.03c0,.87-.19,1.11-1.05,1.11h-34.36c-.25,0-.37-.06-.37-.56s.12-.56.37-.56Z"/>
      <g>
        <path class="cls-7" d="M116.73,85.49h17.43c.25,0,.37.06.37.56s-.12.56-.37.56h-4.57c-.93,0-.99.12-.49,1.05l7.97,14.15c1.3,2.35,2.78,5.07,4.14,7.85h.25l6.37-11.93c4.76-8.9,5.13-10.88-1.73-11.12-.25,0-.37-.12-.37-.56,0-.49.12-.56.37-.56h12.54c.25,0,.37.06.37.56,0,.37-.12.56-.49.56-3.15.25-4.33,1.54-9.64,11.5l-6.98,13.04v17.61c0,.93.12,1.05,1.05,1.05h4.51c.25,0,.37.06.37.56s-.12.56-.37.56h-18.73c-.25,0-.37-.06-.37-.56s.12-.56.37-.56h4.51c.93,0,1.05-.12,1.05-1.05v-17.61l-13.35-23.48c-.49-.93-.62-1.05-1.54-1.05h-2.66c-.25,0-.37-.06-.37-.56s.12-.56.37-.56Z"/>
        <path class="cls-7" d="M160.23,129.8c5.07-.25,5.87-2.1,5.87-10.69v-31.46c0-.93-.12-1.05-1.05-1.05h-4.26c-.25,0-.37-.06-.37-.56s.12-.56.37-.56h12.92c.56,0,.87.25,1.24.8l20.27,32.44h.25v-21.44c0-8.59-.74-10.44-6.92-10.69-.25,0-.37-.19-.37-.56,0-.49.12-.56.37-.56h14.03c.25,0,.37.06.37.56,0,.37-.12.56-.37.56-5.07.25-5.87,2.1-5.87,10.69v32.69c0,.49-.06.93-.68.93h-1.85c-.56,0-.87-.31-1.11-.74l-25.46-40.97h-.25v29.91c0,8.59.74,10.44,7.6,10.69.25,0,.37.19.37.56,0,.5-.12.56-.37.56h-14.71c-.25,0-.37-.06-.37-.56,0-.37.12-.56.37-.56Z"/>
        <path class="cls-7" d="M204.66,129.8c5.07-.25,5.87-2.1,5.87-10.69v-31.46c0-.93-.12-1.05-1.05-1.05h-4.26c-.25,0-.37-.06-.37-.56s.12-.56.37-.56h12.92c.56,0,.87.25,1.24.8l20.27,32.44h.25v-21.44c0-8.59-.74-10.44-6.92-10.69-.25,0-.37-.19-.37-.56,0-.49.12-.56.37-.56h14.03c.25,0,.37.06.37.56,0,.37-.12.56-.37.56-5.07.25-5.87,2.1-5.87,10.69v32.69c0,.49-.06.93-.68.93h-1.85c-.56,0-.87-.31-1.11-.74l-25.46-40.97h-.25v29.91c0,8.59.74,10.44,7.6,10.69.25,0,.37.19.37.56,0,.5-.12.56-.37.56h-14.71c-.25,0-.37-.06-.37-.56,0-.37.12-.56.37-.56Z"/>
        <path class="cls-7" d="M267.32,129.8h4.33c.93,0,1.05-.12,1.05-1.05v-41.1c0-.93-.12-1.05-1.05-1.05h-4.14c-.25,0-.37-.06-.37-.56s.12-.56.37-.56h20.7c13.47,0,22.74,9.21,22.74,22.74s-9.27,22.68-22.12,22.68h-21.51c-.25,0-.37-.06-.37-.56s.12-.56.37-.56ZM297.29,90.07c-2.04-2.04-5.13-3.46-9.08-3.46h-6.86c-.93,0-1.05.12-1.05,1.05v41.1c0,.93.12,1.05,1.05,1.05h7.48c3.58,0,6.37-1.24,8.47-3.34,3.15-3.15,4.94-8.28,4.94-18.23s-1.79-15.02-4.94-18.17Z"/>
        <path class="cls-7" d="M315.77,129.8h4.33c.93,0,1.05-.12,1.05-1.05v-41.1c0-.93-.12-1.05-1.05-1.05h-4.14c-.25,0-.37-.06-.37-.56s.12-.56.37-.56h33.74c.87,0,1.05.25,1.05,1.11v10.88c0,.25-.12.37-.62.37-.31,0-.43-.12-.49-.43-1.11-7.6-4.94-10.82-10.81-10.82h-9.02c-.93,0-1.05.12-1.05,1.05v18.35h2.66c6.37,0,8.1-1.73,8.9-7.29.06-.31.19-.43.49-.43.49,0,.62.12.62.37v15.82c0,.25-.12.37-.62.37-.31,0-.43-.19-.49-.49-.8-5.56-2.53-7.23-8.9-7.23h-2.66v21.63c0,.93.12,1.05,1.05,1.05h8.28c7.79,0,11.19-4.14,12.61-13.66.06-.31.25-.43.56-.43.49,0,.56.12.56.37v13.72c0,.87-.19,1.11-1.05,1.11h-34.98c-.25,0-.37-.06-.37-.56s.12-.56.37-.56Z"/>
        <path class="cls-7" d="M355.63,129.8c5.07-.25,5.87-2.1,5.87-10.69v-31.46c0-.93-.12-1.05-1.05-1.05h-4.26c-.25,0-.37-.06-.37-.56s.12-.56.37-.56h12.48c.56,0,1.05.25,1.24.8l10.01,29.23c.93,2.66,1.61,4.88,1.85,6.18h.25l12.11-35.41c.19-.56.49-.8,1.3-.8h12.05c.25,0,.37.06.37.56s-.12.56-.37.56h-4.02c-.93,0-1.05.12-1.05,1.05v41.1c0,.93.12,1.05,1.05,1.05h4.63c.25,0,.37.06.37.56s-.12.56-.37.56h-19.03c-.25,0-.37-.06-.37-.56s.12-.56.37-.56h4.7c.93,0,1.05-.12,1.05-1.05v-39.8h-.31l-14.21,41.22c-.12.49-.37.74-.99.74h-.99c-.56,0-.87-.19-1.05-.74l-14.27-41.41h-.25v30.34c0,8.59.74,10.44,6.98,10.69.25,0,.37.19.37.56,0,.5-.12.56-.37.56h-14.09c-.25,0-.37-.06-.37-.56,0-.37.12-.56.37-.56Z"/>
        <path class="cls-7" d="M411.73,129.8h4.33c.93,0,1.05-.12,1.05-1.05v-41.1c0-.93-.12-1.05-1.05-1.05h-4.14c-.25,0-.37-.06-.37-.56s.12-.56.37-.56h33.74c.87,0,1.05.25,1.05,1.11v10.88c0,.25-.12.37-.62.37-.31,0-.43-.12-.49-.43-1.11-7.6-4.94-10.82-10.81-10.82h-9.02c-.93,0-1.05.12-1.05,1.05v18.35h2.66c6.37,0,8.1-1.73,8.9-7.29.06-.31.19-.43.49-.43.49,0,.62.12.62.37v15.82c0,.25-.12.37-.62.37-.31,0-.43-.19-.49-.49-.8-5.56-2.53-7.23-8.9-7.23h-2.66v21.63c0,.93.12,1.05,1.05,1.05h8.28c7.79,0,11.19-4.14,12.61-13.66.06-.31.25-.43.56-.43.49,0,.56.12.56.37v13.72c0,.87-.19,1.11-1.05,1.11h-34.98c-.25,0-.37-.06-.37-.56s.12-.56.37-.56Z"/>
        <path class="cls-7" d="M474.64,106.69v.25c8.22.99,12.67,3.96,12.67,11.87v7.35c0,2.53,1.05,3.77,2.97,3.77.93,0,2.16-.49,3.03-.99.25-.12.8.56.56.8-1.3,1.11-3.28,1.92-5.81,1.92-5.07,0-8.34-2.66-8.34-7.48v-9.27c0-5.13-3.96-7.48-8.65-7.48h-5.56v21.32c0,.93.12,1.05,1.05,1.05h3.83c.25,0,.37.06.37.56s-.12.56-.37.56h-17.86c-.25,0-.37-.06-.37-.56s.12-.56.37-.56h4.33c.93,0,1.05-.12,1.05-1.05v-41.1c0-.93-.12-1.05-1.05-1.05h-4.14c-.25,0-.37-.06-.37-.56s.12-.56.37-.56h17.92c10.38,0,15.51,4.26,15.51,10.63,0,5.75-4.45,9.64-11.49,10.57ZM475.75,88.65c-1.3-1.3-2.78-2.04-5.56-2.04h-3.65c-.93,0-1.05.12-1.05,1.05v18.66h4.26c2.97,0,4.39-.49,5.99-2.1,1.36-1.36,2.53-4.51,2.53-8.1s-1.17-6.12-2.53-7.48Z"/>
        <path class="cls-7" d="M511.72,84.94c4.45,0,6.06,1.79,9.39,1.79,1.11,0,1.54-.43,2.1-1.11.19-.25.43-.37.68-.37.31,0,.43.19.43.68v13.1c0,.19-.25.37-.56.37s-.56-.12-.56-.37c-.93-7.91-4.63-12.98-11.56-12.98-4.63,0-7.6,2.97-7.6,6.67,0,4.33,1.79,6.86,10.38,11,8.84,4.26,12.55,8.03,12.55,14.52,0,7.48-5.69,13.41-14.4,13.41-5.38,0-7.42-2.22-10.38-2.22-1.42,0-2.41.43-3.09,1.42-.19.31-.43.49-.68.49-.31,0-.43-.19-.43-.68v-15.7c0-.18.19-.37.56-.37.43,0,.56.19.56.37,1.36,9.89,5.75,15.57,13.35,15.57,6.18,0,10.01-3.46,10.01-8.22s-2.47-7.54-11.62-11.93c-8.47-4.08-11.19-8.1-11.19-14.03s4.94-11.43,12.05-11.43Z"/>
      </g>
    </g>
    <g>
      <path class="cls-7" d="M89.73,542.06h17.37c.25,0,.37.06.37.56s-.12.56-.37.56h-4.76c-.93,0-.99.12-.68,1.05l9.83,28.06c.68,2.04,1.42,4.45,1.85,6.43h.25l8.16-24.35c3.03-8.96,2.53-10.94-3.4-11.19-.25,0-.37-.06-.37-.56s.12-.56.37-.56h12.67c.25,0,.37.06.37.56,0,.37-.12.56-.49.56-3.46.25-4.76,1.73-8.03,11.5l-11,32.75c-.12.31-.37.49-.68.49h-1.61c-.37,0-.49-.12-.62-.49l-15.08-43.2c-.31-.93-.43-1.05-1.36-1.05h-2.78c-.25,0-.37-.06-.37-.56s.12-.56.37-.56Z"/>
      <g>
        <path class="cls-7" d="M165.24,587.48h-17.37c-.25,0-.37-.06-.37-.56s.12-.56.37-.56h4.76c.93,0,.99-.12.68-1.05l-4.82-13.84h-14.03l-1.24,3.71c-3.03,8.96-2.53,10.94,3.4,11.19.25,0,.37.06.37.56s-.12.56-.37.56h-12.67c-.25,0-.37-.06-.37-.56,0-.37.12-.56.49-.56,3.46-.25,4.76-1.73,8.03-11.49l11-32.75c.12-.31.37-.5.68-.5h1.61c.37,0,.49.12.62.5l15.08,43.2c.31.93.43,1.05,1.36,1.05h2.78c.25,0,.37.06.37.56s-.12.56-.37.56ZM134.78,570.36h13.35l-4.57-13.1c-.68-2.04-1.42-4.33-1.92-6.43h-.25l-6.61,19.53Z"/>
        <path class="cls-7" d="M167.77,586.37h4.33c.93,0,1.05-.12,1.05-1.05v-41.1c0-.93-.12-1.05-1.05-1.05h-4.14c-.25,0-.37-.06-.37-.56s.12-.56.37-.56h19.59c.25,0,.37.06.37.56s-.12.56-.37.56h-5.75c-.93,0-1.05.12-1.05,1.05v41.1c0,.93.12,1.05,1.05,1.05h7.17c8.9,0,11.56-4.14,13.1-14.03.06-.31.25-.43.56-.43.25,0,.56.12.56.43v14.03c0,.87-.19,1.11-1.05,1.11h-34.36c-.25,0-.37-.06-.37-.56s.12-.56.37-.56Z"/>
        <path class="cls-7" d="M208,542.06h18.11c.25,0,.37.06.37.56s-.12.56-.37.56h-4.51c-.93,0-1.05.12-1.05,1.05v29.29c0,8.71,4.08,13.16,10.88,13.16s11.31-4.45,11.31-13.16v-19.65c0-8.59-.74-10.44-6.61-10.69-.25,0-.37-.06-.37-.56s.12-.56.37-.56h13.72c.25,0,.37.06.37.56s-.12.56-.37.56c-5.07.25-5.87,2.1-5.87,10.69v19.65c0,9.46-5.01,14.71-15.14,14.71-9.46,0-15.88-5.25-15.88-14.71v-29.29c0-.93-.12-1.05-1.05-1.05h-3.89c-.25,0-.37-.06-.37-.56s.12-.56.37-.56Z"/>
        <path class="cls-7" d="M252.06,586.37h4.33c.93,0,1.05-.12,1.05-1.05v-41.1c0-.93-.12-1.05-1.05-1.05h-4.14c-.25,0-.37-.06-.37-.56s.12-.56.37-.56h33.74c.87,0,1.05.25,1.05,1.11v10.88c0,.25-.12.37-.62.37-.31,0-.43-.12-.49-.43-1.11-7.6-4.94-10.82-10.81-10.82h-9.02c-.93,0-1.05.12-1.05,1.05v18.35h2.66c6.37,0,8.1-1.73,8.9-7.29.06-.31.19-.43.49-.43.49,0,.62.12.62.37v15.82c0,.25-.12.37-.62.37-.31,0-.43-.19-.49-.49-.8-5.56-2.53-7.23-8.9-7.23h-2.66v21.63c0,.93.12,1.05,1.05,1.05h8.28c7.79,0,11.19-4.14,12.61-13.66.06-.31.25-.43.56-.43.49,0,.56.12.56.37v13.72c0,.87-.19,1.11-1.05,1.11h-34.98c-.25,0-.37-.06-.37-.56s.12-.56.37-.56Z"/>
        <path class="cls-7" d="M307.86,541.5c4.45,0,6.06,1.79,9.39,1.79,1.11,0,1.54-.43,2.1-1.11.19-.25.43-.37.68-.37.31,0,.43.19.43.68v13.1c0,.19-.25.37-.56.37s-.56-.12-.56-.37c-.93-7.91-4.63-12.98-11.56-12.98-4.63,0-7.6,2.97-7.6,6.67,0,4.33,1.79,6.86,10.38,11,8.84,4.26,12.55,8.03,12.55,14.52,0,7.48-5.69,13.41-14.4,13.41-5.38,0-7.42-2.22-10.38-2.22-1.42,0-2.41.43-3.09,1.42-.19.31-.43.49-.68.49-.31,0-.43-.19-.43-.68v-15.7c0-.18.19-.37.56-.37.43,0,.56.19.56.37,1.36,9.89,5.75,15.57,13.35,15.57,6.18,0,10.01-3.46,10.01-8.22s-2.47-7.54-11.62-11.93c-8.47-4.08-11.19-8.1-11.19-14.03s4.94-11.43,12.05-11.43Z"/>
        <path class="cls-7" d="M345,586.37h4.33c.93,0,1.05-.12,1.05-1.05v-41.1c0-.93-.12-1.05-1.05-1.05h-4.14c-.25,0-.37-.06-.37-.56s.12-.56.37-.56h20.7c13.47,0,22.74,9.21,22.74,22.74s-9.27,22.68-22.12,22.68h-21.51c-.25,0-.37-.06-.37-.56s.12-.56.37-.56ZM374.97,546.63c-2.04-2.04-5.13-3.46-9.08-3.46h-6.86c-.93,0-1.05.12-1.05,1.05v41.1c0,.93.12,1.05,1.05,1.05h7.48c3.58,0,6.37-1.24,8.47-3.34,3.15-3.15,4.94-8.28,4.94-18.23s-1.79-15.02-4.94-18.17Z"/>
        <path class="cls-7" d="M393.44,586.37h4.33c.93,0,1.05-.12,1.05-1.05v-41.1c0-.93-.12-1.05-1.05-1.05h-4.14c-.25,0-.37-.06-.37-.56s.12-.56.37-.56h33.74c.87,0,1.05.25,1.05,1.11v10.88c0,.25-.12.37-.62.37-.31,0-.43-.12-.49-.43-1.11-7.6-4.94-10.82-10.81-10.82h-9.02c-.93,0-1.05.12-1.05,1.05v18.35h2.66c6.37,0,8.1-1.73,8.9-7.29.06-.31.19-.43.49-.43.49,0,.62.12.62.37v15.82c0,.25-.12.37-.62.37-.31,0-.43-.19-.49-.49-.8-5.56-2.53-7.23-8.9-7.23h-2.66v21.63c0,.93.12,1.05,1.05,1.05h8.28c7.79,0,11.19-4.14,12.61-13.66.06-.31.25-.43.56-.43.49,0,.56.12.56.37v13.72c0,.87-.19,1.11-1.05,1.11h-34.98c-.25,0-.37-.06-.37-.56s.12-.56.37-.56Z"/>
        <path class="cls-7" d="M455.36,541.5c5.44,0,8.28,2.41,10.75,2.41,1.11,0,1.98-.43,2.47-1.24.31-.49.56-.62.8-.62.31,0,.43.19.43.68v13.35c0,.19-.25.37-.56.37s-.49-.12-.56-.37c-1.42-9.15-5.01-13.47-13.35-13.47-2.84,0-5.5.99-7.54,3.03-2.66,2.66-4.02,6.43-4.02,19.22s1.36,16.56,4.02,19.22c2.04,2.04,4.7,3.03,7.54,3.03,7.42,0,12.61-5.81,14.03-15.57.06-.25.25-.37.56-.37.25,0,.56.12.56.37v15.45c0,.49-.06.68-.43.68s-.49-.12-.8-.62c-.68-1.05-1.67-1.54-2.78-1.54-3.15,0-5.44,2.72-11.12,2.72-11.19,0-20.27-10.01-20.27-23.36s9.08-23.36,20.27-23.36Z"/>
        <path class="cls-7" d="M476.43,586.37h4.33c.93,0,1.05-.12,1.05-1.05v-41.1c0-.93-.12-1.05-1.05-1.05h-4.14c-.25,0-.37-.06-.37-.56s.12-.56.37-.56h17.98c.25,0,.37.06.37.56s-.12.56-.37.56h-4.14c-.93,0-1.05.12-1.05,1.05v18.29l10.2-9.15c10.81-9.7,9.21-9.95,2.84-10.2-.25,0-.37-.18-.37-.56,0-.49.12-.56.37-.56h15.26c.25,0,.37.06.37.56,0,.37-.12.56-.49.56-4.33.25-5.31.43-17.18,10.94l-5.62,5.01,19.71,26.2c.74.93.93,1.05,1.85,1.05h3.46c.25,0,.37.06.37.56s-.12.56-.37.56h-19.34c-.25,0-.37-.06-.37-.56s.12-.56.37-.56h4.94c.93,0,1.05-.12.31-1.05l-11.99-15.88c-.99-1.3-3.83-5.19-4.08-5.69h-.25v21.57c0,.93.12,1.05,1.05,1.05h4.14c.25,0,.37.06.37.56s-.12.56-.37.56h-18.17c-.25,0-.37-.06-.37-.56s.12-.56.37-.56Z"/>
      </g>
    </g>
    <g>
      <g>
        <path class="cls-7" d="M130.22,609.9c2.45,0,3.73,1.08,4.84,1.08.5,0,.89-.2,1.11-.56.14-.22.25-.28.36-.28.14,0,.19.08.19.31v6c0,.08-.11.17-.25.17s-.22-.06-.25-.17c-.64-4.11-2.25-6.06-6-6.06-1.28,0-2.47.44-3.39,1.36-1.2,1.2-1.81,2.89-1.81,8.65s.61,7.45,1.81,8.65c.92.92,2.11,1.36,3.39,1.36,3.34,0,5.67-2.61,6.31-7.01.03-.11.11-.17.25-.17.11,0,.25.06.25.17v6.95c0,.22-.03.31-.19.31s-.22-.06-.36-.28c-.31-.47-.75-.7-1.25-.7-1.42,0-2.45,1.22-5,1.22-5.03,0-9.12-4.5-9.12-10.51s4.09-10.51,9.12-10.51Z"/>
        <path class="cls-7" d="M145.99,630.92c-3.48,0-6.12-2.67-6.12-6.31s2.61-6.31,6.12-6.31,6.12,2.64,6.12,6.31-2.64,6.31-6.12,6.31ZM144.13,629.67c.5.5,1.08.75,1.86.75s1.36-.25,1.86-.75c.83-.83,1.28-2.36,1.28-5.06s-.44-4.23-1.28-5.06c-.5-.5-1.08-.75-1.86-.75s-1.36.25-1.86.75c-.83.83-1.28,2.36-1.28,5.06s.44,4.23,1.28,5.06Z"/>
        <path class="cls-7" d="M158.81,623.91c1.06,0,1.81.25,2.42.53v-2.7c0-2.11-1-2.95-2.36-2.95s-2.08.58-2.08,1.14c0,.64.53.89.53,1.64,0,.58-.44,1.08-1.14,1.08s-1.2-.69-1.2-1.5c0-1.36,1.64-2.86,3.89-2.86,3.39,0,5.06,1.61,5.06,4.39v6.37c0,.89.33,1.17.89,1.17.33,0,.78-.14,1.06-.31.14-.08.39.33.28.42-.64.39-1.28.58-2.06.58-1.22,0-2.28-.92-2.64-2.06h-.11c-.44,1.31-1.61,2.06-3.09,2.06-2.81,0-4.06-1.58-4.06-3.48,0-2.25,1.67-3.53,4.61-3.53ZM159.06,630.31c1.11,0,2-1.08,2.17-2.92v-2.42c-.47-.31-1.17-.58-1.89-.58-1.36,0-2.25.75-2.25,3.06,0,2.14.7,2.86,1.97,2.86Z"/>
      </g>
      <path class="cls-7" d="M176.15,623.05c-.64,0-1.06-.47-1.06-1.03,0-.75.56-1.08.56-1.81s-.69-1.42-2.08-1.42c-.78,0-1.36.25-1.86.75-.83.83-1.28,2.36-1.28,5.06s.44,4.09,1.28,4.92c.5.5,1.28.78,2.06.78,1.67,0,2.81-1.31,3.61-2.64.08-.14.47.08.42.22-.83,1.61-2.42,3.03-4.45,3.03-3.25,0-5.89-2.67-5.89-6.31s2.61-6.31,6.12-6.31c2.08,0,4.09,1.42,4.09,3.14,0,.97-.83,1.61-1.5,1.61Z"/>
      <g>
        <path class="cls-7" d="M179.25,630.08h1.45c.42,0,.47-.06.47-.47v-18.99c0-.42-.06-.47-.47-.47h-1.17c-.11,0-.14-.03-.14-.25s.03-.25.14-.25h3.92c.42,0,.47.06.47.47v8.23c0,.67-.08,1.83-.17,2.45l.08.06c.44-1.33,1.56-2.56,3.73-2.56,2.95,0,4.53,1.56,4.53,4.31v7.01c0,.42.06.47.47.47h1.08c.11,0,.17.03.17.25s-.06.25-.17.25h-6.09c-.11,0-.17-.03-.17-.25s.06-.25.17-.25h1.31c.42,0,.47-.06.47-.47v-7.26c0-2.36-.97-3.45-2.56-3.45-1.45,0-2.56,1.28-2.86,3.11v7.59c0,.42.06.47.47.47h1.47c.11,0,.17.03.17.25s-.06.25-.17.25h-6.62c-.11,0-.17-.03-.17-.25s.06-.25.17-.25Z"/>
        <path class="cls-7" d="M194.79,630.08h1.47c.42,0,.47-.06.47-.47v-10.01c0-.42-.06-.47-.47-.47h-1.2c-.11,0-.17-.03-.17-.25s.06-.25.17-.25h3.95c.42,0,.47.06.47.47v10.51c0,.42.06.47.47.47h1.28c.11,0,.17.03.17.25s-.06.25-.17.25h-6.45c-.11,0-.17-.03-.17-.25s.06-.25.17-.25ZM197.93,610.15c1,0,1.78.83,1.78,1.75s-.78,1.72-1.78,1.72-1.75-.81-1.75-1.72.75-1.75,1.75-1.75Z"/>
        <path class="cls-7" d="M202.44,630.08h1.47c.42,0,.47-.06.47-.47v-10.01c0-.42-.06-.47-.47-.47h-1.14c-.11,0-.17-.03-.17-.25s.06-.25.17-.25h3.84c.42,0,.47.06.47.47,0,.39-.06,1.14-.11,1.7l.08.06c.47-1.33,1.58-2.56,3.75-2.56,2.81,0,4.36,1.53,4.36,4.31v7.01c0,.42.06.47.47.47h1.14c.11,0,.17.03.17.25s-.06.25-.17.25h-6.12c-.11,0-.17-.03-.17-.25s.06-.25.17-.25h1.28c.42,0,.47-.06.47-.47v-7.31c0-2.5-1.06-3.39-2.45-3.39s-2.53,1.28-2.84,3.17v7.53c0,.42.06.47.47.47h1.28c.11,0,.17.03.17.25s-.06.25-.17.25h-6.45c-.11,0-.17-.03-.17-.25s.06-.25.17-.25Z"/>
        <path class="cls-7" d="M221.1,631.11v-.11c-1.92-.08-2.89-1.17-2.89-2.56,0-1.56,1.2-2.67,3.28-2.78l.03-.08c-1.36-.58-2.42-1.95-2.42-3.31,0-2.11,1.89-3.98,4.75-3.98,1.33,0,2.47.42,3.31,1.08.33-1.17,1.11-1.78,2.11-1.78,1.17,0,1.75.67,1.75,1.42s-.58,1.33-1.17,1.33c-.53,0-.92-.31-.92-.86,0-.58.39-.81.39-1.11,0-.17-.19-.31-.39-.31-.64,0-1.22.64-1.45,1.61.7.7,1.11,1.61,1.11,2.59,0,2.28-1.83,3.95-4.75,3.95-.64,0-1.25-.19-1.83-.19-1.78,0-2.75.58-2.75,1.58,0,.7.53,1.08,1.42,1.08h4.75c3.09,0,4.87,1.67,4.87,4,0,3.09-2.89,5.53-6.45,5.53-3.75,0-5.7-1.58-5.7-3.64,0-1.67,1.2-2.83,2.95-3.47ZM223.85,637.73c2.92,0,4.81-1.72,4.81-3.86,0-1.78-1.25-2.75-2.98-2.75h-3.53c-1.2.33-1.97,1.2-1.97,3.47,0,2.03,1.06,3.14,3.67,3.14ZM222.4,625.19c.36.36.86.56,1.45.56s1.08-.19,1.45-.56c.56-.56.83-1.39.83-2.92s-.28-2.39-.83-2.95c-.36-.36-.86-.56-1.45-.56s-1.08.19-1.45.56c-.56.56-.83,1.39-.83,2.95s.28,2.36.83,2.92Z"/>
        <path class="cls-7" d="M239.67,630.08h1.95c.42,0,.47-.06.47-.47v-18.49c0-.42-.06-.47-.47-.47h-1.86c-.11,0-.17-.03-.17-.25s.06-.25.17-.25h15.18c.39,0,.47.11.47.5v4.89c0,.11-.06.17-.28.17-.14,0-.19-.06-.22-.19-.5-3.42-2.22-4.87-4.87-4.87h-4.06c-.42,0-.47.06-.47.47v8.26h1.2c2.86,0,3.64-.78,4-3.28.03-.14.08-.19.22-.19.22,0,.28.05.28.17v7.12c0,.11-.06.17-.28.17-.14,0-.19-.08-.22-.22-.36-2.5-1.14-3.25-4-3.25h-1.2v9.73c0,.42.06.47.47.47h3.73c3.5,0,5.03-1.86,5.67-6.14.03-.14.11-.19.25-.19.22,0,.25.06.25.17v6.17c0,.39-.08.5-.47.5h-15.74c-.11,0-.17-.03-.17-.25s.06-.25.17-.25Z"/>
      </g>
      <g>
        <path class="cls-7" d="M257.38,618.63h6.23c.11,0,.17.03.17.25s-.06.25-.19.25h-1.5c-.42,0-.42.06-.25.47l2.28,5.7c.28.67.72,1.89,1.03,2.81h.11l1.72-4.87c1.28-3.61,1-4-.92-4.11-.11,0-.17-.06-.17-.25,0-.22.06-.25.17-.25h4.36c.11,0,.17.03.17.25,0,.19-.06.25-.17.25-1.2.11-1.5.42-2.89,4.25l-2.59,7.06c-.06.14-.17.22-.31.22h-.97c-.17,0-.19-.06-.28-.22l-4.34-10.84c-.17-.42-.22-.47-.64-.47h-1.03c-.11,0-.17-.03-.17-.25s.06-.25.17-.25Z"/>
        <path class="cls-7" d="M277.43,630.92c-3.48,0-6.12-2.67-6.12-6.31s2.61-6.31,6.12-6.31,6.12,2.64,6.12,6.31-2.64,6.31-6.12,6.31ZM275.57,629.67c.5.5,1.08.75,1.86.75s1.36-.25,1.86-.75c.83-.83,1.28-2.36,1.28-5.06s-.44-4.23-1.28-5.06c-.5-.5-1.08-.75-1.86-.75s-1.36.25-1.86.75c-.83.83-1.28,2.36-1.28,5.06s.44,4.23,1.28,5.06Z"/>
      </g>
      <g>
        <path class="cls-7" d="M284.75,630.08h1.61c.42,0,.47-.06.47-.47v-18.99c0-.42-.06-.47-.47-.47h-1.31c-.11,0-.17-.03-.17-.25s.06-.25.17-.25h4.06c.42,0,.47.06.47.47v19.49c0,.42.06.47.47.47h1.28c.11,0,.17.03.17.25s-.06.25-.17.25h-6.59c-.11,0-.17-.03-.17-.25s.06-.25.17-.25Z"/>
        <path class="cls-7" d="M292.7,618.63h3.98c.42,0,.47.06.47.47v7.81c0,2.31.95,3.39,2.42,3.39s2.34-1.25,2.72-3.2v-7.51c0-.42-.06-.47-.47-.47h-1.33c-.11,0-.17-.03-.17-.25s.06-.25.17-.25h4.09c.42,0,.47.06.47.47v10.51c0,.42.06.47.47.47h1.14c.11,0,.17.03.17.25s-.06.25-.17.25h-3.78c-.42,0-.47-.08-.47-.47,0-.22.03-1.17.06-1.78l-.08-.06c-.5,1.47-1.5,2.64-3.56,2.64-2.89,0-4.42-1.56-4.42-4.81v-6.51c0-.42-.06-.47-.47-.47h-1.22c-.11,0-.17-.03-.17-.25s.06-.25.17-.25Z"/>
        <path class="cls-7" d="M308,618.63h1.7v-.25c0-.11.03-.19.11-.31.81-1.14,1.39-2.22,1.95-3.42.14-.28.19-.33.36-.33.22,0,.33.06.33.47v3.84h3.09c.11,0,.17.03.17.25s-.06.25-.17.25h-3.09v9.2c0,1.22.42,1.64,1.17,1.64.64,0,1.33-.5,1.95-1.67.08-.17.53.03.44.19-.75,1.67-1.81,2.42-3.2,2.42-1.97,0-3.11-1.25-3.11-3.75v-8.03h-1.7c-.11,0-.17-.03-.17-.25s.06-.25.17-.25Z"/>
        <path class="cls-7" d="M317.4,630.08h1.47c.42,0,.47-.06.47-.47v-10.01c0-.42-.06-.47-.47-.47h-1.2c-.11,0-.17-.03-.17-.25s.06-.25.17-.25h3.95c.42,0,.47.06.47.47v10.51c0,.42.06.47.47.47h1.28c.11,0,.17.03.17.25s-.06.25-.17.25h-6.45c-.11,0-.17-.03-.17-.25s.06-.25.17-.25ZM320.54,610.15c1,0,1.78.83,1.78,1.75s-.78,1.72-1.78,1.72-1.75-.81-1.75-1.72.75-1.75,1.75-1.75Z"/>
        <path class="cls-7" d="M331.66,630.92c-3.48,0-6.12-2.67-6.12-6.31s2.61-6.31,6.12-6.31,6.12,2.64,6.12,6.31-2.64,6.31-6.12,6.31ZM329.8,629.67c.5.5,1.08.75,1.86.75s1.36-.25,1.86-.75c.83-.83,1.28-2.36,1.28-5.06s-.44-4.23-1.28-5.06c-.5-.5-1.08-.75-1.86-.75s-1.36.25-1.86.75c-.83.83-1.28,2.36-1.28,5.06s.44,4.23,1.28,5.06Z"/>
        <path class="cls-7" d="M339.39,630.08h1.47c.42,0,.47-.06.47-.47v-10.01c0-.42-.06-.47-.47-.47h-1.14c-.11,0-.17-.03-.17-.25s.06-.25.17-.25h3.84c.42,0,.47.06.47.47,0,.39-.06,1.14-.11,1.7l.08.06c.47-1.33,1.58-2.56,3.75-2.56,2.81,0,4.36,1.53,4.36,4.31v7.01c0,.42.06.47.47.47h1.14c.11,0,.17.03.17.25s-.06.25-.17.25h-6.12c-.11,0-.17-.03-.17-.25s.06-.25.17-.25h1.28c.42,0,.47-.06.47-.47v-7.31c0-2.5-1.06-3.39-2.45-3.39s-2.53,1.28-2.84,3.17v7.53c0,.42.06.47.47.47h1.28c.11,0,.17.03.17.25s-.06.25-.17.25h-6.45c-.11,0-.17-.03-.17-.25s.06-.25.17-.25Z"/>
        <path class="cls-7" d="M359.97,623.91c1.06,0,1.81.25,2.42.53v-2.7c0-2.11-1-2.95-2.36-2.95s-2.08.58-2.08,1.14c0,.64.53.89.53,1.64,0,.58-.44,1.08-1.14,1.08s-1.2-.69-1.2-1.5c0-1.36,1.64-2.86,3.89-2.86,3.39,0,5.06,1.61,5.06,4.39v6.37c0,.89.33,1.17.89,1.17.33,0,.78-.14,1.06-.31.14-.08.39.33.28.42-.64.39-1.28.58-2.06.58-1.22,0-2.28-.92-2.64-2.06h-.11c-.44,1.31-1.61,2.06-3.09,2.06-2.81,0-4.06-1.58-4.06-3.48,0-2.25,1.67-3.53,4.61-3.53ZM360.22,630.31c1.11,0,2-1.08,2.17-2.92v-2.42c-.47-.31-1.17-.58-1.89-.58-1.36,0-2.25.75-2.25,3.06,0,2.14.7,2.86,1.97,2.86Z"/>
        <path class="cls-7" d="M368.12,630.08h1.47c.42,0,.47-.06.47-.47v-10.01c0-.42-.06-.47-.47-.47h-1.31c-.11,0-.17-.03-.17-.25s.06-.25.17-.25h4c.42,0,.47.06.47.47v.14c0,.28-.06,1.36-.06,1.78l.08.06c.39-1.64,1.56-2.78,3.14-2.78,1.45,0,2.36,1.03,2.36,2.14s-.81,1.78-1.58,1.78c-.69,0-1.17-.47-1.17-1.08,0-.75.47-1,.47-1.53,0-.39-.25-.7-.69-.7-.97,0-2.14,1.22-2.5,4.06v6.64c0,.42.06.47.47.47h1.64c.11,0,.17.03.17.25s-.06.25-.17.25h-6.81c-.11,0-.17-.03-.17-.25s.06-.25.17-.25Z"/>
        <path class="cls-7" d="M378.79,618.63h6.25c.08,0,.14.03.14.25s-.06.25-.17.25h-1.45c-.42,0-.44.06-.28.47l2.28,5.7c.28.7.7,1.89,1,2.75h.11l1.7-4.81c1.28-3.61,1.03-4-.92-4.11-.11,0-.17-.06-.17-.25,0-.22.06-.25.17-.25h4.36c.11,0,.17.03.17.25,0,.19-.08.25-.17.25-1.2.11-1.5.42-2.89,4.25l-4.23,11.62c-.86,2.33-1.64,3.09-3,3.09s-2.17-.97-2.17-2.14c0-.97.81-1.7,1.53-1.7.64,0,1,.36,1,1,0,.75-.83,1.17-.83,1.7,0,.31.19.64.61.64.92,0,1.58-.56,2.42-2.81l1.5-4.12h-.64c-.17,0-.19-.06-.28-.22l-4.34-10.84c-.17-.42-.22-.47-.64-.47h-1.08c-.08,0-.14-.03-.14-.25s.06-.25.14-.25Z"/>
        <path class="cls-7" d="M410.27,609.9c2.45,0,3.73,1.08,4.84,1.08.5,0,.89-.2,1.11-.56.14-.22.25-.28.36-.28.14,0,.19.08.19.31v6c0,.08-.11.17-.25.17s-.22-.06-.25-.17c-.64-4.11-2.25-6.06-6-6.06-1.28,0-2.47.44-3.39,1.36-1.2,1.2-1.81,2.89-1.81,8.65s.61,7.45,1.81,8.65c.92.92,2.11,1.36,3.39,1.36,3.34,0,5.67-2.61,6.31-7.01.03-.11.11-.17.25-.17.11,0,.25.06.25.17v6.95c0,.22-.03.31-.19.31s-.22-.06-.36-.28c-.31-.47-.75-.7-1.25-.7-1.42,0-2.45,1.22-5,1.22-5.03,0-9.12-4.5-9.12-10.51s4.09-10.51,9.12-10.51Z"/>
        <path class="cls-7" d="M419.64,630.08h1.45c.42,0,.47-.06.47-.47v-18.99c0-.42-.06-.47-.47-.47h-1.17c-.11,0-.14-.03-.14-.25s.03-.25.14-.25h3.92c.42,0,.47.06.47.47v8.23c0,.67-.08,1.83-.17,2.45l.08.06c.44-1.33,1.56-2.56,3.73-2.56,2.95,0,4.53,1.56,4.53,4.31v7.01c0,.42.06.47.47.47h1.08c.11,0,.17.03.17.25s-.06.25-.17.25h-6.09c-.11,0-.17-.03-.17-.25s.06-.25.17-.25h1.31c.42,0,.47-.06.47-.47v-7.26c0-2.36-.97-3.45-2.56-3.45-1.45,0-2.56,1.28-2.86,3.11v7.59c0,.42.06.47.47.47h1.47c.11,0,.17.03.17.25s-.06.25-.17.25h-6.62c-.11,0-.17-.03-.17-.25s.06-.25.17-.25Z"/>
        <path class="cls-7" d="M440.27,623.91c1.06,0,1.81.25,2.42.53v-2.7c0-2.11-1-2.95-2.36-2.95s-2.08.58-2.08,1.14c0,.64.53.89.53,1.64,0,.58-.44,1.08-1.14,1.08s-1.2-.69-1.2-1.5c0-1.36,1.64-2.86,3.89-2.86,3.39,0,5.06,1.61,5.06,4.39v6.37c0,.89.33,1.17.89,1.17.33,0,.78-.14,1.06-.31.14-.08.39.33.28.42-.64.39-1.28.58-2.06.58-1.22,0-2.28-.92-2.64-2.06h-.11c-.44,1.31-1.61,2.06-3.09,2.06-2.81,0-4.06-1.58-4.06-3.48,0-2.25,1.67-3.53,4.61-3.53ZM440.52,630.31c1.11,0,2-1.08,2.17-2.92v-2.42c-.47-.31-1.17-.58-1.89-.58-1.36,0-2.25.75-2.25,3.06,0,2.14.7,2.86,1.97,2.86Z"/>
        <path class="cls-7" d="M448.42,630.08h1.47c.42,0,.47-.06.47-.47v-10.01c0-.42-.06-.47-.47-.47h-1.14c-.11,0-.17-.03-.17-.25s.06-.25.17-.25h3.84c.42,0,.47.06.47.47,0,.39-.06,1.14-.11,1.7l.08.06c.47-1.33,1.58-2.56,3.75-2.56,2.81,0,4.36,1.53,4.36,4.31v7.01c0,.42.06.47.47.47h1.14c.11,0,.17.03.17.25s-.06.25-.17.25h-6.12c-.11,0-.17-.03-.17-.25s.06-.25.17-.25h1.28c.42,0,.47-.06.47-.47v-7.31c0-2.5-1.06-3.39-2.45-3.39s-2.53,1.28-2.84,3.17v7.53c0,.42.06.47.47.47h1.28c.11,0,.17.03.17.25s-.06.25-.17.25h-6.45c-.11,0-.17-.03-.17-.25s.06-.25.17-.25Z"/>
      </g>
      <path class="cls-7" d="M467.07,631.11v-.11c-1.92-.08-2.89-1.17-2.89-2.56,0-1.56,1.2-2.67,3.28-2.78l.03-.08c-1.36-.58-2.42-1.95-2.42-3.31,0-2.11,1.89-3.98,4.75-3.98,1.33,0,2.47.42,3.31,1.08.33-1.17,1.11-1.78,2.11-1.78,1.17,0,1.75.67,1.75,1.42s-.58,1.33-1.17,1.33c-.53,0-.92-.31-.92-.86,0-.58.39-.81.39-1.11,0-.17-.19-.31-.39-.31-.64,0-1.22.64-1.45,1.61.7.7,1.11,1.61,1.11,2.59,0,2.28-1.83,3.95-4.75,3.95-.64,0-1.25-.19-1.83-.19-1.78,0-2.75.58-2.75,1.58,0,.7.53,1.08,1.42,1.08h4.75c3.09,0,4.87,1.67,4.87,4,0,3.09-2.89,5.53-6.45,5.53-3.75,0-5.7-1.58-5.7-3.64,0-1.67,1.2-2.83,2.95-3.47ZM469.82,637.73c2.92,0,4.81-1.72,4.81-3.86,0-1.78-1.25-2.75-2.98-2.75h-3.53c-1.2.33-1.97,1.2-1.97,3.47,0,2.03,1.06,3.14,3.67,3.14ZM468.37,625.19c.36.36.86.56,1.45.56s1.08-.19,1.45-.56c.56-.56.83-1.39.83-2.92s-.28-2.39-.83-2.95c-.36-.36-.86-.56-1.45-.56s-1.08.19-1.45.56c-.56.56-.83,1.39-.83,2.95s.28,2.36.83,2.92Z"/>
      <path class="cls-7" d="M483.49,618.3c3.17,0,4.95,2.64,4.95,5.37,0,.36-.11.45-.44.45h-7.42v.5c0,2.7.44,4.09,1.28,4.92.5.5,1.28.78,2.06.78,1.81,0,3.14-1.33,3.92-2.64.08-.14.47.08.42.22-.75,1.61-2.56,3.03-4.75,3.03-3.25,0-5.89-2.67-5.89-6.31s2.78-6.31,5.89-6.31ZM481.68,619.44c-.89.89-1.14,2.36-1.14,4.2h4.7c.39,0,.5-.03.5-.31,0-2.22-.22-3.28-.92-3.98-.39-.39-.94-.58-1.5-.58s-1.2.22-1.64.67Z"/>
      <path class="cls-7" d="M130.79,663.45h1.95c.42,0,.47-.06.47-.47v-18.49c0-.42-.06-.47-.47-.47h-1.86c-.11,0-.17-.03-.17-.25s.06-.25.17-.25h15.37c.39,0,.47.11.47.5v5.53c0,.11-.06.17-.28.17-.14,0-.19-.08-.22-.22-.78-3.98-2.28-5.48-4.95-5.48h-4.17c-.42,0-.47.06-.47.47v8.48h1.75c2.86,0,3.59-.78,3.98-3.28.03-.14.08-.2.22-.2.22,0,.28.06.28.17v7.12c0,.11-.06.17-.28.17-.14,0-.19-.08-.22-.22-.39-2.5-1.11-3.25-3.98-3.25h-1.75v9.51c0,.42.06.47.47.47h2.56c.11,0,.17.03.17.25s-.06.25-.17.25h-8.87c-.11,0-.17-.03-.17-.25s.06-.25.17-.25Z"/>
      <g>
        <path class="cls-7" d="M152.98,664.29c-3.48,0-6.12-2.67-6.12-6.31s2.61-6.31,6.12-6.31,6.12,2.64,6.12,6.31-2.64,6.31-6.12,6.31ZM151.12,663.04c.5.5,1.08.75,1.86.75s1.36-.25,1.86-.75c.83-.83,1.28-2.36,1.28-5.06s-.44-4.23-1.28-5.06c-.5-.5-1.08-.75-1.86-.75s-1.36.25-1.86.75c-.83.83-1.28,2.36-1.28,5.06s.44,4.23,1.28,5.06Z"/>
        <path class="cls-7" d="M160.71,663.45h1.47c.42,0,.47-.06.47-.47v-10.01c0-.42-.06-.47-.47-.47h-1.31c-.11,0-.17-.03-.17-.25s.06-.25.17-.25h4c.42,0,.47.06.47.47v.14c0,.28-.06,1.36-.06,1.78l.08.06c.39-1.64,1.56-2.78,3.14-2.78,1.45,0,2.36,1.03,2.36,2.14s-.81,1.78-1.58,1.78c-.69,0-1.17-.47-1.17-1.08,0-.75.47-1,.47-1.53,0-.39-.25-.7-.69-.7-.97,0-2.14,1.22-2.5,4.06v6.64c0,.42.06.47.47.47h1.64c.11,0,.17.03.17.25s-.06.25-.17.25h-6.81c-.11,0-.17-.03-.17-.25s.06-.25.17-.25Z"/>
        <path class="cls-7" d="M179.85,663.45h1.95c.42,0,.47-.06.47-.47v-18.49c0-.42-.06-.47-.47-.47h-1.86c-.11,0-.17-.03-.17-.25s.06-.25.17-.25h8.09c.11,0,.17.03.17.25s-.06.25-.17.25h-1.86c-.42,0-.47.06-.47.47v8.01h7.76v-8.01c0-.42-.06-.47-.47-.47h-1.86c-.11,0-.17-.03-.17-.25s.06-.25.17-.25h8.09c.11,0,.17.03.17.25s-.06.25-.17.25h-1.86c-.42,0-.47.06-.47.47v18.49c0,.42.06.47.47.47h1.95c.11,0,.17.03.17.25s-.06.25-.17.25h-8.26c-.11,0-.17-.03-.17-.25s.06-.25.17-.25h1.95c.42,0,.47-.06.47-.47v-9.98h-7.76v9.98c0,.42.06.47.47.47h1.95c.11,0,.17.03.17.25s-.06.25-.17.25h-8.26c-.11,0-.17-.03-.17-.25s.06-.25.17-.25Z"/>
        <path class="cls-7" d="M200.73,663.45h1.47c.42,0,.47-.06.47-.47v-10.01c0-.42-.06-.47-.47-.47h-1.2c-.11,0-.17-.03-.17-.25s.06-.25.17-.25h3.95c.42,0,.47.06.47.47v10.51c0,.42.06.47.47.47h1.28c.11,0,.17.03.17.25s-.06.25-.17.25h-6.45c-.11,0-.17-.03-.17-.25s.06-.25.17-.25ZM203.87,643.52c1,0,1.78.83,1.78,1.75s-.78,1.72-1.78,1.72-1.75-.81-1.75-1.72.75-1.75,1.75-1.75Z"/>
        <path class="cls-7" d="M211.55,664.48v-.11c-1.92-.08-2.89-1.17-2.89-2.56,0-1.56,1.2-2.67,3.28-2.78l.03-.08c-1.36-.58-2.42-1.95-2.42-3.31,0-2.11,1.89-3.98,4.75-3.98,1.33,0,2.47.42,3.31,1.08.33-1.17,1.11-1.78,2.11-1.78,1.17,0,1.75.67,1.75,1.42s-.58,1.33-1.17,1.33c-.53,0-.92-.31-.92-.86,0-.58.39-.81.39-1.11,0-.17-.19-.31-.39-.31-.64,0-1.22.64-1.45,1.61.7.7,1.11,1.61,1.11,2.59,0,2.28-1.83,3.95-4.75,3.95-.64,0-1.25-.19-1.83-.19-1.78,0-2.75.58-2.75,1.58,0,.7.53,1.08,1.42,1.08h4.75c3.09,0,4.87,1.67,4.87,4,0,3.09-2.89,5.53-6.45,5.53-3.75,0-5.7-1.58-5.7-3.64,0-1.67,1.2-2.84,2.95-3.48ZM214.3,671.1c2.92,0,4.81-1.72,4.81-3.86,0-1.78-1.25-2.75-2.98-2.75h-3.53c-1.2.33-1.97,1.2-1.97,3.48,0,2.03,1.06,3.14,3.67,3.14ZM212.85,658.56c.36.36.86.56,1.45.56s1.08-.19,1.45-.56c.56-.56.83-1.39.83-2.92s-.28-2.39-.83-2.95c-.36-.36-.86-.56-1.45-.56s-1.08.19-1.45.56c-.56.56-.83,1.39-.83,2.95s.28,2.36.83,2.92Z"/>
        <path class="cls-7" d="M222.22,663.45h1.45c.42,0,.47-.06.47-.47v-18.99c0-.42-.06-.47-.47-.47h-1.17c-.11,0-.14-.03-.14-.25s.03-.25.14-.25h3.92c.42,0,.47.06.47.47v8.23c0,.67-.08,1.83-.17,2.45l.08.06c.44-1.33,1.56-2.56,3.73-2.56,2.95,0,4.53,1.56,4.53,4.31v7.01c0,.42.06.47.47.47h1.08c.11,0,.17.03.17.25s-.06.25-.17.25h-6.09c-.11,0-.17-.03-.17-.25s.06-.25.17-.25h1.31c.42,0,.47-.06.47-.47v-7.26c0-2.36-.97-3.45-2.56-3.45-1.45,0-2.56,1.28-2.86,3.11v7.59c0,.42.06.47.47.47h1.47c.11,0,.17.03.17.25s-.06.25-.17.25h-6.62c-.11,0-.17-.03-.17-.25s.06-.25.17-.25Z"/>
      </g>
      <path class="cls-7" d="M237.82,663.45h1.61c.42,0,.47-.06.47-.47v-18.99c0-.42-.06-.47-.47-.47h-1.31c-.11,0-.17-.03-.17-.25s.06-.25.17-.25h4.06c.42,0,.47.06.47.47v19.49c0,.42.06.47.47.47h1.28c.11,0,.17.03.17.25s-.06.25-.17.25h-6.59c-.11,0-.17-.03-.17-.25s.06-.25.17-.25Z"/>
      <g>
        <path class="cls-7" d="M244.84,652h6.25c.08,0,.14.03.14.25s-.06.25-.17.25h-1.45c-.42,0-.44.06-.28.47l2.28,5.7c.28.7.7,1.89,1,2.75h.11l1.7-4.81c1.28-3.61,1.03-4-.92-4.11-.11,0-.17-.06-.17-.25,0-.22.06-.25.17-.25h4.36c.11,0,.17.03.17.25,0,.19-.08.25-.17.25-1.2.11-1.5.42-2.89,4.25l-4.23,11.62c-.86,2.33-1.64,3.09-3,3.09s-2.17-.97-2.17-2.14c0-.97.81-1.7,1.53-1.7.64,0,1,.36,1,1,0,.75-.83,1.17-.83,1.7,0,.31.19.64.61.64.92,0,1.58-.56,2.42-2.81l1.5-4.12h-.64c-.17,0-.19-.06-.28-.22l-4.34-10.84c-.17-.42-.22-.47-.64-.47h-1.08c-.08,0-.14-.03-.14-.25s.06-.25.14-.25Z"/>
        <path class="cls-7" d="M273.56,643.27c2,0,2.72.81,4.23.81.5,0,.7-.19.95-.5.08-.11.19-.17.31-.17.14,0,.19.08.19.31v5.89c0,.08-.11.17-.25.17s-.25-.06-.25-.17c-.42-3.56-2.08-5.84-5.2-5.84-2.08,0-3.42,1.33-3.42,3,0,1.95.81,3.09,4.67,4.95,3.98,1.92,5.64,3.61,5.64,6.53,0,3.36-2.56,6.03-6.48,6.03-2.42,0-3.34-1-4.67-1-.64,0-1.08.19-1.39.64-.08.14-.19.22-.31.22-.14,0-.19-.08-.19-.31v-7.06c0-.08.08-.17.25-.17.19,0,.25.08.25.17.61,4.45,2.59,7.01,6,7.01,2.78,0,4.5-1.56,4.5-3.7s-1.11-3.39-5.23-5.37c-3.81-1.83-5.03-3.64-5.03-6.31s2.22-5.14,5.42-5.14Z"/>
        <path class="cls-7" d="M288.55,651.66c3.17,0,4.95,2.64,4.95,5.37,0,.36-.11.45-.44.45h-7.42v.5c0,2.7.44,4.09,1.28,4.92.5.5,1.28.78,2.06.78,1.81,0,3.14-1.33,3.92-2.64.08-.14.47.08.42.22-.75,1.61-2.56,3.03-4.75,3.03-3.25,0-5.89-2.67-5.89-6.31s2.78-6.31,5.89-6.31ZM286.75,652.8c-.89.89-1.14,2.36-1.14,4.2h4.7c.39,0,.5-.03.5-.31,0-2.22-.22-3.28-.92-3.98-.39-.39-.94-.58-1.5-.58s-1.2.22-1.64.67Z"/>
        <path class="cls-7" d="M295.09,663.45h1.47c.42,0,.47-.06.47-.47v-10.01c0-.42-.06-.47-.47-.47h-1.14c-.11,0-.17-.03-.17-.25s.06-.25.17-.25h3.84c.42,0,.47.06.47.47,0,.39-.06,1.14-.11,1.7l.08.06c.47-1.33,1.58-2.56,3.75-2.56,2.81,0,4.36,1.53,4.36,4.31v7.01c0,.42.06.47.47.47h1.14c.11,0,.17.03.17.25s-.06.25-.17.25h-6.12c-.11,0-.17-.03-.17-.25s.06-.25.17-.25h1.28c.42,0,.47-.06.47-.47v-7.31c0-2.5-1.06-3.39-2.45-3.39s-2.53,1.28-2.84,3.17v7.53c0,.42.06.47.47.47h1.28c.11,0,.17.03.17.25s-.06.25-.17.25h-6.45c-.11,0-.17-.03-.17-.25s.06-.25.17-.25Z"/>
        <path class="cls-7" d="M315.33,651.66c1.5,0,2.11.7,2.61.7.28,0,.39-.14.58-.36.08-.11.17-.17.31-.17s.19.08.19.22v3.11c0,.08-.11.17-.25.17s-.22-.06-.25-.17c-.5-2.08-1.45-3-3.2-3-1.25,0-1.97.75-1.97,1.86,0,.89.58,1.78,2.78,2.5,2.72.89,3.81,2.22,3.81,3.95,0,2.22-1.58,3.81-4.39,3.81-1.78,0-2.39-.78-3.25-.78-.28,0-.47.14-.72.45-.08.11-.17.17-.31.17s-.19-.08-.19-.22v-4.31c0-.08.08-.17.25-.17.19,0,.22.08.25.17.56,2.7,1.83,4.2,3.98,4.2,1.64,0,2.61-.89,2.61-2.2s-.75-2.11-2.89-2.81c-2.56-.83-3.7-1.97-3.7-3.86,0-2.06,1.75-3.25,3.75-3.25Z"/>
        <path class="cls-7" d="M321.45,663.45h1.47c.42,0,.47-.06.47-.47v-10.01c0-.42-.06-.47-.47-.47h-1.2c-.11,0-.17-.03-.17-.25s.06-.25.17-.25h3.95c.42,0,.47.06.47.47v10.51c0,.42.06.47.47.47h1.28c.11,0,.17.03.17.25s-.06.25-.17.25h-6.45c-.11,0-.17-.03-.17-.25s.06-.25.17-.25ZM324.59,643.52c1,0,1.78.83,1.78,1.75s-.78,1.72-1.78,1.72-1.75-.81-1.75-1.72.75-1.75,1.75-1.75Z"/>
        <path class="cls-7" d="M329.07,652h1.7v-.25c0-.11.03-.19.11-.31.81-1.14,1.39-2.22,1.95-3.42.14-.28.19-.33.36-.33.22,0,.33.06.33.47v3.84h3.09c.11,0,.17.03.17.25s-.06.25-.17.25h-3.09v9.2c0,1.22.42,1.64,1.17,1.64.64,0,1.33-.5,1.95-1.67.08-.17.53.03.44.19-.75,1.67-1.81,2.42-3.2,2.42-1.97,0-3.11-1.25-3.11-3.75v-8.03h-1.7c-.11,0-.17-.03-.17-.25s.06-.25.17-.25Z"/>
        <path class="cls-7" d="M338.47,663.45h1.47c.42,0,.47-.06.47-.47v-10.01c0-.42-.06-.47-.47-.47h-1.2c-.11,0-.17-.03-.17-.25s.06-.25.17-.25h3.95c.42,0,.47.06.47.47v10.51c0,.42.06.47.47.47h1.28c.11,0,.17.03.17.25s-.06.25-.17.25h-6.45c-.11,0-.17-.03-.17-.25s.06-.25.17-.25ZM341.61,643.52c1,0,1.78.83,1.78,1.75s-.78,1.72-1.78,1.72-1.75-.81-1.75-1.72.75-1.75,1.75-1.75Z"/>
      </g>
      <path class="cls-7" d="M345.81,652h6.23c.11,0,.17.03.17.25s-.06.25-.19.25h-1.5c-.42,0-.42.06-.25.47l2.28,5.7c.28.67.72,1.89,1.03,2.81h.11l1.72-4.87c1.28-3.61,1-4-.92-4.11-.11,0-.17-.06-.17-.25,0-.22.06-.25.17-.25h4.36c.11,0,.17.03.17.25,0,.19-.06.25-.17.25-1.2.11-1.5.42-2.89,4.25l-2.59,7.06c-.06.14-.17.22-.31.22h-.97c-.17,0-.19-.06-.28-.22l-4.34-10.84c-.17-.42-.22-.47-.64-.47h-1.03c-.11,0-.17-.03-.17-.25s.06-.25.17-.25Z"/>
      <path class="cls-7" d="M365.61,651.66c3.17,0,4.95,2.64,4.95,5.37,0,.36-.11.45-.44.45h-7.42v.5c0,2.7.44,4.09,1.28,4.92.5.5,1.28.78,2.06.78,1.81,0,3.14-1.33,3.92-2.64.08-.14.47.08.42.22-.75,1.61-2.56,3.03-4.75,3.03-3.25,0-5.89-2.67-5.89-6.31s2.78-6.31,5.89-6.31ZM363.8,652.8c-.89.89-1.14,2.36-1.14,4.2h4.7c.39,0,.5-.03.5-.31,0-2.22-.22-3.28-.92-3.98-.39-.39-.94-.58-1.5-.58s-1.2.22-1.64.67Z"/>
      <path class="cls-7" d="M388.59,655.03c-.69,0-1.64-.08-2.5-.25v8.2c0,.42.06.47.47.47h2.17c.11,0,.17.03.17.25s-.06.25-.17.25h-8.48c-.11,0-.17-.03-.17-.25s.06-.25.17-.25h1.95c.42,0,.47-.06.47-.47v-18.49c0-.42-.06-.47-.47-.47h-1.86c-.11,0-.17-.03-.17-.25s.06-.25.17-.25h8.4c5.09,0,7.48,2.67,7.48,5.75,0,3.31-2.7,5.76-7.62,5.76ZM391.34,644.96c-.64-.64-1.39-.95-2.61-.95h-2.17c-.42,0-.47.06-.47.47v9.79c.78.17,1.81.25,2.5.25,1.25,0,2.11-.31,2.61-.81.81-.81,1.33-2.03,1.33-4.45,0-2.28-.42-3.53-1.2-4.31Z"/>
      <g>
        <path class="cls-7" d="M403.03,651.66c3.17,0,4.95,2.64,4.95,5.37,0,.36-.11.45-.44.45h-7.42v.5c0,2.7.44,4.09,1.28,4.92.5.5,1.28.78,2.06.78,1.81,0,3.14-1.33,3.92-2.64.08-.14.47.08.42.22-.75,1.61-2.56,3.03-4.75,3.03-3.25,0-5.89-2.67-5.89-6.31s2.78-6.31,5.89-6.31ZM401.22,652.8c-.89.89-1.14,2.36-1.14,4.2h4.7c.39,0,.5-.03.5-.31,0-2.22-.22-3.28-.92-3.98-.39-.39-.94-.58-1.5-.58s-1.2.22-1.64.67Z"/>
        <path class="cls-7" d="M409.57,663.45h1.47c.42,0,.47-.06.47-.47v-10.01c0-.42-.06-.47-.47-.47h-1.31c-.11,0-.17-.03-.17-.25s.06-.25.17-.25h4c.42,0,.47.06.47.47v.14c0,.28-.06,1.36-.06,1.78l.08.06c.39-1.64,1.56-2.78,3.14-2.78,1.45,0,2.36,1.03,2.36,2.14s-.81,1.78-1.58,1.78c-.69,0-1.17-.47-1.17-1.08,0-.75.47-1,.47-1.53,0-.39-.25-.7-.69-.7-.97,0-2.14,1.22-2.5,4.06v6.64c0,.42.06.47.47.47h1.64c.11,0,.17.03.17.25s-.06.25-.17.25h-6.81c-.11,0-.17-.03-.17-.25s.06-.25.17-.25Z"/>
        <path class="cls-7" d="M425.33,651.66c1.5,0,2.11.7,2.61.7.28,0,.39-.14.58-.36.08-.11.17-.17.31-.17s.19.08.19.22v3.11c0,.08-.11.17-.25.17s-.22-.06-.25-.17c-.5-2.08-1.45-3-3.2-3-1.25,0-1.97.75-1.97,1.86,0,.89.58,1.78,2.78,2.5,2.72.89,3.81,2.22,3.81,3.95,0,2.22-1.58,3.81-4.39,3.81-1.78,0-2.39-.78-3.25-.78-.28,0-.47.14-.72.45-.08.11-.17.17-.31.17s-.19-.08-.19-.22v-4.31c0-.08.08-.17.25-.17.19,0,.22.08.25.17.56,2.7,1.83,4.2,3.98,4.2,1.64,0,2.61-.89,2.61-2.2s-.75-2.11-2.89-2.81c-2.56-.83-3.7-1.97-3.7-3.86,0-2.06,1.75-3.25,3.75-3.25Z"/>
        <path class="cls-7" d="M438.07,664.29c-3.48,0-6.12-2.67-6.12-6.31s2.61-6.31,6.12-6.31,6.12,2.64,6.12,6.31-2.64,6.31-6.12,6.31ZM436.2,663.04c.5.5,1.08.75,1.86.75s1.36-.25,1.86-.75c.83-.83,1.28-2.36,1.28-5.06s-.44-4.23-1.28-5.06c-.5-.5-1.08-.75-1.86-.75s-1.36.25-1.86.75c-.83.83-1.28,2.36-1.28,5.06s.44,4.23,1.28,5.06Z"/>
        <path class="cls-7" d="M445.8,663.45h1.47c.42,0,.47-.06.47-.47v-10.01c0-.42-.06-.47-.47-.47h-1.14c-.11,0-.17-.03-.17-.25s.06-.25.17-.25h3.84c.42,0,.47.06.47.47,0,.39-.06,1.14-.11,1.7l.08.06c.47-1.33,1.58-2.56,3.75-2.56,2.81,0,4.36,1.53,4.36,4.31v7.01c0,.42.06.47.47.47h1.14c.11,0,.17.03.17.25s-.06.25-.17.25h-6.12c-.11,0-.17-.03-.17-.25s.06-.25.17-.25h1.28c.42,0,.47-.06.47-.47v-7.31c0-2.5-1.06-3.39-2.45-3.39s-2.53,1.28-2.84,3.17v7.53c0,.42.06.47.47.47h1.28c.11,0,.17.03.17.25s-.06.25-.17.25h-6.45c-.11,0-.17-.03-.17-.25s.06-.25.17-.25Z"/>
        <path class="cls-7" d="M466.04,651.66c1.5,0,2.11.7,2.61.7.28,0,.39-.14.58-.36.08-.11.17-.17.31-.17s.19.08.19.22v3.11c0,.08-.11.17-.25.17s-.22-.06-.25-.17c-.5-2.08-1.45-3-3.2-3-1.25,0-1.97.75-1.97,1.86,0,.89.58,1.78,2.78,2.5,2.72.89,3.81,2.22,3.81,3.95,0,2.22-1.58,3.81-4.39,3.81-1.78,0-2.39-.78-3.25-.78-.28,0-.47.14-.72.45-.08.11-.17.17-.31.17s-.19-.08-.19-.22v-4.31c0-.08.08-.17.25-.17.19,0,.22.08.25.17.56,2.7,1.83,4.2,3.98,4.2,1.64,0,2.61-.89,2.61-2.2s-.75-2.11-2.89-2.81c-2.56-.83-3.7-1.97-3.7-3.86,0-2.06,1.75-3.25,3.75-3.25Z"/>
      </g>
    </g>
    <path class="cls-4" d="M305.65,333.29c.71.53,1.39,1.05,1.98,1.61-1.48.96-3.09,1.82-4.76,2.63-.46-.25-.77-.59-.96-1.02,1.24-1.17,2.5-2.22,3.77-3.18l-.03-.03Z"/>
    <g>
      <path class="cls-6" d="M160.81,422.96c-58.95-55.06-68.72-119.2-32.47-145.12,1.61-1.54,4.17-1.54,5.53.22,9.3,11.99,14.31,47.58,14.8,49.06l1.17,1.45c.53-7.97-.25-16.07-2.47-24.25l-9.42-26.51-.4-1.95c4.26-1.79,9.21-.8,12.39,2.53,12.27,12.76,25.77,33.68,28.49,56.42.31,2.6.15,5.25-.46,7.79-18.69,60.03-17.15,80.36-17.15,80.36Z"/>
      <path class="cls-5" d="M130.43,234.21c15.48-12.98,26.29-25.21,30.87-47.83.15-.74,1.14-.87,1.45-.19,8.19,17.67,7.85,33.43-.8,49.65-.19.31-.37.65-.56,1.02-3.12,5.41-5.19,7.69-12.33,13.81-11.9,10.2-25.98,16.16-35.16,24.66-6.89,6.24-12.73,14.77-16.62,25.55-.49,1.39-2.5,1.24-2.78-.22-10.26-57.41,13.81-93.74,63.4-117.44.71-.34,1.54.31,1.39,1.08-4.73,22.52-14.43,32.75-29.44,50.18"/>
      <path class="cls-8" d="M182.16,175.1c22.52,2.38,44.4,5.38,59.63,14.74,1.64,1.3,1.21,2.26-.74,1.76,0,0-53.95-15.54-73.23-9.83l25.61,29.51c11.46,12.2,26.76,20.45,43.44,22.34,1.02.12,10.78.99,11.83.99,42.58.49,47.55-1.33,68.5,12.11-14.92-59.32-59.11-84.57-135.92-71.77"/>
      <path class="cls-6" d="M434.52,172.35c-58.64-4.45-103.54,18.94-117.32,46.93-1.51,3.4-.37,4.29,4.54,1.64l27.41-17.49c1.82-1.2,2.9-1.67,1.64.37-8.65,5.84-17.92,12.88-25.09,19.93-1.79,1.27-1.85,3.71,0,5.01,11.09,8.87,34.57,7.97,52.46,1.24,5.99-3.03,11.22-6.09,15.51-9.21,6.83-5.13,8.5-6.18,13.72-20.67,4.45-12.33,15.6-17.73,27.16-27.78l-.03.03Z"/>
      <path class="cls-8" d="M441.97,173.52c15.67,14.09,33.62,35.87,41.77,54.35.19.43-.4.74-.68.37-13.59-18.88-29.23-36.95-44.03-47.37-5.35,14-9.3,36.74-3.62,54.13,6.12,18.69,13.22,29.57,29.6,40.41,21.5,14.24,40.54,53.98,35.04,73.1,36.98-75.14,13.38-155.75-58.09-175.06"/>
      <path class="cls-6" d="M473.55,330.3c7.42,13.44,11.25,28.49,12.02,44.89.06,1.36,1.95,1.73,2.53.49,15.73-33,9.18-59.69-19.34-81.26-13.13-9.92-24.59-21.63-35.32-35.66,7.69,17.43,7.82,36.58,5.56,51.63-2.81,18.66,1.21,37.91,12.27,53.17,6.3,8.68,14.12,15.42,23.39,20.3,2.07,1.08,4.57-.37,4.7-2.72.87-16.44-1.61-33.28-6.8-50.46-.19-.59.68-.96.99-.4h0Z"/>
      <path class="cls-8" d="M375.2,415.88c17.02.71,33.03,2.66,47.46,6.46,3,.77,6.06,1.33,9.11,1.3,14.95-.25,26.51-7.45,39.12-22.83,1.3-1.61.06-4.14-1.98-4.54-6.27-1.27-20.7-.83-41.09.83,16.65-3.21,28.27-5.78,41.53-2.97,2.16-.15,3.37-2.75,1.95-4.39l-.03-.06c-19.5-20.24-40.23-24.69-62.91-7.2-2.5,1.95-4.73,4.26-6.58,6.86-8.99,12.51-17.95,20.21-26.88,25.3-.59.34-.37,1.2.31,1.24h0Z"/>
      <path class="cls-6" d="M379.13,459.72c-2.01,1.73-2.78.87-1.76-.96,11.59-11.68,24.69-21.72,43.69-24.96,2.04-.34,1.61-2.22-.06-3.31-.59-.4-3.15-1.73-4.94-1.73-30.03,0-58.43,4.63-60.74,35.13-1.54,20.14-13.56,36.4-23.05,48.63,24.69-7.6,47.67-18.51,67.54-35.41,1.76-1.48,3.58-2.87,5.41-4.29,7.6-5.84,14.95-20.48,22.68-35.75.49-6.27-12.95-1.3-37.01,12.3-3.31,1.85-6.4,4.11-9.02,6.83-1.14,1.17-2.16,2.41-2.97,3.68"/>
      <path class="cls-1" d="M271.97,423.82c-2.81,8.28-7.17,16.1-13.26,23.39-.43.53-1.3.15-1.24-.53,5.35-25.46,8.68-48.79,7.94-67.66-.19-4.67-2.47-9.02-6.36-11.68-14.49-9.89-31.55-18.01-49.4-25.58-.83-.34-.68-1.58.22-1.7,26.48-1.73,48.91,2.38,61.95-3.92,4.42-2.13,7.85-4.54,11.25-5.81,2.53-.96,3.8-3.77,2.78-6.27-.99-7.01-4.7-15.17-9.73-23.91-41.68-14.4-76.25-32.07-116.05-40.2-1.48-.37-1.64-2.41-.22-2.97,18.57-7.48,41.93-9.52,73.04-2.78,10.51,3.18,25.58,3.86,42.7,3.46,12.17-1.27,26.73.4,42.33,3.43,11.93,2.78,22.8,12.02,31.79,23.48,1.7,2.16,4.91,2.32,6.8.31,7.97-8.56,17.3-11.18,33.62-5.35.53.19,1.08.25,1.64.15l14.31-2.56-3.52,8.5c-.19.49-.37.99-.49,1.48l-2.44,10.26c-.19.77-.53,1.45-.99,2.07-8.93,6.27-4.54,14.55-19.71,22.15-3.4,2.29-4.54,6.3-3.4,12.11,6.4,22.83,4.45,42.42-5.59,58.89-13.63,26.94-28.83,36.24-44.43,65.47-12.51,19.56-27.37,33.37-43.53,43.97-2.19,1.42-4.88-.9-3.74-3.24,6.24-12.64,14.18-26.48,17.89-43.23,5.19-23.61,14.03-46.72,23.3-71.13.43-1.14.15-2.44-.71-3.28l-4.67-6.7c-2.04-2.04-5.78-3.21-7.72-1.08-3.77,4.11-9.92,11.62-20.08,18.35-6.21,7.79-10.94,19.03-13.63,30.43-.15.62-.37,1.24-.71,1.79l.09-.12Z"/>
      <path class="cls-2" d="M396.4,291.24l.87,1.36c-3.61,13.25-10.35,22.99-20.89,28.39-.71.37-1.54-.19-1.51-.96.09-3.99.59-7.69,3.12-9.73,7.11-5.78,5.16-4.88,5.99-5.01,4.94-.8,8.93-1.82,8.9-9.7,0-.43.15-.9.46-1.2l3.09-3.15h-.03Z"/>
    </g>
  </g>
</svg>