<?xml version="1.0" encoding="UTF-8"?>
<svg id="Layer_2" data-name="Layer 2" xmlns="http://www.w3.org/2000/svg" viewBox="0 0 286.88 260.49">
  <defs>
    <style>
      .cls-1 {
        fill: #231f20;
      }

      .cls-2 {
        fill: #fff;
      }
    </style>
  </defs>
  <g id="collected">
    <g>
      <rect class="cls-2" x=".5" y="57.3" width="202.69" height="202.69"/>
      <polygon class="cls-1" points="203.19 259.99 203.19 259.49 1 259.49 1 57.8 202.69 57.8 202.69 259.99 203.19 259.99 203.19 259.49 203.19 259.99 203.69 259.99 203.69 56.8 0 56.8 0 260.49 203.69 260.49 203.69 259.99 203.19 259.99"/>
      <path class="cls-1" d="M9.05,170.37s0,.24,0,.36c0-.12,0-.36,0-.36h.01Z"/>
      <path class="cls-1" d="M9.05,170.72h-.01c0-.17,0-.3,0-.44,0,.15,0,.27,0,.44Z"/>
      <polygon class="cls-1" points="90.51 98.88 90.51 98.88 90.4 98.88 90.51 98.88"/>
      <path class="cls-1" d="M9.56,168.37v.08h-.52c.19,0,.35-.08.52-.08Z"/>
      <polygon class="cls-1" points="9.05 194.54 9.04 194.54 9.04 194.54 9.05 194.54"/>
      <polygon class="cls-1" points="32.25 98.83 32.25 98.83 32.1 98.83 32.25 98.83"/>
      <polygon class="cls-1" points="9.25 170.72 9.04 170.72 9.04 170.45 9.25 170.72"/>
      <path class="cls-1" d="M116.43,134.89c-.1-4.45-1.03-8.72-2.65-12.62-2.57-6.2-6.87-11.46-12.3-15.2-2.72-1.87-5.72-3.35-8.92-4.36-3.17-1-6.55-1.51-10.04-1.52l-.11.04h-18.68v69.49h16.43c.19,0,.38-.04.57-.04,4.78-.07,9.36-1.08,13.54-2.81,6.51-2.71,12.05-7.23,15.97-12.94,1.96-2.85,3.52-6.01,4.58-9.38.99-3.13,1.55-6.44,1.62-9.86,0-.15,0-.3,0-.45h0c0-.12,0-.24,0-.36ZM104.71,145.02c-2.01,4.67-5.38,8.67-9.63,11.49-2.13,1.41-4.47,2.57-6.98,3.33-2.5.76-5.17,1.22-7.95,1.22h-6.77v-50.17h9.13c3.33,0,6.48.66,9.36,1.9,4.36,1.87,8.09,5,10.73,8.97,1.32,1.98,2.36,4.17,3.08,6.5.68,2.23,1.06,4.59,1.1,7.06-.06,3.45-.79,6.7-2.07,9.69Z"/>
      <path class="cls-1" d="M30.67,136.91c.93-.22,1.83-.5,2.71-.84,3.42-1.34,6.36-3.59,8.48-6.49,1.06-1.45,1.91-3.07,2.49-4.8.58-1.74.9-3.6.9-5.51,0-2.55-.56-5-1.57-7.2-.75-1.65-1.75-3.17-2.94-4.5-1.79-2.01-4-3.62-6.51-4.74-2.45-1.1-5.19-1.72-8.05-1.75h-.15s-.02-.01-.02-.01l-7.31.03v-.03h-9.66v69.66h9.66v-33.54l.21.27,25.47,33.1h12.1l-25.81-33.64ZM26.01,110.72h.01c1.38,0,2.67.27,3.83.73,1.75.69,3.21,1.83,4.2,3.19.5.68.88,1.42,1.14,2.19.26.77.4,1.58.4,2.44,0,1.14-.24,2.2-.7,3.19-.34.74-.8,1.45-1.37,2.09-.85.96-1.96,1.8-3.23,2.37-1.27.57-2.72.92-4.27.92h-7.31v-17.09l7.31-.03Z"/>
      <polygon class="cls-1" points="142.39 136.25 164.56 170.72 152.97 170.72 136.65 145.19 120.39 170.55 108.81 170.55 130.92 136.17 108.68 101.4 120.04 101.4 136.65 127.27 153.33 101.4 164.69 101.4 142.39 136.25"/>
      <polygon class="cls-1" points="59.54 237.37 59.54 247.03 9.04 247.03 9.04 177.54 59.37 177.54 59.37 187.2 18.7 187.2 18.7 208.05 45.65 208.05 45.65 217.71 18.7 217.71 18.7 237.37 59.54 237.37"/>
      <polygon class="cls-1" points="117.54 177.54 117.54 247.03 107.83 247.03 107.79 246.98 75.85 197.96 75.85 247.03 66.19 247.03 66.19 177.54 75.93 177.54 107.88 227.7 107.88 177.54 117.54 177.54"/>
      <polygon class="cls-1" points="114.89 247.03 114.89 247.03 114.89 247.02 114.89 247.03"/>
      <polygon class="cls-1" points="194.58 177.74 159.94 247.03 125.21 177.55 135.49 177.51 159.91 226.75 184.39 177.74 194.58 177.74"/>
      <polygon class="cls-1" points="84.2 57.04 84.2 1.19 285.88 1.19 285.88 202.88 202.83 202.88 202.83 203.88 286.88 203.88 286.88 .19 83.2 .19 83.2 57.04 84.2 57.04"/>
      <polyline class="cls-1" points=".92 56.54 84.09 .83 83.54 0 .36 55.71"/>
      <polyline class="cls-1" points="203.07 57.74 286.25 2.03 285.69 1.2 202.52 56.91"/>
      <polyline class="cls-1" points="203.47 260.48 286.65 204.76 286.09 203.93 202.92 259.65"/>
    </g>
  </g>
</svg>